<?xml version="1.0" encoding="utf-8"?>
<!-- Generator: Adobe Illustrator 24.0.2, SVG Export Plug-In . SVG Version: 6.00 Build 0)  -->
<svg version="1.1" id="Layer_1" xmlns="http://www.w3.org/2000/svg" xmlns:xlink="http://www.w3.org/1999/xlink" x="0px" y="0px"
	 viewBox="0 0 600 600" style="enable-background:new 0 0 600 600;" xml:space="preserve">
<style type="text/css">
	.st0{fill:#1E5AA8;stroke:#0563AB;stroke-width:0.9884;stroke-miterlimit:10;}
	.st1{fill:#CFE385;stroke:#C0D386;stroke-width:0.9884;stroke-miterlimit:10;}
	.st2{fill:#A5CA18;stroke:#9AC03C;stroke-width:0.9884;stroke-miterlimit:10;}
	.st3{stroke:#000000;stroke-width:0.9884;stroke-miterlimit:10;}
	.st4{fill:#3C7B3B;stroke:#36793B;stroke-width:0.9884;stroke-miterlimit:10;}
	.st5{fill:#C8E9F5;}
	.st6{fill:#68C3E2;}
	.st7{fill:#1E5AA8;}
	.st8{fill:#FFFFFF;}
	.st9{fill:#D2D2D2;}
</style>
<g>
	<g>
		<g>
			<path d="M296.8,457.6c-3.6,0-6.9-1.2-9.6-3.3c3.1-6.9,9.3-16.2,17.8-25.2c4.3,2.7,7.2,7.6,7.2,13.1c0,2.4-0.5,4.6-1.5,6.6
				c-2.7-1.2-5.2-2.8-7.4-4.8l4.7,8.8C305.3,455.7,301.3,457.6,296.8,457.6L296.8,457.6z M281.4,442.1c0-8.5,6.9-15.5,15.5-15.5
				c2.3,0,4.5,0.5,6.4,1.4c-8.4,7.4-14.9,16-18.7,23.5C282.6,448.9,281.4,445.6,281.4,442.1L281.4,442.1z M312.8,449.5
				c1-2.3,1.6-4.8,1.6-7.4c0-6.1-3.1-11.5-7.9-14.6c2.8-2.9,5.9-5.8,9.1-8.5c-3.8,2.2-7.4,4.8-10.7,7.6c-2.4-1.3-5.2-2-8.2-2
				c-9.7,0-17.6,7.9-17.6,17.6c0,4.4,1.6,8.4,4.3,11.5c-3.4,7.3-4,13.1-1,15.1c3.2,2.1,10.1-1.7,14.2-8c0,0-6.4,5.8-9.9,4.5
				c-2.2-0.8-2.2-4.1-0.4-8.9c2.9,2.1,6.5,3.4,10.4,3.4c4.8,0,9.2-1.9,12.4-5.1l0.6,1.2c7.7-0.6,30.5-1.2,30.5-1.2
				C340.3,453.4,325.2,454.4,312.8,449.5L312.8,449.5z"/>
		</g>
		<polygon points="417.6,440.5 420.5,436.7 410.5,436.7 413,433.4 423,433.4 425.8,429.6 405.9,429.6 392.2,447.8 412.1,447.8 
			415,444 405,444 407.7,440.5 417.6,440.5 417.6,440.5 		"/>
		<polygon points="431.5,429.6 417.8,447.8 427.7,447.8 441.4,429.6 431.5,429.6 431.5,429.6 		"/>
		<polygon points="464.6,429.6 457.7,438.8 455.5,429.6 447.7,429.6 434.1,447.8 440.6,447.8 447.5,438.7 449.6,447.8 457.5,447.8 
			471.2,429.6 464.6,429.6 464.6,429.6 		"/>
		<path d="M497.1,429.6l-16,0c-2.7,0-5.2,1.3-6.7,3.3l-8.2,10.9c-0.3,0.4-0.5,0.9-0.5,1.5c0,1.3,1.1,2.4,2.4,2.4h16
			c2.7,0,5.2-1.3,6.7-3.3l2-2.6h2.3l2.9-3.8h-12.2l-3.9,5.1c-0.4,0.5-1,0.9-1.7,0.9h-2.8c-0.4,0-0.6-0.3-0.6-0.6
			c0-0.1,0.1-0.3,0.1-0.4l6.6-8.7c0.4-0.5,1-0.9,1.7-0.9h2.8c0.4,0,0.6,0.3,0.6,0.6c0,0.1,0,0.3-0.1,0.4l-1.1,1.4h9.9l1.8-2.3
			c0.3-0.4,0.5-0.9,0.5-1.5C499.5,430.7,498.4,429.6,497.1,429.6L497.1,429.6L497.1,429.6z"/>
		<path d="M386.7,434.4l-6.6,8.7c-0.4,0.5-1,0.9-1.7,0.9h-2.8c-0.3,0-0.6-0.3-0.6-0.6c0-0.1,0-0.3,0.1-0.4l6.6-8.7
			c0.4-0.5,1-0.9,1.7-0.9h2.8c0.3,0,0.6,0.3,0.6,0.6C386.8,434.2,386.7,434.3,386.7,434.4L386.7,434.4L386.7,434.4z M397.8,432
			c0-1.3-1.1-2.4-2.4-2.4h-16c-2.7,0-5.2,1.3-6.7,3.3l-8.3,10.9c-0.3,0.4-0.5,0.9-0.5,1.5c0,1.3,1.1,2.4,2.4,2.4h16
			c2.7,0,5.2-1.3,6.7-3.3l8.3-10.9C397.6,433.1,397.8,432.6,397.8,432L397.8,432L397.8,432z"/>
		<path d="M356.3,434.4l-1,1.4c-0.4,0.5-1,0.9-1.7,0.9l-4.1,0l2.5-3.3h3.9c0.4,0,0.6,0.3,0.6,0.6
			C356.4,434.2,356.4,434.3,356.3,434.4L356.3,434.4L356.3,434.4z M351,441.5l-1.2,1.6c-0.4,0.5-1,0.9-1.7,0.9h-4.1l2.6-3.5h3.9
			c0.3,0,0.6,0.3,0.6,0.6C351.1,441.3,351.1,441.4,351,441.5L351,441.5L351,441.5z M360.2,439.1c2-0.4,3.7-1.6,4.8-3.1l1.9-2.5
			c0.3-0.4,0.5-0.9,0.5-1.5c0-1.3-1.1-2.4-2.4-2.4h-10.2l0,0h-9.9l-13.7,18.2h9.8H352c2.7,0,5.2-1.3,6.7-3.3l1.9-2.6
			c0.2-0.3,0.4-0.7,0.4-1.2C361,440.1,360.7,439.5,360.2,439.1L360.2,439.1L360.2,439.1z"/>
		<g>
			<path d="M124.8,438.4h-2.1v3.1h2.1c1,0,1.7-0.6,1.7-1.6C126.5,439.1,125.8,438.4,124.8,438.4L124.8,438.4z M124.9,443.6h-2.2v4.3
				h-2.2v-11.5h4.4c2.4,0,3.8,1.6,3.8,3.6C128.7,441.9,127.3,443.6,124.9,443.6L124.9,443.6z"/>
			<path d="M135.8,438.4h-2.1v3h2.1c1,0,1.6-0.6,1.6-1.5C137.4,439,136.7,438.4,135.8,438.4L135.8,438.4z M137.5,447.9l-2.2-4.6
				h-1.6v4.6h-2.2v-11.5h4.5c2.3,0,3.7,1.6,3.7,3.5c0,1.6-1,2.6-2.1,3l2.6,4.9H137.5L137.5,447.9z"/>
			<polygon points="142.8,447.9 142.8,436.4 150.3,436.4 150.3,438.4 145,438.4 145,441.1 149.5,441.1 149.5,443.1 145,443.1 
				145,445.9 150.3,445.9 150.3,447.9 142.8,447.9 			"/>
			<path d="M156.5,448c-1.7,0-3.1-0.4-4.2-1.5l1.4-1.4c0.7,0.7,1.7,1,2.8,1c1.3,0,2-0.5,2-1.4c0-0.4-0.1-0.7-0.4-1
				c-0.2-0.2-0.5-0.3-1-0.4l-1.4-0.2c-1-0.1-1.7-0.5-2.2-1c-0.5-0.5-0.8-1.3-0.8-2.3c0-2,1.5-3.5,4-3.5c1.6,0,2.7,0.4,3.7,1.3
				l-1.4,1.4c-0.7-0.7-1.6-0.8-2.4-0.8c-1.2,0-1.8,0.7-1.8,1.4c0,0.3,0.1,0.6,0.3,0.8c0.2,0.2,0.6,0.4,1.1,0.5l1.4,0.2
				c1,0.1,1.7,0.4,2.2,0.9c0.6,0.6,0.9,1.4,0.9,2.4C160.7,446.7,158.9,448,156.5,448L156.5,448z"/>
			<polygon points="163.6,447.9 163.6,436.4 171.2,436.4 171.2,438.4 165.9,438.4 165.9,441.1 170.4,441.1 170.4,443.1 165.9,443.1 
				165.9,445.9 171.2,445.9 171.2,447.9 163.6,447.9 			"/>
			<polygon points="181,447.9 176.4,440.8 176.4,447.9 174.2,447.9 174.2,436.4 176.2,436.4 180.7,443.4 180.7,436.4 183,436.4 
				183,447.9 181,447.9 			"/>
			<polygon points="190.8,438.4 190.8,447.9 188.6,447.9 188.6,438.4 185.6,438.4 185.6,436.4 193.8,436.4 193.8,438.4 190.8,438.4 
							"/>
			<polygon points="196.5,447.9 196.5,436.4 204,436.4 204,438.4 198.7,438.4 198.7,441.1 203.2,441.1 203.2,443.1 198.7,443.1 
				198.7,445.9 204,445.9 204,447.9 196.5,447.9 			"/>
			<path d="M212.6,439.1c-0.4-0.5-0.9-0.7-1.7-0.7h-1.7v7.5h1.7c0.8,0,1.3-0.2,1.7-0.7c0.4-0.5,0.5-1.3,0.5-3.1
				C213.1,440.4,213,439.6,212.6,439.1L212.6,439.1z M214.2,446.8c-0.8,0.8-1.8,1.1-3,1.1H207v-11.5h4.1c1.2,0,2.3,0.3,3,1.1
				c1.3,1.3,1.2,2.9,1.2,4.6C215.3,443.8,215.5,445.5,214.2,446.8L214.2,446.8z"/>
			<path d="M227.6,443.1h-2.3v2.8h2.3c1,0,1.5-0.6,1.5-1.4C229,443.7,228.6,443.1,227.6,443.1L227.6,443.1z M227.4,438.4h-2.2v2.6
				h2.2c1,0,1.5-0.5,1.5-1.3C228.9,438.9,228.4,438.4,227.4,438.4L227.4,438.4z M227.8,447.9H223v-11.5h4.6c2.2,0,3.5,1.3,3.5,3.2
				c0,1.3-0.8,2.1-1.4,2.4c0.7,0.3,1.6,1,1.6,2.6C231.3,446.7,229.8,447.9,227.8,447.9L227.8,447.9z"/>
			<polygon points="238.8,443.2 238.8,447.9 236.5,447.9 236.5,443.2 233.1,436.4 235.5,436.4 237.7,441 239.8,436.4 242.2,436.4 
				238.8,443.2 			"/>
		</g>
	</g>
	<g>
		<path class="st0" d="M247.2,310.1h-39.7c16.3,28.2,44.2,49,77.1,55.6C268.6,355.8,255.3,335.8,247.2,310.1z"/>
		<path class="st1" d="M330.4,365.7c32.9-6.7,60.8-27.4,77.1-55.6h-39.7C359.7,335.8,346.4,355.8,330.4,365.7z"/>
		<path class="st2" d="M315.9,367c20.2-4.8,37.4-26.5,47.2-56.9h-33.3C327,335.9,322.4,357.3,315.9,367z"/>
		<path class="st3" d="M251.9,310.1c10,31.1,27.8,53.1,48.5,57.2c-6.5-9.5-11.3-31.2-14.1-57.2H251.9z"/>
		<path class="st4" d="M325.2,310.1h-34.3c4,36.5,11.3,57.6,17,57.9c0.1,0,0.2,0,0.4,0C314.1,367.4,321.3,346.4,325.2,310.1z"/>
		<path d="M313.1,132.8c-0.2-0.1-0.4-0.1-0.7-0.1H207.2c-1,0-1.8,0.8-1.8,1.8c0,1,0.8,1.8,1.8,1.8h70.8
			c-51.5,13-89.9,59.5-90.5,114.9h-99c-1,0-1.8,0.8-1.8,1.8s0.8,1.8,1.8,1.8h101.2h48h187.3c1.3,0,2.3-1,2.3-2.3
			C427.5,188.4,376.7,135.7,313.1,132.8z"/>
		<g>
			<path d="M174.3,193.7h-41c-1,0-1.8-0.8-1.8-1.8s0.8-1.8,1.8-1.8h41c1,0,1.8,0.8,1.8,1.8S175.3,193.7,174.3,193.7z"/>
		</g>
		<g>
			<path d="M200.6,331.2h-32.9c-1,0-1.8-0.8-1.8-1.8c0-1,0.8-1.8,1.8-1.8h32.9c1,0,1.8,0.8,1.8,1.8
				C202.5,330.4,201.6,331.2,200.6,331.2z"/>
		</g>
		<g>
			<path d="M190.3,181.9h-26.1c-1,0-1.8-0.8-1.8-1.8s0.8-1.8,1.8-1.8h26.1c1,0,1.8,0.8,1.8,1.8S191.3,181.9,190.3,181.9z"/>
		</g>
		<path d="M480.7,305.5c-1.8,0-3.3,1.1-4,2.6h0H139.3h0c-0.7-1.5-2.2-2.6-4-2.6c-2.4,0-4.4,2-4.4,4.4c0,2.4,2,4.4,4.4,4.4
			c1.8,0,3.3-1.1,4-2.6l0,0h63.8c15.9,28,42.8,49,74.7,57.1h-96.7c-1,0-1.8,0.8-1.8,1.8c0,1,0.8,1.8,1.8,1.8h122.7
			c1.2,0,2.5,0.1,3.7,0.1c0.2,0,0.3,0,0.5,0c0,0,0.1,0,0.1,0c0.1,0,0.1,0,0.2,0c0.8,0,1.6,0,2.5,0h1.8c0.2,0,0.4,0,0.5-0.1
			c42.4-1.9,79.1-25.9,98.9-60.7h64.9c0.7,1.5,2.2,2.6,4,2.6c2.4,0,4.4-2,4.4-4.4C485.1,307.5,483.1,305.5,480.7,305.5z
			 M136.9,311.6c-0.4,0.4-0.9,0.6-1.5,0.6c-1.3,0-2.3-1-2.3-2.3c0-1.3,1-2.3,2.3-2.3c0.6,0,1.1,0.2,1.5,0.6c0.5,0.4,0.8,1,0.8,1.7
			C137.6,310.6,137.3,311.2,136.9,311.6z M208.5,311.7h39.2c8.1,24.9,21.2,44.3,36.9,54C252.3,359.2,224.9,339.1,208.5,311.7z
			 M252.4,311.7h34.1c2.8,25.3,7.5,46.2,13.9,55.6C280,363.3,262.5,341.9,252.4,311.7z M308.3,368c-0.1,0-0.2,0-0.4,0
			c-5.7-0.3-12.9-20.7-16.8-56.3h33.9C321.1,347,314,367.4,308.3,368z M329.6,311.7h33c-9.8,29.6-26.8,50.6-46.6,55.3
			C322.2,357.5,326.8,336.7,329.6,311.7z M330.4,365.7c15.7-9.7,28.8-29.1,36.9-54h39.2C390.1,339.1,362.7,359.2,330.4,365.7z
			 M480.7,312.2c-0.5,0-1-0.2-1.3-0.5c-0.6-0.4-1-1.1-1-1.8c0-0.8,0.4-1.4,1-1.8c0.4-0.3,0.8-0.5,1.3-0.5c1.3,0,2.3,1,2.3,2.3
			C483,311.2,482,312.2,480.7,312.2z"/>
		<g>
			<path class="st5" d="M422.9,250.1c0-1.5-0.1-3-0.2-4.5H207c-0.9,1.5-1.9,3-2.8,4.5H422.9z"/>
			<g>
				<path class="st6" d="M421.2,233.1c-0.5-3.2-1.3-6.3-2.1-9.5h-196c-2.6,3-5.1,6.2-7.6,9.5H421.2z"/>
				<path class="st6" d="M203.7,223.7c-2.8,3-5.5,6.1-8.2,9.5h5.2c2.5-3.3,5-6.5,7.5-9.5H203.7z"/>
			</g>
			<g>
				<path class="st7" d="M415.6,212.5C415.6,212.5,415.6,212.5,415.6,212.5c-1.8-5-4-9.8-6.5-14.4H250c-5.6,4.3-11.1,9.1-16.4,14.4
					H415.6z"/>
				<path class="st7" d="M232.5,198.1c-5.9,4.2-11.8,9-17.7,14.4h4c5.7-5.5,11.6-10.3,17.3-14.4H232.5z"/>
				<path class="st7" d="M205.8,198.1c-2.5,4.6-4.7,9.4-6.5,14.4c0,0,0,0,0.1,0h5.8c6-5.5,12.1-10.3,18.1-14.4H205.8z"/>
			</g>
		</g>
		<g>
			<g>
				<g>
					<path class="st8" d="M307.5,173.9c4.7-0.8,46.6-7.1,48.3-7.9c0.5-0.2,0.9-0.5,1.3-0.8c0.8-0.7,0.8-1.6,0-2.3
						c-0.5-0.5-1.1-0.8-1.8-1c-1.7-0.5-3.4-0.7-5.1-0.7c-4-0.1-8,0.1-12,0.2c-2.3,0.1-4.5,0-6.8-0.4c-2.8-0.4-5.5-1.3-8.2-2.2
						c-2.9-1-5.7-2.1-8.6-3c-2.7-0.8-5.4-0.9-8.1-0.3c-0.4,0.1-0.8,0.2-0.9,0.6c-0.1,0.4,0.3,0.6,0.7,0.8c2.3,1.3,13.6,7.6,16.9,9.4
						c-0.1,0.3-0.3,0.3-0.4,0.3c-1.5,0.6-3,1.1-4.6,1.5c-2.6,0.8-5.2,1.4-8,1.7c-1.5,0.1-3,0.1-4.5-0.5c-0.7-0.3-1.5-0.6-2.2-0.9
						c-0.7-0.3-1.3-0.5-2-0.7c-0.7-0.1-1.2,0.1-1.8,0.3c-0.3,0.1-0.4,0.4-0.2,0.6c0.1,0.1,0.2,0.3,0.2,0.4c0.4,0.7,2.5,4.1,2.9,4.8
						C302.8,174.5,304.5,174.4,307.5,173.9z"/>
				</g>
				<g>
					<path class="st8" d="M328.3,172.3c-0.4,0.1-0.7,0.3-0.9,0.6c-0.8,1.5-1.6,3-2.4,4.6c-0.4,0.7-0.2,1,0.6,1c0.1,0,0.2,0,0.3,0
						c2.5,0,4.6-1.1,6.4-2.8c1.6-1.6,3.2-3.2,4.8-4.9c-0.1,0-0.2-0.1-0.3,0C334,171.3,331.1,171.8,328.3,172.3z"/>
				</g>
			</g>
			<path class="st8" d="M236.1,198.1c-5.8,4.1-11.6,8.9-17.3,14.4c-3.6,3.4-7.1,7.1-10.6,11.2c-2.6,3-5.1,6.1-7.5,9.5
				c-2.9,3.9-5.7,8-8.4,12.4c-0.1,1.5-0.2,3-0.2,4.5h8.9c25-42.7,65.4-71.2,95.9-77.2C296.9,173,267.7,175.6,236.1,198.1z"/>
			<path class="st8" d="M223.3,198.1c-6,4.1-12.1,8.9-18.1,14.4c-2.9,2.7-5.8,5.6-8.6,8.6c-0.2,0.9-0.5,1.7-0.7,2.6
				c-0.4,1.6-0.8,3.2-1.2,4.9c26.5-30.8,62.9-50.5,94.9-56.1C289.6,172.5,257.3,175,223.3,198.1z"/>
		</g>
		<g>
			<g>
				<path class="st9" d="M162.8,275.4l-0.2,0.3l4.8,8.8h3.3l-5-9.1C165.1,274.2,163.4,274.2,162.8,275.4z"/>
				<polygon class="st9" points="170.5,290.7 173.5,296.1 176.8,296.1 173.8,290.7 				"/>
				<path class="st9" d="M162.6,266.4c-0.5-0.1-1.1-0.1-1.7-0.1c-3.7,0-7.2,2-9,5.3l-13.8,24.5h3.3l13.8-24.5
					C156.8,268.8,159.6,266.9,162.6,266.4z"/>
				<path class="st9" d="M235.1,266.3h-3.3c-1,0-1.8,0.8-1.8,1.8v28h3.3v-28C233.3,267.1,234.1,266.3,235.1,266.3z"/>
				<path class="st9" d="M252,266.3h-3.3c-1,0-1.8,0.8-1.8,1.8v28h3.3v-28C250.2,267.1,251,266.3,252,266.3z"/>
				<path class="st9" d="M274.6,273.7h-3.3c5.2,0,6.3,1.3,6.3,7.6c0,5.1-0.6,6.7-2.8,7.4c-1.1,0.4-1.3,0.4-3.7,0.4h3.3
					c2.5,0,2.6,0,3.7-0.4c2.2-0.7,2.8-2.2,2.8-7.4C280.9,275,279.8,273.7,274.6,273.7z"/>
				<path class="st9" d="M354.4,266.3h-3.3c-0.7,0-1.2,0.5-1.2,1.2v28.6h3.3v-28.6C353.2,266.8,353.7,266.3,354.4,266.3z"/>
				<polygon class="st9" points="420.3,290.7 423.2,296.1 426.5,296.1 423.6,290.7 				"/>
				<path class="st9" d="M412.4,266.4c-0.5-0.1-1.1-0.1-1.7-0.1c-3.7,0-7.2,2-9,5.3l-13.8,24.5h3.3l13.8-24.5
					C406.6,268.8,409.3,266.9,412.4,266.4z"/>
				<path class="st9" d="M412.5,275.4l-0.2,0.3l4.8,8.8h3.3l-5-9.1C414.8,274.2,413.1,274.2,412.5,275.4z"/>
				<path class="st9" d="M467.1,288.5c1.3-0.5,1.8-1.5,1.8-3.6h-3.3c0,2.1-0.5,3.1-1.8,3.6c-1.1,0.5-2,0.6-6.5,0.6
					c0.3,0,0.5,0,0.8,0C464.9,289,465.9,289,467.1,288.5z"/>
				<path class="st9" d="M459.9,273.2c-0.7,0-1.2,0-1.8,0c6.4,0,7,0.5,7.2,3.5h3.3C468.4,273.4,467.8,273.2,459.9,273.2z"/>
				<path class="st9" d="M439.8,280.5c0-7.9,0.9-10.7,4-12.5c2.6-1.5,5.3-1.9,12.7-2c-0.7,0-1.4,0-2.2,0c-8.4,0-11.2,0.4-13.9,2
					c-3.1,1.8-4,4.6-4,12.5c0,8.8,0.8,12,3.8,13.8c2.4,1.6,5.2,2,13.8,2c0.8,0,1.6,0,2.3,0c-7.8,0-10.5-0.5-12.8-2
					C440.6,292.4,439.8,289.3,439.8,280.5z"/>
				<path class="st9" d="M484.1,266.3h-3.3c-0.7,0-1.2,0.5-1.2,1.2v6.1h3.3v-6.1C482.9,266.8,483.5,266.3,484.1,266.3z"/>
				<rect x="492.9" y="273.6" class="st9" width="3.3" height="22.4"/>
				<rect x="201.2" y="281.5" class="st9" width="3.3" height="7.2"/>
				<path class="st9" d="M217.9,277.9c0-3.6-0.9-4.4-4.8-4.4h-3.3c3.9,0,4.8,0.8,4.8,4.4c0,2.8-1.1,3.6-4.8,3.6h3.3
					C216.8,281.5,217.9,280.7,217.9,277.9z"/>
				<path class="st9" d="M192.7,266.3h-3.3c-1,0-1.8,0.8-1.8,1.8v28h3.3v-28C190.9,267.1,191.7,266.3,192.7,266.3z"/>
				<path class="st9" d="M315.2,266.3h-3.3c-3.8,0-6.9,3.1-6.9,6.9v22.9h3.3v-22.9C308.4,269.3,311.4,266.3,315.2,266.3z"/>
				<path class="st9" d="M335.4,277.9c0-3.6-0.9-4.4-4.8-4.4h-3.3c3.9,0,4.8,0.8,4.8,4.4c0,2.8-1.1,3.6-4.8,3.6h3.3
					C334.3,281.5,335.4,280.7,335.4,277.9z"/>
				<path class="st9" d="M322,281.5h-3.3c-0.5,0-0.7,0.5-0.4,0.9l10.8,13.7h3.3l-10.8-13.7C321.3,282,321.6,281.5,322,281.5z"/>
				<path class="st9" d="M108.4,266.3h-3.3c-3.8,0-6.9,3.1-6.9,6.9v22.9h3.3v-22.9C101.6,269.3,104.6,266.3,108.4,266.3z"/>
				<path class="st9" d="M115.2,281.5h-3.3c-0.5,0-0.7,0.5-0.4,0.9l10.8,13.7h3.3l-10.8-13.7C114.5,282,114.8,281.5,115.2,281.5z"/>
				<path class="st9" d="M128.5,277.9c0-3.6-0.9-4.4-4.8-4.4h-3.3c3.9,0,4.8,0.8,4.8,4.4c0,2.8-1.1,3.6-4.8,3.6h3.3
					C127.5,281.5,128.5,280.7,128.5,277.9z"/>
			</g>
			<g>
				<g>
					<g>
						<path d="M509.5,295.1c0,0.2,0,0.3,0.1,0.3c0.1,0,0.3,0,0.6,0c1.1,0,1.2,0,1.2-0.3c0-0.1-0.1-0.2-0.2-0.3c-0.1,0-0.1,0-0.6,0
							h-0.9c-0.6,0-0.8,0-1-0.1c-0.2-0.1-0.3-0.4-0.3-0.8c0-0.6,0.2-0.8,0.6-0.9c0.3-0.1,0.6-0.1,1.3-0.1c1.1,0,1.3,0,1.6,0.2
							c0.2,0.1,0.3,0.3,0.3,0.8h-0.9c0-0.3-0.1-0.3-0.7-0.3c-0.3,0-0.7,0-0.9,0c-0.3,0-0.3,0.1-0.3,0.3c0,0.1,0.1,0.2,0.2,0.2
							c0.1,0,0.1,0,0.4,0h0.9c0.1,0,0.5,0,0.7,0c0.6,0,0.8,0.3,0.8,0.9c0,0.6-0.2,0.8-0.6,0.9c-0.2,0.1-0.7,0.1-1.4,0.1
							c-1.1,0-1.3,0-1.6-0.2c-0.2-0.1-0.3-0.3-0.3-0.7c0,0,0-0.1,0-0.2H509.5z"/>
					</g>
					<g>
						<path d="M513.1,292.9h1.5l1.1,2.1l1.1-2.1h1.5v3.1h-0.9l0-2.4l-1.4,2.4h-0.8l-1.4-2.4l0,2.4h-0.9V292.9z"/>
					</g>
				</g>
				<g>
					<path d="M164.3,266.3L164.3,266.3c3.8,0,7.2,2.1,9.1,5.4l13.4,24.4h-9.9l-2.9-5.3h-19.2l-2.9,5.3h-10.3l13.8-24.5
						C157.1,268.3,160.6,266.3,164.3,266.3z M170.7,284.5l-5-9.1c-0.6-1.2-2.3-1.2-2.9,0l-4.9,9.1H170.7z"/>
				</g>
				<g>
					<path d="M235.1,266.3h7.3v29.8h-9.1v-28C233.3,267.1,234.1,266.3,235.1,266.3z"/>
				</g>
				<g>
					<path d="M250.2,268.1c0-1,0.8-1.8,1.8-1.8h23.9c6.3,0,9.2,0.7,11.3,2.8c1.7,1.6,2.3,3.5,2.6,7.3c0.1,1.4,0.2,3.4,0.2,4.9
						c0,2.7-0.2,5.8-0.4,7.5c-0.5,3.6-3,6.3-6.3,7c-1.7,0.4-3,0.4-6.2,0.4h-26.9V268.1z M274.4,288.9c2.5,0,2.6,0,3.7-0.4
						c2.2-0.7,2.8-2.2,2.8-7.4c0-6.3-1.1-7.6-6.3-7.6h-15.4v15.3H274.4z"/>
				</g>
				<g>
					<path d="M386.2,266.3v6.7h-24.1v5.1h17.6v5.9h-17.6v5.3h24.4v6.7h-33.3v-28.6c0-0.7,0.5-1.2,1.2-1.2H386.2z"/>
				</g>
				<g>
					<path d="M414,266.3L414,266.3c3.8,0,7.2,2.1,9.1,5.4l13.4,24.4h-9.9l-2.9-5.3h-19.2l-2.9,5.3h-10.3l13.8-24.5
						C406.9,268.3,410.3,266.3,414,266.3z M420.4,284.5l-5-9.1c-0.6-1.2-2.3-1.2-2.9,0l-4.9,9.1H420.4z"/>
				</g>
				<g>
					<path d="M477.7,284.8c0,4.3-0.2,5.8-0.8,7.1c-1.2,2.5-3.6,3.8-8.2,4.1c-1.8,0.2-5.4,0.2-11.3,0.2c-8.6,0-11.3-0.4-13.8-2
						c-2.9-1.9-3.8-5-3.8-13.8c0-7.9,0.9-10.7,4-12.5c2.7-1.6,5.5-2,13.9-2c11.1,0,13.5,0.2,16.1,1.5c2.4,1.2,3.5,3.8,3.5,8.2v1
						h-8.7c-0.2-3.3-0.8-3.5-8.7-3.5c-7.4,0-8.8,0.2-9.9,1.2c-1.1,1-1.3,2.2-1.3,7c0,7.1,0.7,7.7,9.4,7.7c6.7,0,7.7,0,9-0.6
						c1.3-0.5,1.8-1.5,1.8-3.6H477.7z"/>
				</g>
				<g>
					<path d="M496.2,273.6h-13.3v-6.1c0-0.7,0.5-1.2,1.2-1.2h34.4v7.4h-13.3v22.4h-9.1V273.6z"/>
				</g>
				<g>
					<path d="M222.8,267.4c-1.9-0.9-3.4-1.1-9.1-1.1h-21c-1,0-1.8,0.8-1.8,1.8v28h9v-22.6h13.2c3.9,0,4.8,0.8,4.8,4.4
						c0,2.8-1.1,3.6-4.8,3.6h-8.6v7.2h10c5.2,0,7.2-0.3,8.9-1.4c2.5-1.5,3.5-4.5,3.5-10.1C226.9,271.6,225.8,268.8,222.8,267.4z"/>
				</g>
				<g>
					<path d="M340.9,287.3c2.5-1.5,3.5-4.5,3.5-10.1c0-5.6-1.1-8.4-4.1-9.8c-1.9-0.9-3.4-1.1-9.1-1.1h-15.9c-3.8,0-6.9,3.1-6.9,6.9
						v22.9h9v-22.6h13.2c3.9,0,4.8,0.8,4.8,4.4c0,2.8-1.1,3.6-4.8,3.6H322c-0.5,0-0.7,0.5-0.4,0.9l10.8,13.7h10.3l-5.9-7.5
						C338.7,288.4,339.8,288,340.9,287.3z"/>
				</g>
				<g>
					<path d="M134.1,287.3c2.5-1.5,3.5-4.5,3.5-10.1c0-5.6-1.1-8.4-4.1-9.8c-1.9-0.9-3.4-1.1-9.1-1.1h-15.9c-3.8,0-6.9,3.1-6.9,6.9
						v22.9h9v-22.6h13.2c3.9,0,4.8,0.8,4.8,4.4c0,2.8-1.1,3.6-4.8,3.6h-8.5c-0.5,0-0.7,0.5-0.4,0.9l10.8,13.7h10.3l-5.9-7.5
						C131.9,288.4,133,288,134.1,287.3z"/>
				</g>
			</g>
		</g>
	</g>
</g>
</svg>
