<?xml version="1.0" encoding="utf-8"?>
<!-- Generator: Adobe Illustrator 22.1.0, SVG Export Plug-In . SVG Version: 6.00 Build 0)  -->
<svg version="1.1" id="Layer_1" xmlns="http://www.w3.org/2000/svg" xmlns:xlink="http://www.w3.org/1999/xlink" x="0px" y="0px"
	 viewBox="0 0 200 125" style="enable-background:new 0 0 200 125;" xml:space="preserve">
<style type="text/css">
	.st0{fill:#3D98D3;}
	.st1{fill:#FFFFFF;}
	.st2{fill:#354E5C;}
	.st3{fill:#29176F;}
	.st4{fill:#D9261D;}
	.st5{fill:#262626;}
</style>
<rect x="-0.5" class="st0" width="200.5" height="125"/>
<path class="st2" d="M164.1,62.4c-0.8-3.5-2.5-6.6-4.6-9.4c-2.4-3.2-5.3-5.8-8.5-8.2c-4.6-3.3-9.6-5.9-14.9-7.9
	c-8.3-3.2-16.9-5.1-25.7-6c-3.9-0.4-7.7-0.6-11.6-0.5c-0.8,0-1.7,0-2.5,0c-3.8,0-7.6,0.3-11.4,0.8c-4.5,0.5-9,1.4-13.4,2.5
	c-6.1,1.6-12,3.7-17.5,6.6c-4.3,2.3-8.4,4.9-11.9,8.3c-2.8,2.7-5.2,5.6-6.9,9.1c-2.8,5.8-3.2,11.7-0.9,17.8c1.3,3.4,3.2,6.3,5.7,9
	c3.2,3.5,7,6.4,11.1,8.8c6.1,3.6,12.6,6.1,19.4,7.9c8.1,2.2,16.4,3.3,24.9,3.6c5.3,0.2,10.6,0,15.9-0.6c4.1-0.4,8.2-1.1,12.2-2
	c6.8-1.6,13.5-3.8,19.7-7c4.3-2.2,8.4-4.8,11.9-8.1c3-2.8,5.6-5.9,7.4-9.6C164.8,72.7,165.4,67.6,164.1,62.4z M77.7,45.2
	c-0.1,0.3-0.3,0.5-0.6,0.4c-0.2-0.8-0.2-0.8,0-1c0.4,0.2,0.7,0.4,1.1,0.6C78,45.5,77.9,45.3,77.7,45.2z M78.7,45.5
	C78.7,45.5,78.7,45.4,78.7,45.5c0-0.1,0-0.2,0.1-0.3c0,0,0.1,0.1,0.1,0.1C78.9,45.4,78.8,45.4,78.7,45.5z M98,34.5
	c0.1,0,0.2,0,0.3,0c0,0.1,0,0.1,0,0.2c-0.1,0-0.2,0-0.3,0C98,34.6,98,34.5,98,34.5z M97.4,34.3c0,0,0.1,0,0.1,0.1c0,0,0,0.1-0.1,0.2
	c-0.1-0.1-0.1-0.1-0.2-0.2C97.3,34.4,97.4,34.3,97.4,34.3z M99.8,100.6c0.1-0.4,0.1-0.4,0.8-0.3C100.4,100.6,100.1,100.5,99.8,100.6
	z M125,52.3c-0.3,0.5-0.7,1-1.1,1.3c-0.4,0.3-0.6,0.7-0.8,1.1c-0.3,0.5-0.5,1-1,1.2c-0.1,0-0.2,0.2-0.2,0.3c0,0.6-0.2,1.2,0,1.8
	c0.1,0.2,0,0.4,0,0.6c0,0.3-0.1,0.7-0.2,1c0,0.2-0.1,0.4-0.2,0.5c-0.1,0.2-0.3,0.4-0.3,0.6c0.1,0.7-0.3,1.2-0.7,1.7
	c-0.3,0.4-0.5,0.7-0.4,1.2c-0.4,0.3-0.9,0.3-0.8,0.9c-0.9,0-1.8,0.1-2.6,0.5c-0.1,0.1-0.2,0.2-0.3,0.4c-0.4-0.2-0.8,0-1.2,0.3
	c-0.6,0.3-1.1,0.8-1.4,1.4c-0.2,0.4-0.2,0.8-0.1,1.3c0.1,0.7,0,1.3-0.6,1.8c-0.3,0.3-0.6,0.7-0.8,1.1c-0.3,0.7-0.7,1.4-1.4,1.8
	c-0.3,0.2-0.5,0.5-0.6,0.9c0,0,0,0.1,0,0.1c-0.2,0.4-1.4,1.8-1.7,2c-0.2,0.1-0.5,0.2-0.7,0.1c-0.1,0-0.2-0.1-0.3-0.1
	c-0.5,0.2-0.8,0-1.2-0.3c0,0-0.1,0-0.1-0.1c-0.3-0.1-0.6-0.2-1-0.3c0.1,0.1,0.1,0.3,0.2,0.3c0.1,0.1,0.3,0.2,0.5,0.3
	c0.4,0.3,0.5,0.4,0.3,0.9c-0.1,0.3,0,0.4,0.2,0.5c0.3,0.2,0.4,0.4,0.2,0.8c-0.2,0.4-0.5,0.9-0.8,1.3c-0.2,0.2-0.5,0.3-0.7,0.4
	c-0.8,0.2-1.6,0.4-2.5,0.5c-0.1,0-0.3,0-0.4,0.1c-0.2,0.5-0.6,0.9-0.4,1.5c0.1,0.2,0,0.4-0.2,0.5c-0.4,0.3-0.9,0.4-1.4,0.1
	c-0.2-0.1-0.5-0.3-0.8-0.2c0,0.4,0,0.8,0.1,1.2c0,0.1,0.3,0.2,0.4,0.2c0.2,0,0.3-0.1,0.5-0.1c0.4,0.5,0.4,0.8-0.1,1
	c-0.2,0.1-0.4,0.2-0.6,0.3c-0.3,0.2-0.4,0.4-0.4,0.8c0,0.3,0.1,0.7-0.3,0.9c-0.1,0.1-0.1,0.3-0.1,0.4c-0.2,0-0.4,0-0.6,0.1
	c-0.6,0.2-0.8,0.6-1,1.1c-0.1,0.1-0.1,0.4,0,0.5c0.2,0.4,0.5,0.7,1,0.8C99,90,99,90.1,99,90.5c0,0.5-0.2,0.9-0.6,1.2
	c-0.1,0-0.1,0.1-0.2,0.1c-0.4,0.3-0.8,0.7-0.8,1.3c0,0.5-0.2,0.8-0.7,1c-0.5,0.2-0.7,0.6-0.6,1.1c0.1,0.5,0.3,0.9,0.4,1.4
	c0,0.1,0.1,0.2,0.2,0.5c-0.3-0.1-0.6-0.1-0.8-0.2c0,0.3,0,0.4,0.3,0.4c0.1,0,0.3,0,0.4,0.1c0.1,0.2,0.4,0.4,0.3,0.6
	c-0.1,0.3,0.1,0.4,0.2,0.6c0.4,0.7,1,1.2,1.7,1.6c0.2,0.1,0.5,0.1,0.7,0.2c0.1,0.3,0,0.5-0.3,0.5c-0.3,0-0.6,0-0.8,0.4
	c-0.1,0.1-0.4,0.1-0.6,0.1c-0.2,0-0.5,0-0.8,0c0.1,0.1,0.1,0.2,0.2,0.2c0.4,0.1,0.4,0.1,0.7,0.6h-0.7c0-0.1,0.1-0.2,0.1-0.3
	c-0.2-0.1-0.3-0.1-0.5-0.2c-0.1,0-0.3-0.1-0.4-0.1c-0.3-0.1-0.7-0.1-1-0.2v-0.7c-0.1,0.2-0.2,0.3-0.3,0.4c-0.6-0.1-0.9-0.7-1.4-0.8
	v-0.5c-0.1,0-0.3,0-0.3,0c-0.1-0.5-0.5-0.3-0.8-0.4c0.1-0.5-0.4-0.7-0.6-1.1c-0.1-0.3-0.4-0.5-0.5-0.9c0.2,0.1,0.4,0.2,0.7,0.3
	c-0.2-0.4-0.3-0.7-0.5-1c-0.4,0.1-0.5,0.1-0.6-0.2c-0.1-0.4-0.4-0.9-0.1-1.3c0.3-0.3-0.2-0.4-0.4-0.6c0-0.2,0-0.4,0-0.6
	c0-0.2,0-0.3-0.1-0.5c-0.1-0.7-0.2-1.5,0-2.2c0.1-0.2,0.1-0.6,0.6-0.6c0.4-0.1,0.3-0.5,0.3-0.8c-0.2-0.1-0.3-0.2-0.5-0.3
	c-0.1,0.1-0.1,0.2-0.2,0.4c-0.3-0.3-0.4-0.4-0.2-0.7c0.2-0.2,0.4-0.4,0.4-0.7c0-0.1,0.2-0.3,0.3-0.4c0.4-0.5,0.4-0.7,0-1.1
	c0.1-0.2,0.2-0.4,0.3-0.6c0.1-0.2,0.2-0.5,0.4-0.4c0.3,0,0.3,0.3,0.3,0.5c0,0.1,0,0.2,0.1,0.2c0.1-0.3,0.2-0.5,0.2-0.8
	c0.1-0.6,0.2-1.2,0.3-1.8c0-0.3,0-0.3-0.4-0.4c0.1,0.1,0.1,0.3,0.1,0.4c-0.1,0.2-0.2,0.5-0.1,0.7c0.1,0.3-0.2,0.5-0.3,0.6
	c-0.1,0.1-0.4,0-0.6-0.1c0.2-0.7,0.3-1.3,0.5-2c0-0.1,0-0.1,0-0.2c-0.2-0.7,0-1.4,0.4-2c0.1-0.2,0.1-0.5,0-0.8
	c-0.1-0.6-0.2-1.2-0.3-1.9c0.3-0.1,0.4-0.2,0.5-0.5c0.2-0.6,0.4-1.1,0.7-1.6c0.1-0.2,0.2-0.3,0.2-0.5c0.2-0.7,0.4-1.4,0.5-2.1
	c0.1-0.4,0-0.8-0.1-1.2c-0.1-0.5-0.2-1,0.1-1.4c0.1-0.2,0.1-0.4,0-0.6c-0.1-0.3,0-0.4,0.1-0.7c0.3-0.9,0.5-1.7,0.6-2.6
	c0.1-0.5,0.1-1.1,0.1-1.6c-0.1-0.7,0.2-1.3,0.3-2c0.1-1,0-2.1-0.1-3.1c0-0.1,0-0.2-0.1-0.2c-0.7-0.5-1.2-1.2-2-1.5
	c-0.6-0.2-1.2-0.6-1.7-0.9c-0.4-0.3-0.8-0.7-1.1-1.1c-0.1-0.1-0.1-0.3-0.1-0.3c0.2-0.4-0.1-0.7-0.2-0.9c-0.6-1-1.1-1.9-1.6-3
	c-0.3-0.6-0.7-1.3-1-1.9c-0.1-0.2-0.4-0.4-0.6-0.6c-0.2-0.1-0.4-0.2-0.7-0.4c0.1-0.3,0.2-0.5,0.1-0.7c-0.3-0.5-0.2-0.9,0.3-1.3
	c0.1-0.1,0.2-0.2,0.3-0.2c0.3-0.3,0.3-0.5,0-0.7c-0.1-0.1-0.2-0.2-0.3-0.3c0-0.1,0.1-0.3,0.1-0.4c-0.1-0.6,0.2-1.1,0.5-1.5
	c0.1-0.2,0.1-0.4,0.2-0.7c0,0,0-0.1,0.1-0.1c0.6-0.1,0.8-0.6,1-1c0.1-0.2,0.2-0.4,0.4-0.5c0.3-0.1,0.4-0.3,0.6-0.5
	c0.2-0.2,0.1-0.4,0.1-0.7c-0.1-0.4,0-0.9,0-1.3c0-0.4,0-0.7-0.2-1c-0.2-0.4-0.3-0.5,0.1-0.8C89,38,89,37.8,89,37.7
	c0-0.1-0.1-0.2-0.1-0.4c0.5,0.1,0.8-0.2,1.1-0.5c0.2-0.3,0.5-0.5,0.5-0.9c0-0.4,0.5-0.7,0.9-0.8c0.1,0,0.2-0.1,0.3-0.1
	c0.1,0,0.2-0.1,0.2-0.1c0.7,0.1,1.1-0.3,1.6-0.8c0.2-0.2,0.4-0.3,0.6-0.2c0.3,0.1,0.3,0.4,0.1,0.6c-0.1,0.1-0.3,0.2-0.5,0.3
	c0.3,0.4,0.3,0.4,1.2,0c0.1-0.2,0.1-0.4,0.2-0.6c0,0,0.1,0,0.2-0.1c0.1,0.2,0.2,0.3,0.3,0.5c0.6,0.1,1.2,0.1,1.3,0.9
	c0.3,0,0.5-0.1,0.8-0.1c0.4,0,0.8-0.1,1.2,0.2c0.3,0.3,0.7,0.2,1,0c0.1-0.1,0.1-0.3,0.3-0.6c0.1,0,0.2-0.1,0.4-0.1
	c0,0.2,0.1,0.3,0.1,0.4h1.5c0,0,0,0.1,0,0.1c-0.1,0.1-0.3,0.2-0.5,0.3c0.1,0.2,0.3,0.3,0.5,0.3c0.3,0.1,0.5,0.2,0.8,0.3
	c0.3,0.2,0.1,0.5,0.1,0.8c0.9,0,1.5,0.4,1.9,1c0.3,0.4,0.7,0.7,1,1c0.3,0.3,0.8,0.4,1.2,0.3c0.9-0.2,1.8,0,2.6,0.4
	c0.5,0.3,1,0.7,1.4,1.1c0.1,0.1,0.2,0.3,0.2,0.4c0,0.6,0.3,1.2,0.7,1.6c0.3,0.3,0.4,0.5,0.2,0.9c-0.1,0.2,0,0.4,0.2,0.5
	c0.4,0.2,0.7,0.3,1.1,0.5c0,0,0,0.1,0,0.2c0,0,0,0,0,0h0c0,0,0.1,0,0.1,0c0.7-0.3,1.4,0,2,0.3c0.3,0.1,0.5,0.2,0.9,0.3
	c0.1,0.1,0.2,0.4,0.4,0.6c0.1,0.2,0.3,0.3,0.4,0.2c0.3-0.1,0.5,0,0.7,0c0.7,0.3,1.4,0.4,2.2,0.3c0.2,0,0.4,0.1,0.6,0.1
	c0.5,0.3,1,0.6,1.5,1c0.5,0.5,1,0.8,1.7,0.8c0.4,0,0.6,0.2,0.7,0.5c0.1,0.4,0.2,0.8,0.3,1.2C125.5,51.2,125.4,51.8,125,52.3z"/>
<path class="st1" d="M125.4,50.6c-0.1-0.4-0.2-0.8-0.3-1.2c-0.1-0.4-0.3-0.6-0.7-0.5c-0.7,0.1-1.3-0.3-1.7-0.8
	c-0.4-0.4-0.9-0.7-1.5-1c-0.2-0.1-0.4-0.2-0.6-0.1c-0.8,0.1-1.5-0.1-2.2-0.3c-0.2-0.1-0.4-0.2-0.7,0c-0.2,0.1-0.3,0-0.4-0.2
	c-0.1-0.2-0.3-0.5-0.4-0.6c-0.4-0.1-0.6-0.2-0.9-0.3c-0.7-0.2-1.3-0.6-2-0.3c0,0-0.1,0-0.1,0c0,0,0,0,0,0c0-0.1,0-0.2,0-0.2
	c-0.4-0.2-0.8-0.4-1.1-0.5c-0.2-0.1-0.3-0.3-0.2-0.5c0.2-0.4,0.1-0.6-0.2-0.9c-0.5-0.4-0.7-0.9-0.7-1.6c0-0.1-0.1-0.3-0.2-0.4
	c-0.5-0.4-0.9-0.8-1.4-1.1c-0.8-0.4-1.6-0.6-2.6-0.4c-0.4,0.1-0.8,0-1.2-0.3c-0.4-0.3-0.7-0.6-1-1c-0.4-0.6-1.1-1-1.9-1
	c0.1-0.3,0.3-0.6-0.1-0.8c-0.2-0.1-0.5-0.2-0.8-0.3c-0.2-0.1-0.4-0.1-0.5-0.3c0.2-0.1,0.3-0.2,0.5-0.3c0,0,0-0.1,0-0.1h-1.5
	c0-0.1-0.1-0.3-0.1-0.4c-0.2,0.1-0.4,0.1-0.4,0.1c-0.1,0.3-0.1,0.5-0.3,0.6c-0.3,0.2-0.7,0.3-1,0c-0.4-0.4-0.8-0.3-1.2-0.2
	c-0.3,0-0.5,0.1-0.8,0.1c-0.1-0.8-0.7-0.9-1.3-0.9c-0.1-0.2-0.2-0.3-0.3-0.5c-0.1,0-0.2,0-0.2,0.1c-0.1,0.2-0.1,0.4-0.2,0.6
	c-0.9,0.4-0.9,0.4-1.2,0c0.2-0.1,0.3-0.1,0.5-0.3c0.3-0.2,0.2-0.5-0.1-0.6c-0.3-0.1-0.5,0-0.6,0.2c-0.4,0.4-0.9,0.8-1.6,0.8
	c-0.1,0-0.2,0.1-0.2,0.1c-0.1,0-0.2,0.1-0.3,0.1c-0.4,0-0.9,0.4-0.9,0.8c0,0.4-0.2,0.6-0.5,0.9c-0.3,0.3-0.6,0.6-1.1,0.5
	c0.1,0.2,0.1,0.3,0.1,0.4c0,0.1,0,0.3-0.1,0.4c-0.4,0.3-0.4,0.4-0.1,0.8c0.2,0.3,0.2,0.6,0.2,1c0,0.4-0.1,0.9,0,1.3
	c0,0.2,0.1,0.5-0.1,0.7c-0.2,0.2-0.3,0.4-0.6,0.5c-0.2,0-0.3,0.3-0.4,0.5c-0.2,0.5-0.4,0.9-1,1c0,0-0.1,0.1-0.1,0.1
	c-0.1,0.3-0.1,0.5-0.2,0.7c-0.3,0.5-0.6,0.9-0.5,1.5c0,0.1-0.1,0.3-0.1,0.4c0.1,0.1,0.2,0.2,0.3,0.3c0.3,0.3,0.3,0.5,0,0.7
	c-0.1,0.1-0.2,0.2-0.3,0.2c-0.5,0.3-0.5,0.8-0.3,1.3c0.2,0.3,0.1,0.4-0.1,0.7c0.3,0.1,0.5,0.3,0.7,0.4c0.2,0.2,0.5,0.3,0.6,0.6
	c0.4,0.6,0.7,1.2,1,1.9c0.5,1,1,2,1.6,3c0.2,0.3,0.4,0.5,0.2,0.9c0,0.1,0,0.2,0.1,0.3c0.4,0.4,0.7,0.8,1.1,1.1
	c0.5,0.4,1.1,0.7,1.7,0.9c0.8,0.3,1.3,1,2,1.5c0.1,0,0.1,0.1,0.1,0.2c0.1,1,0.3,2.1,0.1,3.1c-0.1,0.7-0.4,1.3-0.3,2
	c0,0.5,0,1-0.1,1.6c-0.1,0.9-0.3,1.8-0.6,2.6c-0.1,0.2-0.1,0.4-0.1,0.7c0.1,0.2,0.1,0.5,0,0.6c-0.3,0.5-0.2,0.9-0.1,1.4
	c0,0.4,0.1,0.8,0.1,1.2c-0.1,0.7-0.3,1.4-0.5,2.1c0,0.2-0.1,0.3-0.2,0.5c-0.2,0.5-0.5,1.1-0.7,1.6c-0.1,0.3-0.2,0.4-0.5,0.5
	c0.1,0.6,0.2,1.3,0.3,1.9c0.1,0.3,0.1,0.5,0,0.8c-0.4,0.6-0.6,1.3-0.4,2c0,0.1,0,0.1,0,0.2c-0.2,0.6-0.3,1.2-0.5,2
	c0.3,0,0.5,0.1,0.6,0.1c0.2-0.2,0.4-0.3,0.3-0.6c0-0.2,0.1-0.5,0.1-0.7c0-0.1-0.1-0.2-0.1-0.4c0.4,0.1,0.5,0.1,0.4,0.4
	c-0.1,0.6-0.2,1.2-0.3,1.8c0,0.3-0.1,0.5-0.2,0.8c-0.1-0.1-0.1-0.2-0.1-0.2c0-0.2,0-0.5-0.3-0.5c-0.3-0.1-0.3,0.2-0.4,0.4
	c-0.1,0.2-0.2,0.4-0.3,0.6c0.4,0.5,0.4,0.6,0,1.1c-0.1,0.1-0.3,0.3-0.3,0.4c0,0.3-0.2,0.5-0.4,0.7c-0.2,0.2-0.2,0.4,0.2,0.7
	c0.1-0.1,0.1-0.2,0.2-0.4c0.2,0.1,0.4,0.2,0.5,0.3c0,0.3,0.1,0.8-0.3,0.8c-0.4,0.1-0.5,0.4-0.6,0.6c-0.2,0.7-0.1,1.5,0,2.2
	c0,0.2,0.1,0.3,0.1,0.5c0,0.2,0,0.4,0,0.6c0.2,0.2,0.6,0.2,0.4,0.6c-0.4,0.5,0,0.9,0.1,1.3c0,0.3,0.2,0.3,0.6,0.2
	c0.1,0.3,0.3,0.6,0.5,1c-0.3-0.1-0.5-0.2-0.7-0.3c0.1,0.3,0.3,0.6,0.5,0.9c0.2,0.4,0.7,0.6,0.6,1.1c0.3,0.1,0.7,0,0.8,0.4
	c0,0,0.2,0,0.3,0v0.5c0.6,0.1,0.8,0.7,1.4,0.8c0.1-0.1,0.2-0.2,0.3-0.4v0.7c0.3,0.1,0.7,0.1,1,0.2c0.1,0,0.3,0.1,0.4,0.1
	c0.2,0.1,0.3,0.1,0.5,0.2c0,0.1,0,0.1-0.1,0.3h0.7c-0.3-0.5-0.3-0.5-0.7-0.6c-0.1,0-0.2-0.1-0.2-0.2c0.3-0.1,0.5,0,0.8,0
	c0.2,0,0.5,0,0.6-0.1c0.2-0.4,0.4-0.4,0.8-0.4c0.3,0,0.4-0.2,0.3-0.5c-0.3-0.1-0.5,0-0.7-0.2c-0.6-0.4-1.3-0.8-1.7-1.6
	c-0.1-0.2-0.3-0.3-0.2-0.6c0-0.1-0.2-0.4-0.3-0.6c-0.1-0.1-0.2-0.1-0.4-0.1c-0.3,0-0.3-0.2-0.3-0.4c0.3,0.1,0.5,0.1,0.8,0.2
	c-0.1-0.2-0.1-0.3-0.2-0.5c-0.2-0.5-0.3-0.9-0.4-1.4c-0.1-0.5,0.1-0.9,0.6-1.1c0.4-0.2,0.7-0.5,0.7-1c0-0.6,0.3-1,0.8-1.3
	c0.1,0,0.1-0.1,0.2-0.1c0.4-0.3,0.6-0.7,0.6-1.2c0-0.4,0-0.5-0.5-0.6c-0.5-0.1-0.8-0.4-1-0.8c-0.1-0.1-0.1-0.4,0-0.5
	c0.2-0.5,0.5-0.9,1-1.1c0.2,0,0.4-0.1,0.6-0.1c0-0.2,0-0.4,0.1-0.4c0.3-0.2,0.3-0.6,0.3-0.9c-0.1-0.4,0.1-0.6,0.4-0.8
	c0.2-0.1,0.4-0.2,0.6-0.3c0.5-0.2,0.6-0.5,0.1-1c-0.2,0-0.3,0.1-0.5,0.1c-0.2,0-0.4-0.1-0.4-0.2c-0.1-0.4-0.1-0.8-0.1-1.2
	c0.3-0.1,0.6,0.1,0.8,0.2c0.5,0.3,1,0.1,1.4-0.1c0.2-0.1,0.3-0.3,0.2-0.5c-0.2-0.6,0.2-1,0.4-1.5c0-0.1,0.2-0.1,0.4-0.1
	c0.8-0.2,1.6-0.3,2.5-0.5c0.3-0.1,0.6-0.2,0.7-0.4c0.3-0.4,0.5-0.8,0.8-1.3c0.2-0.3,0.1-0.6-0.2-0.8c-0.2-0.1-0.3-0.3-0.2-0.5
	c0.1-0.5,0.1-0.6-0.3-0.9c-0.2-0.1-0.3-0.2-0.5-0.3c-0.1-0.1-0.1-0.2-0.2-0.3c0.4,0.1,0.7,0.2,1,0.3c0,0,0.1,0,0.1,0.1
	c0.4,0.2,0.7,0.5,1.2,0.3c0.1,0,0.2,0,0.3,0.1c0.3,0.1,0.5,0,0.7-0.1c0.3-0.2,1.5-1.6,1.7-2c0,0,0-0.1,0-0.1
	c0.1-0.4,0.3-0.6,0.6-0.9c0.7-0.5,1.1-1.1,1.4-1.8c0.2-0.4,0.4-0.8,0.8-1.1c0.6-0.5,0.7-1.1,0.6-1.8c-0.1-0.4-0.1-0.9,0.1-1.3
	c0.4-0.6,0.9-1,1.4-1.4c0.4-0.2,0.7-0.5,1.2-0.3c0.1-0.2,0.2-0.3,0.3-0.4c0.8-0.4,1.6-0.5,2.6-0.5c-0.1-0.6,0.5-0.6,0.8-0.9
	c-0.1-0.5,0.2-0.8,0.4-1.2c0.3-0.5,0.8-1,0.7-1.7c0-0.2,0.1-0.5,0.3-0.6c0.1-0.2,0.2-0.3,0.2-0.5c0-0.3,0.1-0.7,0.2-1
	c0-0.2,0.1-0.4,0-0.6c-0.2-0.6,0-1.2,0-1.8c0-0.1,0.1-0.3,0.2-0.3c0.6-0.2,0.7-0.8,1-1.2c0.2-0.4,0.5-0.8,0.8-1.1
	c0.4-0.4,0.8-0.8,1.1-1.3C125.4,51.8,125.5,51.2,125.4,50.6z M94.1,36.8c-0.6-0.5-0.6-0.5-0.1-1C94.4,36.4,94.5,36.5,94.1,36.8z
	 M91.3,95.9c0-0.1,0-0.1-0.1-0.2c0.1-0.1,0.2-0.1,0.4-0.2c0,0.1,0.1,0.2,0.1,0.3C91.6,95.9,91.5,95.9,91.3,95.9z M93.8,98
	c0,0-0.1-0.1-0.1-0.1c0.1-0.1,0.2-0.2,0.4-0.3C94.2,98,94,98,93.8,98z M95,99c0-0.2,0-0.3,0-0.4c0,0,0,0,0,0c0,0,0,0,0,0
	c-0.1,0.1-0.3,0.1-0.4,0.2c-0.1-0.5,0-0.8,0.2-1.1c0.1,0.3,0.1,0.6,0.2,1c0,0,0,0,0,0v0c0.2-0.1,0.4-0.1,0.6-0.2c0,0,0,0.1,0.1,0.1
	C95.5,98.6,95.3,98.8,95,99z M100,84.6c0.1,0.1,0.1,0.2,0.1,0.3c0,0-0.1,0.1-0.1,0.1c-0.1,0-0.1-0.1-0.2-0.2
	C99.9,84.7,99.9,84.7,100,84.6z M110.9,73c0,0-0.1,0-0.1-0.1c0-0.1,0-0.1,0-0.2c0.2-0.3,0.5-0.6,0.7-0.9c0,0,0.1,0,0.2,0.1
	C111.4,72.3,111.2,72.6,110.9,73z"/>
<path class="st1" d="M78.2,45.1c-0.2,0.3-0.3,0.2-0.5,0c-0.1,0.3-0.3,0.5-0.6,0.4c-0.2-0.8-0.2-0.8,0-1
	C77.5,44.7,77.8,44.9,78.2,45.1z"/>
<path class="st1" d="M99.8,100.6c0.1-0.4,0.1-0.4,0.8-0.3C100.4,100.6,100.1,100.5,99.8,100.6z"/>
<path class="st1" d="M98,34.5c0.1,0,0.2,0,0.3,0c0,0.1,0,0.1,0,0.1c-0.1,0-0.2,0-0.3,0C98,34.6,98,34.5,98,34.5z"/>
<path class="st1" d="M79,45.3c-0.1,0.1-0.1,0.1-0.2,0.2c0,0-0.1,0-0.1-0.1c0.1-0.1,0.1-0.2,0.2-0.2C78.9,45.2,78.9,45.3,79,45.3z"/>
<path class="st1" d="M97.4,34.5c-0.1-0.1-0.1-0.1-0.2-0.2c0,0,0.1-0.1,0.1-0.1c0,0,0.1,0,0.1,0.1C97.5,34.4,97.5,34.5,97.4,34.5z"/>
<g>
	<path class="st1" d="M53.6,26.3c-0.3,0-0.5,0-0.7,0c-0.2,0-0.4,0-0.6,0c-0.6-1.8-1.2-3.6-1.8-5.4c0,0-0.1,0-0.1,0
		c0,1.8,0,3.5,0,5.3c-0.5,0-1,0-1.5,0c0-2.7,0-5.3,0-8c0.7,0,1.5,0,2.3,0c0.3,0.9,0.6,1.8,0.9,2.7c0.3,0.9,0.6,1.8,0.9,2.7
		c0,0,0.1,0,0.1,0c0.5-1.8,1.1-3.6,1.6-5.4c0.8,0,1.5,0,2.3,0c0,2.7,0,5.3,0,8c-0.5,0-0.9,0-1.5,0c0-1.8,0-3.5,0-5.3
		c0,0-0.1,0-0.1,0c-0.3,0.5-0.4,1.1-0.6,1.7c-0.2,0.6-0.4,1.2-0.6,1.8C54,25.1,53.8,25.7,53.6,26.3z"/>
	<path class="st1" d="M131.9,26.3c-0.4,0-0.8,0-1.2,0c-0.1,0-0.1,0-0.3-0.1c0-1.8,0-3.5,0-5.3c0,0-0.1,0-0.1,0
		c-0.6,1.8-1.1,3.6-1.8,5.4c-0.4,0-0.8,0-1.3,0c-0.6-1.8-1.2-3.6-1.8-5.4c-0.2,0.6-0.1,1.2-0.2,1.7c0,0.6,0,1.2,0,1.7
		c0,0.6,0,1.2,0,1.8c-0.5,0.2-1,0.1-1.5,0.1c0-2.7,0-5.4,0-8.1c0.8,0,1.5,0,2.3,0c0.6,1.8,1.2,3.6,1.7,5.4c0,0,0.1,0,0.1,0
		c0.1-0.1,0.1-0.3,0.2-0.5c0.5-1.5,0.9-3,1.3-4.5c0.2-0.5,0.2-0.5,0.7-0.5c0.6,0,1.1,0,1.7,0C132,18.7,132.1,25.6,131.9,26.3z"/>
	<path class="st1" d="M143.7,18.2c1.5,0,3-0.1,4.5,0.1c1.1,0.1,1.7,1,1.7,2.1c0,0.9-0.3,1.6-1.1,2.1c1,0.5,1,1.4,1.1,2.3
		c0,0.5,0.1,0.9,0.2,1.5c-0.5,0-1,0-1.5,0c0-0.3-0.1-0.7-0.1-1c0-0.4-0.1-0.8-0.1-1.1c-0.1-0.7-0.5-0.9-1.1-0.9c-0.5,0-1,0-1.5,0
		c-0.1,0-0.2,0-0.3,0c0,1,0,2,0,3.1c-0.6,0-1.1,0-1.5,0C143.6,25.9,143.6,19.5,143.7,18.2z M145.3,21.9c0.7,0,1.4,0,2.1,0
		c0.3,0,0.6-0.2,0.8-0.5c0.2-0.4,0.2-0.9,0-1.3c-0.1-0.3-0.3-0.5-0.6-0.5c-0.7-0.1-1.5-0.1-2.3,0C145.3,20.4,145.3,21.1,145.3,21.9z
		"/>
	<path class="st1" d="M73,22.3c0-0.8,0.1-1.5,0.4-2.2c0.7-1.4,1.8-2.1,3.3-2.1c1.5,0,2.6,0.7,3.2,2.1c0.6,1.4,0.7,2.9,0.1,4.3
		c-0.6,1.4-1.7,2.1-3.2,2.2c-1.5,0-2.7-0.7-3.4-2.1C73.1,23.8,72.9,23.1,73,22.3z M74.5,22.2c0.1,0.5,0.2,1.1,0.4,1.6
		c0.3,0.8,0.9,1.2,1.8,1.2c0.9,0,1.4-0.4,1.8-1.2c0.4-1.1,0.4-2.2,0-3.2c-0.3-0.8-0.9-1.2-1.8-1.2c-0.9,0-1.5,0.4-1.8,1.2
		C74.7,21.1,74.6,21.7,74.5,22.2z"/>
	<path class="st1" d="M102.5,21.3c1,0,2,0,3.1,0c0-1,0-2,0-3c0.6,0,1.1,0,1.5,0c0.1,0.5,0.2,7.2,0,8c-0.2,0-0.5,0-0.7,0
		c-0.2,0-0.5,0-0.8,0c0-1.2,0-2.3,0-3.4c-0.6-0.2-1.1-0.1-1.6-0.1c-0.5,0-1,0-1.6,0c-0.1,0.6,0,1.2,0,1.7c0,0.6,0,1.1,0,1.7
		c-0.5,0.1-1,0.1-1.6,0c0-2.7,0-5.3,0-8c0.3,0,0.5,0,0.8,0c0.2,0,0.5,0,0.8,0C102.5,19.3,102.4,20.3,102.5,21.3z"/>
	<path class="st1" d="M31.5,26.3c0-2.7,0-5.3,0-8c1.9,0,3.7,0,5.6,0c0,0.5,0,0.9,0,1.4c-1.3,0-2.6,0-3.9,0c0,0.6,0,1.2,0,1.8
		c1.2,0,2.4,0,3.5,0c0.2,0.4,0.1,0.9,0.1,1.3c-1.2,0.1-2.4,0-3.6,0.1c0,0.7,0,1.3,0,2c1.3,0.1,2.7,0,4,0.1c0,0.5,0,0.9,0,1.4
		C35.3,26.3,33.4,26.3,31.5,26.3z"/>
	<path class="st1" d="M140.4,22.8c-1.2,0-2.4,0-3.6,0c0,0.7,0,1.3,0,2.1c1.4,0,2.7,0,4,0c0,0.5,0,0.9,0,1.4c-1.9,0-3.8,0-5.7,0
		c0-2.7,0-5.3,0-8c0.4-0.1,4.9-0.2,5.6,0c0,0.4,0,0.9,0,1.4c-1.3,0-2.6,0-3.9,0c-0.1,0.6,0,1.1,0,1.7c1.2,0,2.4,0,3.6,0
		C140.5,22,140.5,22.4,140.4,22.8z"/>
	<path class="st1" d="M64.4,23.7c0.5,0,0.9,0,1.4,0c0,0.1,0.1,0.3,0.1,0.4c0.2,0.5,0.5,0.8,1,1c0.5,0.1,1,0.1,1.5,0
		c0.4-0.1,0.7-0.4,0.7-0.8c0-0.4-0.2-0.7-0.6-0.9c-0.3-0.1-0.7-0.3-1-0.4c-0.5-0.2-1-0.3-1.5-0.5c-0.8-0.3-1.3-0.9-1.4-1.8
		c0-1,0.3-1.7,1.2-2.2c1.2-0.6,2.4-0.6,3.6,0.1c0.8,0.4,1.1,1.1,1.1,2c-0.5,0-1,0-1.5,0c-0.4-1-1.1-1.4-2.1-1.1
		c-0.4,0.1-0.7,0.5-0.7,0.9c0,0.4,0.3,0.7,0.6,0.8c0.5,0.2,1,0.3,1.5,0.5c0.3,0.1,0.5,0.1,0.8,0.2c0.9,0.4,1.5,1,1.6,2
		c0.1,1.1-0.4,1.9-1.4,2.4c-0.7,0.3-1.4,0.4-2.2,0.3c-0.5-0.1-1.1-0.2-1.5-0.5C64.7,25.6,64.2,24.7,64.4,23.7z"/>
	<path class="st1" d="M83.1,18.3c0.6,0,1,0,1.6,0c0,0.2,0,0.5,0,0.7c0,1.3,0,2.6,0,4c0,0.3,0,0.7,0.1,1c0.1,0.7,0.5,1.1,1.2,1.1
		c0.1,0,0.1,0,0.2,0c1.2,0,1.7-0.4,1.8-1.6c0-1.5,0-3,0-4.4c0-0.2,0-0.4,0-0.7c0.5,0,1.1,0,1.6,0c0,0.2,0,0.4,0,0.6
		c0,1.4,0,2.9,0,4.3c0,0.3,0,0.7-0.1,1c-0.2,1.1-0.9,1.9-2,2.2c-0.8,0.2-1.6,0.2-2.4,0c-1.2-0.3-1.8-1.1-2-2.4c0-0.3,0-0.7,0-1
		c0-1.4,0-2.7,0-4.1C83.1,18.7,83.1,18.5,83.1,18.3z"/>
	<path class="st1" d="M164.4,20.9c-0.5,0-0.9,0-1.4,0c-0.1-0.1-0.1-0.3-0.2-0.4c-0.6-1.3-2.3-1.4-3.1-0.2c-0.4,0.6-0.5,1.2-0.5,1.9
		c0,0.6,0.1,1.2,0.3,1.8c0.4,0.8,1.1,1.2,2,1.1c0.8-0.1,1.2-0.6,1.4-1.3c0-0.1,0.1-0.3,0.1-0.4c0.5,0,1,0,1.5,0
		c0.1,1.4-1,2.9-2.4,3.2c-2.2,0.5-4.1-0.9-4.5-3.3c-0.1-1-0.1-2,0.4-3c0.8-1.8,2.7-2.6,4.5-1.9C163.5,18.6,164.3,19.7,164.4,20.9z"
		/>
	<path class="st1" d="M41.4,24.5c-0.2,0.6-0.4,1.2-0.6,1.8c-0.5,0-1,0-1.6,0c0.4-1.4,0.9-2.7,1.4-4.1c0.5-1.3,0.9-2.7,1.4-4
		c0.6,0,1.1,0,1.7,0c0.9,2.7,1.9,5.3,2.8,8.1c-0.6,0-1.1,0-1.7,0c-0.2-0.6-0.4-1.2-0.6-1.8C43.3,24.5,42.4,24.5,41.4,24.5z M43,20.4
		c-0.1,0-0.1,0-0.2,0c-0.3,0.9-0.6,1.9-0.9,2.8c0.7,0,1.3,0,2,0C43.5,22.2,43.3,21.3,43,20.4z"/>
	<path class="st1" d="M118.7,18.3c0.9,2.6,1.8,5.3,2.8,8c-0.2,0-0.4,0-0.6,0c-0.4,0-0.7,0-1.1,0c-0.2-0.6-0.4-1.2-0.6-1.8
		c-0.9,0-1.9,0-2.9,0c-0.2,0.6-0.4,1.2-0.6,1.8c-0.5,0-1,0-1.6,0c0-0.2,0.1-0.3,0.1-0.4c0.8-2.4,1.7-4.7,2.5-7.1
		c0.2-0.5,0.2-0.5,0.8-0.5c0.3,0,0.6,0,1,0C118.6,18.2,118.6,18.3,118.7,18.3z M117.9,20.3c-0.4,0.7-0.9,2.4-0.9,2.9
		c0.6,0,1.2,0,1.9,0C118.5,22.2,118.2,21.3,117.9,20.3z"/>
	<path class="st1" d="M173.8,26.3c-0.6,0-1.1,0-1.7,0c-0.2-0.6-0.4-1.2-0.6-1.8c-1,0-1.9,0-2.9,0c-0.2,0.6-0.4,1.2-0.6,1.8
		c-0.5,0-1,0-1.6,0c0-0.2,0.1-0.3,0.1-0.5c0.8-2.3,1.6-4.7,2.5-7c0.2-0.6,0.2-0.6,0.8-0.6c1.4,0,1-0.2,1.5,1.1
		c0.7,2.1,1.5,4.2,2.2,6.3C173.6,25.8,173.7,26,173.8,26.3z M171.1,23.2c-0.3-1-0.6-1.9-0.9-2.9c-0.4,0.7-0.9,2.5-0.9,2.9
		C169.8,23.2,170.4,23.2,171.1,23.2z"/>
	<path class="st1" d="M25,19.7c-0.8,0-1.5,0-2.2,0c0-0.5,0-0.9,0-1.4c2,0,4.1,0,6.1,0c0,0.5,0,0.9,0,1.4c-0.7,0-1.4,0-2.2,0
		c0,0.8,0,1.5,0,2.2c0,0.7,0,1.5,0,2.2c0,0.7,0,1.4,0,2.1c-0.5,0.1-1,0.1-1.6,0C25,24.1,25,22,25,19.7z"/>
	<path class="st1" d="M96,26.3c-0.6,0-1.1,0-1.6,0c0-2.2,0-4.4,0-6.6c-0.8,0-1.5,0-2.2,0c0-0.5,0-0.9,0-1.4c0.4-0.1,5.2-0.2,6.1,0
		c0.1,0.4,0,0.9,0,1.4c-0.8,0-1.5,0-2.2,0C96,21.9,96,24.1,96,26.3z"/>
	<path class="st1" d="M154.5,26.3c-0.5,0-1,0-1.5,0c0-2.7,0-5.3,0-8c0.6,0,1,0,1.5,0C154.6,18.7,154.6,25.5,154.5,26.3z"/>
</g>
<path class="st2" d="M94.1,36.8c-0.6-0.5-0.6-0.5-0.1-1C94.4,36.4,94.5,36.5,94.1,36.8z"/>
<path class="st2" d="M95,98.6c-0.1,0.1-0.3,0.1-0.4,0.2c-0.1-0.5,0-0.8,0.2-1.1C94.9,97.9,95,98.2,95,98.6z"/>
<path d="M95.1,98.6L95.1,98.6C95,98.6,95,98.6,95.1,98.6C95,98.6,95.1,98.6,95.1,98.6z"/>
<path d="M95,98.6c0.2-0.1,0.4-0.1,0.6-0.2c0,0,0,0.1,0.1,0.1c-0.2,0.2-0.4,0.3-0.7,0.5C95,98.8,95.1,98.7,95,98.6
	C95.1,98.6,95,98.6,95,98.6z"/>
<path d="M91.3,95.8c0.1-0.1,0.2-0.1,0.4-0.2c0,0.1,0.1,0.2,0.1,0.3c-0.1,0-0.3,0.1-0.4,0.1C91.3,95.9,91.3,95.8,91.3,95.8z"/>
<path d="M93.8,97.9c0.1-0.1,0.2-0.2,0.4-0.3c0,0.4-0.2,0.4-0.4,0.4C93.8,98,93.8,98,93.8,97.9z"/>
<path d="M100,84.6c0.1,0.1,0.1,0.2,0.1,0.3c0,0-0.1,0.1-0.1,0.1c-0.1,0-0.1-0.1-0.2-0.2C99.9,84.7,99.9,84.7,100,84.6z"/>
</svg>
