<?xml version="1.0" encoding="utf-8"?>
<!-- Generator: Adobe Illustrator 22.1.0, SVG Export Plug-In . SVG Version: 6.00 Build 0)  -->
<svg version="1.1" id="Layer_1" xmlns="http://www.w3.org/2000/svg" xmlns:xlink="http://www.w3.org/1999/xlink" x="0px" y="0px"
	 viewBox="0 0 200 125" style="enable-background:new 0 0 200 125;" xml:space="preserve">
<style type="text/css">
	.st0{fill:#3D98D3;}
	.st1{fill:#FFFFFF;}
	.st2{fill:#354E5C;}
	.st3{fill:#29176F;}
	.st4{fill:#D9261D;}
	.st5{fill:#262626;}
</style>
<g>
	<rect class="st0" width="200" height="125"/>
	<path class="st2" d="M98.9,105c-2.7-0.1-5.4-0.2-8.1-0.3c-10.3-0.7-20.4-2.7-30.1-6.6c-5-2-9.8-4.5-14.2-7.7
		c-3.5-2.6-6.7-5.6-9.1-9.2c-1.9-2.8-3.3-5.8-4-9.2c-0.9-4.6-0.4-8.9,1.5-13.2c1.5-3.5,3.7-6.4,6.3-9.1c3.4-3.5,7.3-6.2,11.6-8.6
		c5.8-3.2,12.1-5.5,18.5-7.2c4.4-1.2,8.9-2,13.4-2.5c4.2-0.5,8.4-0.8,12.6-0.8c2.9,0,5.8,0,8.8,0.2c9,0.5,17.7,2.1,26.3,4.9
		c5.8,1.9,11.4,4.4,16.6,7.8c3.6,2.4,7,5.1,9.8,8.5c2.5,2.9,4.4,6.2,5.4,9.9c1.6,5.7,0.9,11.2-1.8,16.5c-1.8,3.5-4.3,6.5-7.3,9.2
		c-3.8,3.5-8.1,6.2-12.8,8.5c-6.2,3-12.7,5.1-19.3,6.6c-4,0.9-8.1,1.5-12.2,1.9C106.8,104.7,102.9,104.9,98.9,105z M95.5,65.1
		c0-0.1,0-0.1,0-0.2c0,0-0.1-0.1-0.1-0.1c0,0-0.1,0-0.1,0.1c0,0,0,0.1,0.1,0.1C95.4,65.1,95.5,65.1,95.5,65.1
		C95.5,65.1,95.5,65.2,95.5,65.1c0.1,0.2,0.1,0.2,0.2,0.3c0,0,0.1-0.1,0.1-0.1c0-0.1-0.1-0.1-0.2-0.2C95.6,65.1,95.5,65.1,95.5,65.1
		z M95,73.2c-0.1-0.1-0.1-0.2-0.2-0.4c-0.1,0.2-0.1,0.3-0.2,0.5c0,0,0.1,0,0.1,0.1C94.8,73.3,94.9,73.3,95,73.2
		c0.1,0.6,0.1,0.6,0.6,0.5c0,0.1,0,0.2,0,0.4c0,0.1,0.1,0.1,0.2,0.1c0,0,0.1-0.1,0.1-0.1c0-0.1,0-0.2-0.1-0.3
		c-0.1-0.1-0.2-0.1-0.3-0.1C95.5,73.5,95.5,73.1,95,73.2z M76.7,89L76.7,89c0.3,0.2,0.7,0.4,1,0.6c0.7-0.5,1.3-1.2,2.3-1.1
		c0.4,0,0.5-0.2,0.6-0.6c0.1-0.6,0.3-1.2,0.7-1.7c0.1-0.1,0.1-0.2,0.2-0.3c0.3-0.5,0.5-1,0.8-1.5c0.1-0.1,0.2-0.3,0.3-0.4
		c0.6-0.4,0.8-1,1-1.6c0.2-0.5,0.3-1.1,0.5-1.6c0.2-0.5,0.2-0.9,0.1-1.3c-0.2-0.7-0.1-1.4,0.1-2.2c0,0,0-0.1,0-0.1
		c-0.1,0-0.2,0.1-0.3,0.1c-0.4-0.5-0.7-0.9-1.1-1.4c-0.3-0.3-0.4-0.6-0.3-0.9c0-0.1,0-0.1-0.1-0.2c-0.3-0.1-0.5-0.1-0.8-0.2
		c0.1-0.6-0.5-1.1-0.5-1.7c0-0.1-0.1-0.1-0.2-0.2c-0.4-0.3-0.9-0.6-1.3-0.9c-0.1-0.1-0.3-0.2-0.3-0.3c-0.1-0.4-0.1-0.7-0.1-1.1
		c0-0.2,0-0.4-0.1-0.5c-0.4-0.5-0.3-1-0.4-1.5c0-0.2-0.1-0.4-0.2-0.5c-0.1-0.1-0.3-0.2-0.4-0.4c-0.2,0-0.3,0.1-0.5,0.1
		c-0.1-0.3-0.2-0.5-0.1-0.7c0-0.5-0.2-0.9-0.3-1.4c-0.1-0.3-0.1-0.5-0.2-0.8c0-0.1-0.1-0.3-0.2-0.4c-0.1,0.1-0.2,0.2-0.2,0.3
		c-0.1,0.5-0.5,1-0.4,1.6c0,0.5-0.1,1-0.1,1.5c0,0.9-0.3,1.7-0.6,2.5c-0.2,0.3-0.5,0.4-0.8,0.3c-0.2-0.1-0.4-0.2-0.5-0.3
		c-0.1-0.2-0.3-0.3-0.6-0.4c-0.1,0-0.2-0.1-0.4-0.2c-0.4-0.3-0.7-0.6-1.1-0.8c-0.3-0.2-0.6-0.4-0.8-0.6c0.1-0.5,0.7-0.8,0.4-1.4
		c0.6-0.1,0.5-0.6,0.8-0.9c-0.3-0.4-0.7-0.2-1.1-0.3c-0.1,0-0.3,0.1-0.4,0.1c-0.6-0.2-1.2-0.4-1.8-0.7c-0.3-0.2-0.4-0.2-0.7-0.1
		c0.2,0.1,0.2,0.1,0.3,0.2c0.2,0,0.3,0.2,0.3,0.3c0,0.1-0.1,0.2-0.2,0.3c-0.2,0.1-0.3,0.1-0.5,0.1c-0.5,0-0.9,0.1-1.1,0.6
		c-0.1,0.3-0.3,0.5-0.4,0.7c-0.2,0.3-0.4,0.5-0.1,1c-0.6,0-1.1,0-1.4-0.5c-0.2-0.3-0.5-0.6-0.9-0.3c-0.1,0.1-0.2,0-0.3,0
		c-0.1,0.2,0,0.4-0.3,0.4c-0.2,0-0.4,0.1-0.5,0.4c0,0.1-0.1,0.2-0.2,0.3c-0.3,0.1-0.4,0.4-0.3,0.7c0,0.1,0,0.2-0.1,0.3
		c-0.2,0-0.4,0-0.6,0c-0.3,0.3,0.3,0.7-0.2,0.9c-0.1-0.2-0.2-0.4-0.3-0.6c-0.6,0.4-0.8,0.8-0.6,1.4c-0.2,0.2-0.4,0.4-0.5,0.6
		c-0.3,0.8-0.9,1-1.6,1.1c-0.1,0-0.3,0-0.4,0c-0.6,0.3-1.1,0.6-1.8,0.6c-0.1,0-0.2,0.1-0.3,0.1c-0.5,0.5-1.2,0.7-1.6,1.4
		c-0.1-0.1-0.1-0.2-0.2-0.4c-0.2,0.3-0.3,0.5-0.2,0.8c0,0.2,0,0.4-0.1,0.5c-0.3,0.5-0.2,0.9,0,1.4c0.1,0.2,0.2,0.3,0.3,0.5
		c0.1,0.2,0.1,0.3,0.1,0.5c0,0-0.1,0-0.1,0c-0.1-0.1-0.2-0.3-0.4-0.4c0,0.2,0.1,0.4,0.2,0.5c0,0,0,0.1,0,0.2
		c-0.1-0.1-0.2-0.2-0.3-0.3c0,0.2,0.1,0.3,0.2,0.5c0.1,0.3,0.3,0.6,0.4,0.9c0.1,0.2,0.1,0.4,0.2,0.6c0.1,0.4,0.4,0.7,0.4,1.1
		c0,0.6,0.2,1.1,0.4,1.5c0.3,0.6,0.1,1.1,0,1.7c0,0.1-0.2,0.2-0.3,0.3c-0.3,0.2-0.3,0.4,0,0.6c0.2,0.1,0.4,0.3,0.6,0.4
		c0.5,0.3,1.4,0.4,1.8,0c0.3-0.3,0.8-0.3,1-0.7c0.1-0.1,0.2-0.1,0.3-0.1c0.7,0,1.3-0.1,2,0c0.4,0,0.6-0.1,0.8-0.4
		c0.1-0.3,0.3-0.4,0.6-0.5c0.3-0.1,0.5-0.3,0.8-0.4c0.1-0.1,0.3-0.1,0.4-0.1c0.6,0.1,1.2-0.1,1.8-0.4c0.6-0.3,1.3-0.1,1.9-0.2
		c0.1,0,0.2,0,0.2,0.1c0.3,0.2,0.5,0.4,0.9,0.3c0.2,0,0.5,0.1,0.7,0.2c0.1,0.1,0.5,0.1,0.3,0.5c0,0.1,0.1,0.2,0.2,0.3
		c0.4,0.3,0.6,0.7,0.6,1.1c0,0.3,0.1,0.4,0.3,0.4c0.3-0.3,0.6-0.6,0.8-0.9c0.3-0.3,0.6-0.5,0.8-0.7c0.1,0.4-0.3,0.7-0.3,1
		c-0.1,0.4-0.2,0.6-0.5,0.9c0.6,0.1,0.7-0.4,1-0.8c0.1,0.3,0.2,0.5,0.2,0.6c0,0.2-0.1,0.4-0.2,0.6c0.6,0,1.2,0.4,1,1
		c-0.1,0.4,0,0.7,0.3,1c0.2,0.2,0.6,0.5,0.9,0.5c0.3,0,0.7,0.1,0.9,0.3c0.3,0.2,0.5,0.2,0.7-0.1C76.2,89,76.4,88.9,76.7,89z
		 M73.6,62.5c0.2-0.1,0.3-0.1,0.4-0.1c0.5-0.2,0.7-0.2,1,0.2c0.3,0.4,0.7,0.7,1.3,0.6c0.1,0,0.2,0,0.3,0c0.4,0.1,0.7-0.1,0.8-0.5
		c0.5-1,0.6-1,1.7-0.7c0,0,0.1,0,0.1,0c0.2,0.1,0.3,0.2,0.4,0.4c0.3,0.4,0.6,0.8,0.9,1.2c0.2,0.3,0.4,0.3,0.7,0.4
		c0.5,0.1,1,0.1,1.4,0.4c0.1,0.1,0.2,0,0.3,0c0.1-0.3-0.2-0.4-0.4-0.5c-0.1-0.1-0.2-0.4-0.3-0.4c-0.3-0.1-0.3-0.3-0.3-0.6
		c-0.4,0.2-0.6-0.1-0.7-0.3c-0.1-0.3-0.3-0.6-0.6-0.8c-0.2-0.2-0.5-0.4-0.4-0.8c0.2,0,0.4-0.1,0.6-0.1c0.1-0.3-0.1-0.5-0.4-0.6
		c-0.4-0.2-0.8-0.3-1-0.4c-0.2-0.4-0.3-0.7-0.5-0.9c-0.6-0.5-1.2-0.9-2-1.1c-0.3-0.1-0.5-0.2-0.8-0.4c-0.3-0.1-0.6-0.3-0.9-0.4
		c-0.6-0.1-1.1-0.3-1.6-0.6c-0.6-0.3-0.7-0.3-1.2,0.3c-0.1,0.1-0.1,0.1-0.2,0.1c-0.3,0.1-0.5,0.4-0.6,0.6c-0.1,0.1-0.2,0.3-0.3,0.4
		C71.3,58,71.1,58,71,58c-0.2-0.3-0.5-0.5-0.6-0.9c-0.1-0.4-0.1-0.8-0.2-1.2c-0.4-0.1-0.6-0.3-0.9-0.3c-0.2,0-0.4-0.1-0.6,0
		c-0.4,0.2-0.8,0.4-1.2,0.6c0,0.1,0.1,0.2,0.1,0.2c0.5,0.1,0.9,0.3,1.1,0.8c0,0,0.1,0,0.2,0.1c0.1,0,0.2,0.1,0.3,0.1
		c0,0,0,0.1,0,0.1c-0.2,0.1-0.5,0.1-0.8,0.2c0.5,0.3,0.5,0.3,0.7,0.9c0.1,0.3,0.3,0.3,0.5,0.1c0.1-0.1,0.1-0.2,0.2-0.3
		c0.6,0.3,1.2,0.7,1.9,0.8c0.3,0,0.6,0.2,0.8,0.3c0.3,0.1,0.6,0.3,0.7,0.6c0.2,0.5,0.4,1,0.6,1.5c0,0.1,0,0.2-0.1,0.3
		C73.8,62.1,73.8,62.2,73.6,62.5z M97.5,91.3c-0.3-0.4-0.5,0.2-0.8,0.1c-0.1-0.2-0.2-0.4-0.4-0.6c-0.2,0.2-0.3,0.4-0.4,0.5
		c-0.1,0.2-0.3,0.4-0.5,0.5c-0.1,0.1-0.2,0.3-0.4,0.4c-0.2,0.2-0.3,0.4-0.5,0.5c-0.6,0.4-1.2,0.7-1.8,1c-0.7,0.4-1.4,0.9-1.9,1.5
		c-0.2,0.3-0.1,0.5,0.2,0.5c0.3,0,0.5,0.1,0.7,0.2c0.3,0.2,0.7,0.2,1,0c0.6-0.4,1.2-0.8,1.4-1.5c0.2-0.6,0.7-0.7,1.2-0.9
		c0.1,0,0.2,0,0.2,0c0.1-0.3,0.1-0.5,0.3-0.6C96.6,92.6,97.2,92.2,97.5,91.3z M97.8,91.5c0.4,0.3,0.6,0.3,0.9-0.1
		c0.3-0.3,0.6-0.6,0.9-1c0.1-0.1,0.2-0.2,0.2-0.4c0.1-0.3,0.2-0.4,0.5-0.5c0.1,0,0.2,0,0.3-0.1c0.3-0.3,0.6-0.7,0.7-1.2
		c-0.2-0.2-0.4,0-0.6,0.1c-0.5,0.3-1.1,0.1-1.1-0.6c0-0.2,0-0.4-0.2-0.5c0,0.1-0.1,0.2-0.1,0.4c-0.1-0.2-0.3-0.3-0.3-0.5
		c-0.1-0.2,0-0.4,0-0.6c0-0.6-0.1-0.8-0.8-0.8c-0.2,0.2-0.1,0.4,0,0.7c0.2,0.5,0.4,0.9,0.5,1.4c0.1,0.5-0.1,0.8-0.3,1.3
		c-0.1,0.3-0.3,0.3-0.5,0.4c-0.1,0-0.2,0.1-0.4,0.2c0.4,0.3,0.7,0.5,1,0.8C98.2,90.9,98,91.2,97.8,91.5z M76.4,91
		c-0.2,0.2-0.2,0.4-0.1,0.7c0.1,0.3,0.1,0.6,0.2,0.9c0,0.2,0.1,0.3,0.2,0.4c0.3,0.6,0.7,0.7,1.2,0.2c0.1-0.1,0.3-0.1,0.4-0.2
		c0.1-0.6,0.7-1.2,0.5-2c-0.4,0.1-0.8,0.3-1.2,0.3C77.2,91.3,76.8,91.1,76.4,91z M81.3,59.9c0.7,0.7,1.4,0.8,2.2,0.3
		c0.2-0.1,0.4-0.3,0.6-0.4c0.1,0,0.1-0.1,0.1-0.2c-0.1-0.2,0.1-0.3,0.2-0.4c0.1-0.2,0-0.4,0-0.6c-0.2,0-0.4,0-0.6,0
		c0,0.2,0,0.4,0,0.5c-0.2,0.2-0.3,0.3-0.4,0.4c-0.1,0.2-0.2,0.2-0.4,0.2c-0.4,0-0.9,0-1.3,0C81.6,59.8,81.5,59.8,81.3,59.9z
		 M92.8,72.5c-0.1,0.5,0.1,0.7,0.3,1c0.4,0.6,1,1,1.6,1.4c0.1,0.1,0.3,0.2,0.4,0c0-0.1,0-0.3-0.1-0.4c0,0,0,0,0,0
		c-0.4-0.4-0.8-0.7-1.2-1.1C93.5,73,93.2,72.8,92.8,72.5z M96.5,70.2c0.1-0.2,0.1-0.3,0.1-0.4c0-0.4-0.1-0.9-0.1-1.3
		c0-0.1-0.1-0.2-0.1-0.4c-0.2,0.2-0.3,0.4-0.6,0.6c0.1,0.1,0.3,0.1,0.3,0.2c0,0,0,0.2,0,0.3c-0.1,0-0.3-0.1-0.3-0.1
		c-0.1-0.1-0.1-0.3-0.1-0.5c0-0.4-0.2-0.6-0.6-0.7c0,0.3-0.1,0.5,0,0.8c0.1,0.4,0.4,0.7,0.6,1c0,0,0,0,0,0
		C96.1,69.6,96.3,69.9,96.5,70.2z M105.1,70.7c-0.4-0.2-0.7-0.4-1-0.5c-0.3-0.1-0.6,0-0.7,0.3c-0.2,0.2-0.2,0.5,0,0.7
		c0.1,0.1,0.1,0.2,0.1,0.3c0.4-0.2,0.8-0.4,1.2-0.6c0,0,0.1,0.1,0.2,0.2C105,70.9,105,70.9,105.1,70.7z M87.6,62.1
		c0.2,0.1,0.4,0.2,0.4,0.3c0.2,0.5,0.6,0.4,1.1,0.4c-0.3-0.7-0.8-1-1.5-1.2C87.6,61.8,87.6,61.9,87.6,62.1z M104.1,69.8
		c0,0.1,0,0.1,0,0.2c0.2,0,0.4,0.1,0.5,0.1c0.3,0,0.6,0,1-0.1c0.2-0.2,0.1-0.5,0-0.8C105,69.2,104.5,69.5,104.1,69.8z M87.5,61
		c-0.4-0.5-0.8-1-1.2-1.4c0,0.3,0,0.5,0.1,0.7c0.3,0.4,0.5,0.8,0.5,1.3C87.1,61.4,87.3,61.2,87.5,61z M91.1,63.7
		c-0.1-0.2-0.2-0.4-0.3-0.6c-0.1-0.1-0.3-0.3-0.3-0.3c-0.2,0.1-0.4,0.2-0.4,0.4c0,0.1,0.1,0.4,0.2,0.4
		C90.4,63.8,90.7,63.9,91.1,63.7z M92,63.6c-0.5-0.1-0.6-0.6-0.7-0.9c-0.1-0.1-0.1-0.2-0.2-0.3c-0.1-0.1-0.2-0.1-0.3-0.1
		C90.8,63.2,91.2,63.7,92,63.6z M90.3,62.6c-0.1-0.5-0.4-0.9-1-1.1c-0.1,0-0.3-0.2-0.4,0.1C89.3,62,89.7,62.4,90.3,62.6z M88.7,61.5
		c-0.4-0.2-0.6-0.8-1.1-0.8C87.7,61.3,88,61.6,88.7,61.5z M67,65.3c0.8,0.2,0.9,0.1,1-0.4c-0.2,0-0.4,0.1-0.6,0
		C67.1,64.9,67.1,65.1,67,65.3z M92.2,64.6c-0.3-0.6-0.5-0.8-1-0.5C91.6,64.6,91.6,64.6,92.2,64.6z M111.3,66.9
		c0.3,0.4,0.7,0.6,1.1,0.5C112.1,66.9,111.7,66.8,111.3,66.9z M100.6,54.2c0,0,0.1,0,0.1,0c0.1-0.4,0.1-0.8,0.2-1.2
		c-0.2,0-0.4,0.1-0.4,0.3C100.6,53.7,100.6,53.9,100.6,54.2z M97.2,72.5c0-0.4-0.1-0.7-0.1-0.9c0-0.1-0.1-0.2-0.2-0.2
		c-0.1,0-0.2,0.1-0.2,0.2c0,0.2,0.1,0.5,0.2,0.7C96.9,72.4,97,72.4,97.2,72.5z M71.8,86.7c-0.4-0.3-0.5-0.3-0.9,0.1
		C71.2,87,71.5,86.9,71.8,86.7z M95.8,66.9c0,0.3,0.1,0.5,0.1,0.9c0.4-0.2,0.2-0.6,0.4-0.8c-0.1-0.1-0.2-0.1-0.3-0.1
		C95.9,66.8,95.9,66.8,95.8,66.9z M106.4,70.2c-0.5-0.1-0.4,0.3-0.5,0.5c0.2,0.2,0.3,0.3,0.4,0.5c0,0,0.1,0,0.1-0.1
		c-0.1-0.2-0.2-0.3-0.3-0.5C106.2,70.5,106.3,70.3,106.4,70.2z M133.9,69.7c-0.3-0.3-0.6-0.3-0.9-0.3c0.1,0.2,0.1,0.3,0.2,0.4
		C133.4,69.8,133.6,69.7,133.9,69.7z M129.3,70.8c-0.2-0.5-0.2-0.5-0.7-0.4C128.8,70.7,128.9,70.9,129.3,70.8z M70.1,48.8
		c0.6-0.4,0.6-0.4,0.4-0.8C70.3,48.2,70.2,48.5,70.1,48.8z M90.1,64.9c0.1,0.5,0.2,0.6,0.6,0.5C90.7,65.1,90.4,65,90.1,64.9z
		 M127.4,69.5c0,0-0.1,0.1-0.1,0.1c0.1,0.1,0.1,0.3,0.2,0.4c0.2-0.1,0.3-0.1,0.5-0.2C127.8,69.6,127.6,69.5,127.4,69.5z M84.8,59.1
		c0.4-0.4,0.4-0.4-0.1-0.6C84.7,58.7,84.7,58.9,84.8,59.1z M71.3,55.8c0.2,0.1,0.2,0.5,0.7,0.3C71.8,55.9,71.7,55.7,71.3,55.8z
		 M72.3,56.6c-0.3,0-0.6,0-0.8-0.1C71.7,56.8,72,56.9,72.3,56.6z M104.2,71.6c-0.3,0-0.5,0-0.6,0.3C104,72,104.1,71.9,104.2,71.6z
		 M94.7,64c0,0.3,0,0.4,0,0.7c0.2-0.1,0.3-0.1,0.5-0.2C95,64.3,94.9,64.2,94.7,64z M137.6,62.9c0-0.1,0-0.1,0-0.2
		c-0.2,0-0.4,0-0.7,0c0,0,0,0.1,0,0.1c0,0,0.1,0.1,0.1,0.1C137.3,62.9,137.4,62.9,137.6,62.9z M135.9,70.5c-0.5,0.4-0.5,0.4-0.2,0.8
		C135.8,71,135.8,70.8,135.9,70.5z M96.5,70.2c-0.3,0.2-0.4,0.4-0.2,0.5c0.1,0.1,0.2,0,0.3,0C96.6,70.6,96.6,70.5,96.5,70.2z
		 M83.3,63.8c-0.1-0.3-0.1-0.7-0.7-0.6C82.9,63.4,83.1,63.6,83.3,63.8z M103.1,70.4c0.3-0.2,0.5-0.4,0.6-0.7
		C103.4,69.8,103.2,70,103.1,70.4z M99,48.5c0.4,0.3,0.4,0.3,0.7,0.1C99.5,48.5,99.3,48.5,99,48.5z M130.3,68.1
		c0.3,0.4,0.3,0.4,0.9,0.3C130.8,68.3,130.6,68.2,130.3,68.1z M109,74.1c-0.1-0.6-0.1-0.6-0.5-0.4C108.7,73.8,108.8,73.9,109,74.1z
		 M124.1,53.4c0-0.2-0.1-0.4-0.3-0.3c0,0-0.1,0.1-0.1,0.2C123.8,53.4,123.9,53.5,124.1,53.4z M78.6,42.8c-0.1,0-0.1-0.1-0.2-0.1
		c-0.1,0.1-0.3,0.2,0,0.6C78.4,43.1,78.5,43,78.6,42.8z M138.2,63.6c-0.5-0.1-0.5-0.1-0.4,0.3C137.9,63.8,138,63.7,138.2,63.6z
		 M97,48.3c0.3,0.2,0.3,0.2,0.5-0.2C97.3,48.2,97.2,48.2,97,48.3z M72.1,67.1c-0.3,0.1-0.3,0.2-0.2,0.4c0,0,0.1,0,0.2,0
		C72.1,67.4,72.1,67.3,72.1,67.1z M102.3,56.4c0,0,0.1-0.1,0.1-0.1c-0.1-0.1-0.2-0.2-0.4-0.3c0,0-0.1,0.1-0.1,0.1
		C102.1,56.1,102.2,56.2,102.3,56.4z M132.2,69.4c0-0.4,0-0.4-0.3-0.4C132,69.2,132.1,69.3,132.2,69.4z M88.7,48.8
		c0,0.1,0.1,0.1,0.1,0.2c0.1-0.1,0.2-0.1,0.3-0.2c0,0-0.1-0.1-0.1-0.1C89,48.7,88.8,48.8,88.7,48.8z M138.5,74
		C138.6,74,138.6,74,138.5,74c0-0.1,0-0.2,0-0.3c-0.1,0-0.1,0-0.4,0C138.4,73.9,138.4,74,138.5,74z M95.3,66.4
		c-0.1,0.3-0.1,0.3,0.1,0.4C95.4,66.7,95.4,66.6,95.3,66.4z M83.8,48.3c0,0.1,0,0.1,0.1,0.2c0.1,0,0.2-0.1,0.3-0.1c0,0,0-0.1,0-0.1
		C84,48.3,83.9,48.3,83.8,48.3z M78.7,90.3c0.1,0.2,0,0.4,0.3,0.6C78.9,90.6,79,90.4,78.7,90.3z M84.2,58c0,0,0.1-0.1,0.1-0.1
		c-0.1-0.1-0.3-0.2-0.4-0.3c0,0,0,0-0.1,0.1C83.9,57.8,84.1,57.9,84.2,58z M131.8,67.7c0,0,0,0.1,0,0.1c0.1,0,0.2,0,0.3-0.1
		c0,0,0-0.1,0.1-0.2C132.1,67.6,132,67.7,131.8,67.7z M78.8,41.6c0.1,0,0.1,0.1,0.2,0.1c0.1-0.1,0.1-0.3,0.2-0.4c0,0-0.1,0-0.1-0.1
		C78.9,41.4,78.9,41.5,78.8,41.6z M91.6,96.2c-0.1,0.2-0.2,0.3-0.2,0.4C91.6,96.6,91.7,96.6,91.6,96.2z M132.6,67.9
		c0,0,0.1,0.1,0.1,0.1c0.1-0.1,0.2-0.2,0.3-0.3c0,0-0.1-0.1-0.1-0.1C132.8,67.7,132.7,67.8,132.6,67.9z M109.6,72.7
		c0.1-0.2,0.2-0.2,0.2-0.3c0,0-0.1-0.1-0.1-0.1c0,0.1-0.1,0.1-0.1,0.2C109.5,72.5,109.5,72.6,109.6,72.7z M79.1,39.3
		c0,0-0.1,0-0.1,0c0,0.1,0,0.2,0.1,0.3c0,0,0.1,0,0.1,0C79.1,39.5,79.1,39.4,79.1,39.3z M101.1,54.8c0.2,0,0.4-0.1,0.3-0.4
		C101.3,54.5,101.2,54.6,101.1,54.8z M131.5,69.3c0,0,0.1,0,0.1,0c0.1-0.1,0-0.2-0.2-0.4C131.5,69.1,131.5,69.2,131.5,69.3z
		 M132.6,69.2c0-0.1,0.1-0.2,0.1-0.2c0,0-0.1-0.1-0.1-0.1c0,0.1-0.1,0.1-0.1,0.2C132.5,69.1,132.6,69.1,132.6,69.2z M89.7,63.1
		c0.1-0.1,0.1-0.1,0.1-0.2c0-0.1-0.1-0.1-0.2-0.1c0,0-0.1,0.1-0.1,0.1C89.6,63,89.6,63.1,89.7,63.1z M78.9,40.4c0,0,0.1,0,0.1,0
		c0-0.1,0.1-0.2,0.1-0.4c0,0-0.1,0-0.1,0C78.9,40.2,78.9,40.3,78.9,40.4z M92.9,50.2c-0.1-0.1-0.1-0.1-0.1-0.1c0,0-0.1,0-0.1,0.1
		c0,0,0,0.1,0.1,0.1C92.8,50.3,92.8,50.2,92.9,50.2z M106.5,72c0-0.1,0.1-0.1,0.1-0.1c0,0-0.1-0.1-0.1-0.1c0,0-0.1,0.1-0.1,0.1
		C106.4,71.9,106.4,72,106.5,72z M102,55.5c-0.1,0-0.1-0.1-0.1-0.1c0,0-0.1,0.1-0.1,0.1c0,0,0.1,0.1,0.1,0.1
		C101.9,55.6,101.9,55.6,102,55.5z M89.8,72.1c0-0.1,0.1-0.1,0.1-0.1c0-0.1-0.1-0.1-0.1-0.1c0,0-0.1,0.1-0.1,0.1
		C89.7,72,89.8,72.1,89.8,72.1z M95.4,74.7c-0.1,0.2-0.1,0.2-0.1,0.2c0,0,0.1,0.1,0.1,0.1c0,0,0.1-0.1,0.1-0.1
		C95.5,74.9,95.4,74.8,95.4,74.7z M100.7,52.2c-0.1-0.1-0.1-0.1-0.2-0.1c0,0-0.1,0-0.1,0.1c0,0,0,0.1,0.1,0.1
		C100.6,52.3,100.6,52.2,100.7,52.2z M113.4,71.8c-0.1,0-0.2-0.1-0.2-0.1c-0.1,0-0.1,0.1-0.2,0.1c0,0,0.1,0.1,0.1,0.1
		C113.1,71.9,113.2,71.9,113.4,71.8z M80.1,56.7C80.1,56.7,80.1,56.8,80.1,56.7c0.1,0.1,0.2,0.1,0.4,0.1c0,0,0-0.1,0-0.1
		C80.3,56.7,80.2,56.7,80.1,56.7z M73.4,46.5c-0.1-0.1-0.1-0.1-0.2-0.1c0,0-0.1,0.1-0.1,0.1c0,0,0.1,0.1,0.1,0.1
		C73.3,46.6,73.3,46.5,73.4,46.5z M122.5,51.5c-0.1-0.1-0.1-0.1-0.2-0.2c0,0-0.1,0.1-0.1,0.1c0,0.1,0.1,0.1,0.1,0.2
		C122.3,51.6,122.4,51.6,122.5,51.5z M78.8,42.3c-0.1,0-0.1-0.1-0.2-0.1c0,0-0.1,0.1-0.1,0.1c0,0,0.1,0.1,0.1,0.1
		C78.7,42.5,78.7,42.4,78.8,42.3z M85.2,65.2C85.2,65.2,85.3,65.2,85.2,65.2c0-0.1-0.1-0.1-0.2-0.2c0,0,0,0,0,0.1
		C85.1,65.1,85.2,65.2,85.2,65.2z M137.3,63.2c-0.1,0-0.1-0.1-0.2-0.1c0,0-0.1,0.1-0.1,0.1c0,0,0,0.1,0.1,0.1
		C137.2,63.3,137.2,63.3,137.3,63.2z M110,71.6c0-0.1,0.1-0.1,0.1-0.1c0,0-0.1-0.1-0.1-0.1c0,0-0.1,0.1-0.1,0.1
		C109.9,71.5,109.9,71.5,110,71.6z M138.3,64.2c-0.1,0-0.1-0.1-0.1-0.1c0,0-0.1,0.1-0.1,0.1c0,0,0.1,0.1,0.1,0.1
		C138.2,64.3,138.2,64.3,138.3,64.2z M47.9,64c-0.1,0.1-0.1,0.2-0.1,0.2c0,0,0.1,0.1,0.1,0.1c0,0,0.1-0.1,0.1-0.1
		C48,64.2,48,64.1,47.9,64z"/>
	<g>
		<path class="st1" d="M78.9,23.9c0.2-0.5,0.3-1,0.5-1.5c0.3-1.1,0.6-2.2,1-3.3c0.2-0.7,0.1-0.6,0.9-0.6c0.5,0,1,0,1.6,0
			c0,2.7,0,5.4,0,8.1c-0.5,0-0.9,0-1.5,0c0-1.8,0-3.5,0-5.3c-0.1,0-0.1,0-0.2,0c-0.6,1.8-1.2,3.5-1.7,5.4c-0.4,0-0.8,0-1.3,0
			c-0.6-1.8-1.2-3.6-1.8-5.3c-0.1,0-0.1,0-0.2,0c0,1.8,0,3.5,0,5.3c-0.5,0-1,0-1.5,0c0-2.7,0-5.3,0-8c0.7,0,1.5,0,2.3,0
			c0.6,1.8,1.2,3.6,1.7,5.4C78.8,23.9,78.9,23.9,78.9,23.9z"/>
		<path class="st1" d="M132.3,18.5c0.5,0,1,0,1.5,0c0,2.7,0,5.3,0,8c-0.5,0.1-1,0-1.6,0.1c-1-1.8-2-3.5-3.1-5.3
			c-0.2,0.5-0.1,0.9-0.1,1.4c0,0.4,0,0.9,0,1.3s0,0.9,0,1.3c0,0.4,0,0.9,0,1.3c-0.5,0-0.9,0-1.5,0c-0.1-0.9,0-1.8,0-2.7
			c0-0.9,0-1.8,0-2.6c0-0.9,0-1.8,0-2.8c0.5,0,1,0,1.4,0c0.3,0,0.3,0.2,0.4,0.4c0.8,1.4,1.6,2.8,2.5,4.2c0.1,0.2,0.2,0.4,0.4,0.7
			c0.1-0.7,0.1-1.3,0.1-1.8c0-0.6,0-1.2,0-1.7C132.3,19.7,132.3,19.1,132.3,18.5z"/>
		<path class="st1" d="M97.7,22.5c0,0.9-0.2,1.8-0.7,2.6c-1.4,2.3-4.9,2.2-6.1-0.1c-0.9-1.7-0.9-3.4,0-5c0.7-1.2,1.8-1.8,3.1-1.7
			c1.4,0,2.4,0.6,3.1,1.8C97.5,20.8,97.7,21.7,97.7,22.5z M91.8,22.5c0.1,0.6,0.2,1.1,0.4,1.6c0.3,0.8,0.9,1.2,1.8,1.2
			c0.9,0,1.4-0.4,1.8-1.2c0.5-1.1,0.4-2.2,0-3.3c-0.3-0.7-0.9-1.1-1.7-1.1c-0.8,0-1.4,0.4-1.8,1.1C92,21.3,91.9,21.9,91.8,22.5z"/>
		<path class="st1" d="M115.3,21.7c0,0.5,0,0.9,0,1.3c-0.6,0.1-1.2,0-1.8,0c-0.6,0-1.2,0-1.9,0c-0.1,0.7,0,1.4,0,2.1
			c1.4,0,2.7,0,4,0c0,0.5,0,0.9,0,1.4c-1.9,0-3.7,0-5.7,0c0-2.7,0-5.4,0-8c0.5-0.1,5-0.1,5.6,0c0,0.4,0,0.9,0,1.4
			c-1.3,0-2.6,0-3.9,0c0,0.6,0,1.2,0,1.8C112.9,21.7,114.1,21.7,115.3,21.7z"/>
		<path class="st1" d="M63,26.5c-1.9,0-3.8,0-5.6,0c-0.1-0.5-0.2-7.2,0-8c0.4-0.1,4.9-0.2,5.6,0c0,0.4,0,0.9,0,1.3
			c-0.7,0.1-1.3,0-2,0c-0.7,0-1.3,0-2,0c0,0.6,0,1.1,0,1.7c1.2,0.1,2.4,0,3.6,0.1c0,0.4,0,0.8,0,1.3c-1.2,0-2.4,0-3.6,0
			c0,0.7,0,1.4,0,2.1c1.4,0,2.7,0,4.1,0C63,25.6,63,26.1,63,26.5z"/>
		<path class="st1" d="M107.2,21.1c-0.2,0-0.2,0-0.3,0.1c-0.4,0-0.8,0-1.1,0c-0.1-0.2-0.1-0.3-0.2-0.4c-0.6-1.3-2.3-1.4-3.1-0.2
			c-0.7,1-0.7,2.9,0,4c0.5,0.7,1.1,0.9,1.9,0.8c0.7-0.1,1.1-0.6,1.3-1.2c0.1-0.2,0.1-0.3,0.2-0.5c0.5,0,1,0,1.5,0c0,0.2,0,0.3,0,0.5
			c-0.3,1.5-1.2,2.5-2.6,2.7c-1.6,0.3-3-0.4-3.7-1.7c-0.5-1-0.7-2-0.6-3.1c0.1-0.7,0.2-1.3,0.6-1.9c0.9-1.7,3-2.3,4.7-1.5
			C106.5,19.1,107,19.9,107.2,21.1z"/>
		<path class="st1" d="M125.1,26.5c-0.6,0-1.1,0-1.7,0c-0.2-0.6-0.4-1.2-0.6-1.8c-1,0-1.9,0-2.9,0c-0.2,0.6-0.4,1.2-0.6,1.8
			c-0.5,0-1,0-1.6,0c0.4-1.4,0.9-2.7,1.4-4.1c0.5-1.3,0.9-2.7,1.4-4c0.6,0,1.1,0,1.7,0C123.2,21.2,124.2,23.8,125.1,26.5z
			 M120.4,23.4c0.7,0,1.3,0,2,0c-0.3-1-0.6-1.9-0.9-2.8c-0.1,0-0.1,0-0.2,0C121.1,21.5,120.8,22.4,120.4,23.4z"/>
		<path class="st1" d="M72.4,26.5c-0.6,0-1.1,0-1.7,0c-0.2-0.6-0.4-1.2-0.6-1.8c-1,0-1.9,0-2.9,0c-0.2,0.6-0.4,1.2-0.6,1.8
			c-0.5,0-1,0-1.6,0c0.1-0.2,0.1-0.4,0.1-0.5c0.8-2.3,1.6-4.7,2.5-7c0.2-0.6,0.2-0.6,0.8-0.6c0.3,0,0.7,0,1.1,0
			C70.5,21.1,71.4,23.8,72.4,26.5z M68.8,20.6c-0.1,0-0.1,0-0.2,0c-0.3,0.9-0.6,1.8-0.9,2.8c0.7,0,1.3,0,2,0
			C69.4,22.5,69.1,21.5,68.8,20.6z"/>
		<path class="st1" d="M148.3,26.5c-0.6,0-1.1,0-1.7,0c-0.2-0.6-0.4-1.2-0.6-1.8c-0.9,0-1.9,0-2.9,0c-0.2,0.6-0.4,1.2-0.6,1.8
			c-0.5,0-1,0-1.6,0c0.1-0.2,0.1-0.4,0.2-0.5c0.8-2.3,1.6-4.7,2.5-7c0.2-0.6,0.2-0.6,0.8-0.6c0.3,0,0.7,0,1.1,0
			C146.5,21.1,147.4,23.8,148.3,26.5z M144.7,20.6c0,0-0.1,0-0.1,0c-0.3,0.9-0.6,1.8-0.9,2.9c0.7,0,1.3,0.1,2-0.1
			C145.3,22.4,145,21.5,144.7,20.6z"/>
		<path class="st1" d="M54.8,18.5c0,0.5,0,0.9,0,1.4c-0.7,0-1.4,0-2.2,0c0,2.2,0,4.4,0,6.6c-0.5,0-1,0-1.6,0c0-2.2,0-4.3,0-6.6
			c-0.8,0-1.5,0-2.2,0c0-0.5,0-1,0-1.4C50.7,18.5,52.7,18.5,54.8,18.5z"/>
		<path class="st1" d="M138.6,26.5c-0.5,0-1,0-1.5,0c-0.1-0.4-0.1-7.3,0-8c0.1,0,0.2,0,0.3-0.1c0.4,0,0.8,0,1.1,0
			C138.7,18.9,138.7,25.8,138.6,26.5z"/>
	</g>
	<path class="st1" d="M76.7,89c-0.3-0.1-0.5,0-0.7,0.2c-0.2,0.2-0.5,0.2-0.7,0.1C75,89.1,74.7,89,74.3,89c-0.3,0-0.7-0.3-0.9-0.5
		c-0.3-0.2-0.4-0.5-0.3-1c0.1-0.6-0.4-1-1-1c0.1-0.2,0.2-0.4,0.2-0.6c0-0.2-0.1-0.4-0.2-0.6c-0.3,0.4-0.3,0.9-1,0.8
		c0.3-0.3,0.4-0.5,0.5-0.9c0.1-0.3,0.5-0.6,0.3-1c-0.3,0.2-0.6,0.5-0.8,0.7c-0.3,0.3-0.5,0.6-0.8,0.9c-0.2,0-0.3-0.1-0.3-0.4
		c0-0.5-0.2-0.9-0.6-1.1c-0.1-0.1-0.2-0.2-0.2-0.3c0.1-0.3-0.2-0.4-0.3-0.5c-0.2-0.1-0.4-0.2-0.7-0.2c-0.4,0-0.6-0.2-0.9-0.3
		c-0.1,0-0.2-0.1-0.2-0.1c-0.6,0.1-1.3-0.1-1.9,0.2c-0.6,0.3-1.1,0.5-1.8,0.4c-0.1,0-0.3,0.1-0.4,0.1c-0.3,0.1-0.5,0.3-0.8,0.4
		c-0.3,0.1-0.4,0.2-0.6,0.5c-0.1,0.3-0.4,0.5-0.8,0.4c-0.7,0-1.3,0-2,0c-0.1,0-0.3,0-0.3,0.1c-0.3,0.4-0.7,0.4-1,0.7
		c-0.4,0.4-1.4,0.3-1.8,0c-0.2-0.1-0.4-0.3-0.6-0.4c-0.2-0.2-0.2-0.4,0-0.6c0.1-0.1,0.3-0.2,0.3-0.3c0-0.6,0.2-1.1,0-1.7
		c-0.2-0.5-0.4-1-0.4-1.5c0-0.4-0.3-0.7-0.4-1.1c-0.1-0.2-0.1-0.4-0.2-0.6c-0.1-0.3-0.3-0.6-0.4-0.9c-0.1-0.2-0.2-0.3-0.2-0.5
		c0.1,0.1,0.2,0.2,0.3,0.3c0-0.1,0-0.1,0-0.2C54.1,78.1,54,78,54,77.7c0.1,0.1,0.2,0.3,0.4,0.4c0,0,0.1,0,0.1,0c0-0.2,0-0.3-0.1-0.5
		c-0.1-0.2-0.2-0.4-0.3-0.5c-0.2-0.5-0.3-0.9,0-1.4c0.1-0.1,0.1-0.4,0.1-0.5c-0.1-0.3,0-0.6,0.2-0.8c0.1,0.1,0.1,0.2,0.2,0.4
		c0.4-0.7,1.1-0.9,1.6-1.4c0.1-0.1,0.2-0.2,0.3-0.1c0.7,0.1,1.2-0.3,1.8-0.6c0.1-0.1,0.3,0,0.4,0c0.7-0.1,1.3-0.3,1.6-1.1
		c0.1-0.2,0.3-0.4,0.5-0.6c-0.2-0.6,0-1.1,0.6-1.4c0.1,0.2,0.2,0.4,0.3,0.6c0.5-0.2-0.1-0.6,0.2-0.9c0.2,0,0.3,0,0.6,0
		c0-0.1,0.1-0.2,0.1-0.3c0-0.3,0-0.5,0.3-0.7c0.1,0,0.2-0.2,0.2-0.3c0.1-0.3,0.3-0.4,0.5-0.4c0.3,0,0.2-0.2,0.3-0.4
		c0.1,0,0.2,0,0.3,0c0.4-0.3,0.7,0,0.9,0.3c0.3,0.5,0.8,0.5,1.4,0.5c-0.2-0.4,0-0.7,0.1-1c0.1-0.2,0.3-0.4,0.4-0.7
		c0.1-0.5,0.6-0.6,1.1-0.6c0.2,0,0.4,0,0.5-0.1c0.1,0,0.2-0.2,0.2-0.3c0-0.1,0-0.3-0.3-0.3c-0.1,0-0.2-0.1-0.3-0.2
		c0.3-0.1,0.5-0.1,0.7,0.1c0.5,0.3,1.2,0.5,1.8,0.7c0.1,0,0.3-0.1,0.4-0.1c0.4,0,0.8-0.2,1.1,0.3c-0.3,0.3-0.2,0.8-0.8,0.9
		c0.3,0.6-0.3,0.8-0.4,1.4c0.3,0.2,0.5,0.4,0.8,0.6c0.4,0.3,0.7,0.6,1.1,0.8c0.1,0.1,0.2,0.2,0.4,0.2c0.2,0.1,0.4,0.2,0.6,0.4
		c0.1,0.2,0.3,0.3,0.5,0.3c0.3,0.2,0.6,0.1,0.8-0.3c0.4-0.8,0.6-1.6,0.6-2.5c0-0.5,0.2-1,0.1-1.5c0-0.6,0.4-1,0.4-1.6
		c0-0.1,0.1-0.1,0.2-0.3c0.1,0.2,0.2,0.3,0.2,0.4c0.1,0.3,0.2,0.5,0.2,0.8c0.1,0.5,0.3,0.9,0.3,1.4c0,0.2,0.1,0.4,0.1,0.7
		c0.2,0,0.4-0.1,0.5-0.1c0.1,0.1,0.3,0.3,0.4,0.4c0.2,0.1,0.2,0.3,0.2,0.5c0,0.5,0,1.1,0.4,1.5c0.1,0.1,0.1,0.3,0.1,0.5
		c0,0.4,0.1,0.7,0.1,1.1c0,0.1,0.2,0.2,0.3,0.3c0.4,0.3,0.9,0.6,1.3,0.9c0.1,0,0.2,0.1,0.2,0.2c0,0.6,0.6,1.1,0.5,1.7
		c0.3,0.1,0.6,0.1,0.8,0.2c0,0.1,0.1,0.1,0.1,0.2c-0.1,0.4,0.1,0.7,0.3,0.9c0.4,0.4,0.7,0.9,1.1,1.4c0.1,0,0.2-0.1,0.3-0.1
		c0,0,0,0.1,0,0.1c-0.2,0.7-0.3,1.4-0.1,2.2c0.1,0.4,0.1,0.9-0.1,1.3c-0.2,0.5-0.3,1.1-0.5,1.6c-0.2,0.6-0.4,1.3-1,1.6
		c-0.1,0.1-0.2,0.2-0.3,0.4c-0.3,0.5-0.5,1-0.8,1.5c-0.1,0.1-0.1,0.2-0.2,0.3c-0.4,0.5-0.6,1.1-0.7,1.7c-0.1,0.4-0.2,0.6-0.6,0.6
		c-1-0.1-1.6,0.6-2.3,1.1C77.4,89.4,77,89.2,76.7,89C76.7,89,76.8,89,76.7,89c0.1-0.1,0.1-0.2,0.1-0.3c0,0-0.1-0.1-0.1,0
		c0,0.1-0.1,0.1-0.1,0.2C76.6,88.9,76.7,88.9,76.7,89z"/>
	<path class="st1" d="M73.6,62.5c0.1-0.2,0.2-0.3,0.3-0.4c0-0.1,0.1-0.2,0.1-0.3c-0.2-0.5-0.4-1-0.6-1.5c-0.1-0.3-0.4-0.5-0.7-0.6
		c-0.3-0.1-0.6-0.3-0.8-0.3c-0.7-0.1-1.2-0.5-1.9-0.8c-0.1,0.1-0.1,0.2-0.2,0.3c-0.2,0.2-0.4,0.1-0.5-0.1c-0.2-0.6-0.2-0.6-0.7-0.9
		c0.3-0.1,0.5-0.2,0.8-0.2c0,0,0-0.1,0-0.1c-0.1,0-0.2-0.1-0.3-0.1c-0.1,0-0.2,0-0.2-0.1c-0.2-0.4-0.7-0.6-1.1-0.8
		c-0.1,0-0.1-0.2-0.1-0.2c0.4-0.2,0.8-0.4,1.2-0.6c0.2-0.1,0.4,0,0.6,0c0.3,0.1,0.5,0.2,0.9,0.3c0.1,0.3,0.1,0.8,0.2,1.2
		c0.1,0.4,0.4,0.6,0.6,0.9c0,0,0.2,0,0.3,0c0.1-0.1,0.2-0.3,0.3-0.4c0.2-0.2,0.3-0.5,0.6-0.6c0.1,0,0.1-0.1,0.2-0.1
		c0.5-0.6,0.5-0.6,1.2-0.3c0.5,0.2,1,0.5,1.6,0.6c0.3,0,0.6,0.2,0.9,0.4c0.3,0.1,0.5,0.3,0.8,0.4c0.7,0.2,1.4,0.6,2,1.1
		c0.2,0.2,0.3,0.5,0.5,0.9c0.3,0.1,0.6,0.3,1,0.4c0.3,0.1,0.4,0.3,0.4,0.6c-0.2,0-0.4,0.1-0.6,0.1c-0.1,0.4,0.2,0.6,0.4,0.8
		c0.3,0.2,0.5,0.5,0.6,0.8c0.1,0.3,0.2,0.5,0.7,0.3c0,0.3,0,0.5,0.3,0.6c0.1,0,0.2,0.3,0.3,0.4c0.2,0.1,0.4,0.1,0.4,0.5
		c-0.1,0-0.3,0.1-0.3,0c-0.4-0.3-0.9-0.3-1.4-0.4c-0.3-0.1-0.5-0.1-0.7-0.4c-0.3-0.4-0.6-0.8-0.9-1.2c-0.1-0.1-0.3-0.2-0.4-0.4
		c0,0-0.1,0-0.1,0c-1.1-0.3-1.2-0.3-1.7,0.7c-0.2,0.4-0.5,0.5-0.8,0.5c-0.1,0-0.2-0.1-0.3,0c-0.5,0.1-0.9-0.1-1.3-0.6
		c-0.3-0.4-0.5-0.4-1-0.2C73.9,62.4,73.8,62.4,73.6,62.5z"/>
	<path class="st1" d="M97.5,91.3c-0.2,0.8-0.8,1.3-1.4,1.8c-0.1,0.1-0.2,0.3-0.3,0.6c0,0-0.1,0-0.2,0c-0.5,0.1-1,0.3-1.2,0.9
		c-0.3,0.7-0.8,1.1-1.4,1.5c-0.3,0.2-0.7,0.2-1,0c-0.2-0.1-0.4-0.2-0.7-0.2c-0.4,0-0.5-0.2-0.2-0.5c0.5-0.7,1.1-1.2,1.9-1.5
		c0.6-0.3,1.2-0.7,1.8-1c0.2-0.1,0.3-0.3,0.5-0.5c0.1-0.1,0.2-0.3,0.4-0.4c0.2-0.2,0.3-0.4,0.5-0.5c0.1-0.1,0.2-0.3,0.4-0.5
		c0.2,0.2,0.3,0.4,0.4,0.6C97,91.5,97.1,90.9,97.5,91.3z"/>
	<path class="st1" d="M97.8,91.5c0.2-0.3,0.4-0.6,0.7-0.9c-0.3-0.3-0.6-0.5-1-0.8c0.2-0.1,0.3-0.1,0.4-0.2c0.2-0.1,0.4-0.2,0.5-0.4
		c0.2-0.4,0.4-0.8,0.3-1.3c-0.1-0.5-0.3-0.9-0.5-1.4c-0.1-0.2-0.2-0.4,0-0.7c0.6,0.1,0.8,0.2,0.8,0.8c0,0.2,0,0.4,0,0.6
		c0.1,0.2,0.2,0.3,0.3,0.5c0.1-0.2,0.1-0.3,0.1-0.4c0.2,0.1,0.2,0.3,0.2,0.5c0.1,0.6,0.6,0.9,1.1,0.6c0.2-0.1,0.4-0.3,0.6-0.1
		c-0.1,0.5-0.4,0.8-0.7,1.2c-0.1,0.1-0.2,0.1-0.3,0.1c-0.3,0-0.5,0.1-0.5,0.5c0,0.1-0.1,0.3-0.2,0.4c-0.3,0.3-0.6,0.6-0.9,1
		C98.3,91.8,98.2,91.8,97.8,91.5z"/>
	<path class="st1" d="M76.4,91c0.4,0.1,0.8,0.3,1.2,0.3c0.4,0,0.8-0.2,1.2-0.3c0.2,0.8-0.4,1.4-0.5,2c-0.2,0.1-0.3,0.1-0.4,0.2
		c-0.5,0.4-0.9,0.4-1.2-0.2c-0.1-0.1-0.1-0.3-0.2-0.4c-0.1-0.3-0.1-0.6-0.2-0.9C76.2,91.5,76.1,91.2,76.4,91z"/>
	<path class="st1" d="M81.3,59.9c0.1,0,0.2-0.1,0.3-0.1c0.4,0,0.9,0,1.3,0c0.2,0,0.3-0.1,0.4-0.2c0.1-0.1,0.2-0.2,0.4-0.4
		c0-0.1,0-0.3,0-0.5c0.2,0,0.3,0,0.6,0c0,0.2,0,0.4,0,0.6c-0.1,0.1-0.2,0.2-0.2,0.4c0,0-0.1,0.1-0.1,0.2c-0.2,0.1-0.4,0.3-0.6,0.4
		C82.7,60.7,82.1,60.6,81.3,59.9z"/>
	<path class="st1" d="M92.8,72.5c0.4,0.3,0.7,0.5,1,0.8c0.4,0.4,0.8,0.7,1.2,1.1c0,0,0,0,0,0c0,0.1,0.1,0.3,0.1,0.4
		c-0.1,0.2-0.3,0.1-0.4,0c-0.6-0.4-1.2-0.8-1.6-1.4C92.9,73.2,92.7,73,92.8,72.5z"/>
	<path class="st1" d="M96.5,70.2c-0.3-0.3-0.4-0.6-0.7-0.5c0,0,0,0,0,0c-0.2-0.3-0.4-0.7-0.6-1c-0.1-0.2,0-0.5,0-0.8
		c0.4,0.1,0.6,0.3,0.6,0.7c0,0.2,0,0.3,0.1,0.5c0,0.1,0.2,0.1,0.3,0.1c0-0.1,0.1-0.2,0-0.3c-0.1-0.1-0.2-0.1-0.3-0.2
		c0.2-0.2,0.4-0.4,0.6-0.6c0,0.2,0.1,0.3,0.1,0.4c0,0.4,0.1,0.9,0.1,1.3C96.7,69.9,96.6,70,96.5,70.2z"/>
	<path class="st1" d="M105.1,70.7c-0.1,0.2-0.1,0.2-0.2,0.4c-0.1-0.1-0.2-0.2-0.2-0.2c-0.4,0.2-0.8,0.4-1.2,0.6
		c-0.1-0.1-0.1-0.2-0.1-0.3c-0.3-0.2-0.2-0.4,0-0.7c0.2-0.3,0.5-0.3,0.7-0.3C104.4,70.3,104.7,70.5,105.1,70.7z"/>
	<path class="st1" d="M87.6,62.1c0-0.2,0-0.3,0-0.6c0.7,0.2,1.2,0.5,1.5,1.2c-0.5,0.1-0.9,0.2-1.1-0.4C88,62.3,87.8,62.2,87.6,62.1z
		"/>
	<path class="st1" d="M104.1,69.8c0.5-0.3,0.9-0.5,1.5-0.6c0.1,0.3,0.2,0.6,0,0.8c-0.4,0-0.7,0.1-1,0.1c-0.2,0-0.4-0.1-0.5-0.1
		C104.1,69.9,104.1,69.8,104.1,69.8z"/>
	<path class="st1" d="M87.5,61c-0.2,0.2-0.4,0.3-0.6,0.6c0.1-0.6-0.2-1-0.5-1.3c-0.1-0.2-0.1-0.4-0.1-0.7
		C86.7,60.1,87.1,60.5,87.5,61z"/>
	<path class="st1" d="M91.1,63.7c-0.3,0.2-0.6,0.1-0.9,0c-0.1,0-0.2-0.3-0.2-0.4c0.1-0.2,0.3-0.3,0.4-0.4c0,0,0.2,0.1,0.3,0.3
		C90.9,63.3,91,63.5,91.1,63.7z"/>
	<path class="st1" d="M92,63.6c-0.8,0.2-1.2-0.4-1.2-1.4c0.1,0,0.2,0.1,0.3,0.1c0.1,0.1,0.1,0.2,0.2,0.3C91.4,63,91.5,63.4,92,63.6z
		"/>
	<path class="st1" d="M90.3,62.6c-0.6-0.3-1-0.7-1.4-1.1c0.1-0.3,0.3-0.1,0.4-0.1C89.9,61.8,90.2,62.1,90.3,62.6z"/>
	<path class="st1" d="M88.7,61.5c-0.7,0.1-1.1-0.2-1.1-0.8C88.1,60.8,88.3,61.3,88.7,61.5z"/>
	<path class="st1" d="M67,65.3c0-0.3,0.1-0.5,0.4-0.4c0.2,0,0.4,0,0.6,0C67.9,65.5,67.8,65.5,67,65.3z"/>
	<path class="st1" d="M92.2,64.6c-0.6,0-0.6,0-1-0.5C91.7,63.8,92,63.9,92.2,64.6z"/>
	<path class="st1" d="M111.3,66.9c0.5-0.1,0.8,0,1.1,0.5C112,67.5,111.6,67.3,111.3,66.9z"/>
	<path class="st1" d="M100.6,54.2c0-0.3-0.1-0.6-0.1-0.8c0-0.3,0.2-0.3,0.4-0.3c-0.1,0.4-0.1,0.8-0.2,1.2
		C100.7,54.2,100.7,54.2,100.6,54.2z"/>
	<path class="st1" d="M97.2,72.5c-0.2-0.1-0.3-0.1-0.3-0.2c-0.1-0.2-0.1-0.5-0.2-0.7c0-0.1,0.1-0.2,0.2-0.2c0.1,0,0.2,0.1,0.2,0.2
		C97.2,71.8,97.2,72.1,97.2,72.5z"/>
	<path class="st1" d="M71.8,86.7c-0.3,0.2-0.6,0.3-0.9,0.1C71.3,86.5,71.4,86.4,71.8,86.7z"/>
	<path class="st1" d="M95.8,66.9c0.1,0,0.1-0.1,0.1,0c0.1,0,0.2,0.1,0.3,0.1c-0.1,0.2,0,0.6-0.4,0.8C95.8,67.4,95.8,67.1,95.8,66.9z
		"/>
	<path class="st1" d="M95,73.2c0.5-0.1,0.5,0.3,0.6,0.5l0,0C95.1,73.8,95.1,73.8,95,73.2L95,73.2z"/>
	<path class="st1" d="M106.4,70.2c-0.1,0.1-0.2,0.3-0.3,0.4c0.1,0.2,0.2,0.3,0.3,0.5c0,0-0.1,0-0.1,0.1c-0.1-0.1-0.3-0.3-0.4-0.5
		C106,70.5,105.9,70.1,106.4,70.2z"/>
	<path class="st1" d="M133.9,69.7c-0.3,0.1-0.5,0.1-0.7,0.1c-0.1-0.1-0.1-0.3-0.2-0.4C133.4,69.4,133.6,69.4,133.9,69.7z"/>
	<path class="st1" d="M129.3,70.8c-0.4,0.1-0.5-0.1-0.7-0.4C129.1,70.3,129.1,70.3,129.3,70.8z"/>
	<path class="st1" d="M70.1,48.8c0.1-0.3,0.3-0.5,0.4-0.8C70.7,48.4,70.7,48.4,70.1,48.8z"/>
	<path class="st1" d="M90.1,64.9c0.2,0.1,0.5,0.2,0.6,0.5C90.3,65.4,90.2,65.4,90.1,64.9z"/>
	<path class="st1" d="M127.4,69.5c0.2,0.1,0.4,0.2,0.7,0.3c-0.2,0.1-0.4,0.2-0.5,0.2c-0.1-0.2-0.2-0.3-0.2-0.4
		C127.3,69.5,127.4,69.5,127.4,69.5z"/>
	<path class="st1" d="M84.8,59.1c0-0.2,0-0.4-0.1-0.6C85.1,58.6,85.1,58.7,84.8,59.1z"/>
	<path class="st1" d="M71.3,55.8c0.3-0.1,0.5,0,0.7,0.3C71.6,56.3,71.5,55.9,71.3,55.8z"/>
	<path class="st1" d="M72.3,56.6c-0.3,0.3-0.6,0.2-0.8-0.1C71.7,56.6,72,56.6,72.3,56.6z"/>
	<path class="st1" d="M104.2,71.6c-0.1,0.3-0.3,0.4-0.6,0.3C103.8,71.7,103.9,71.6,104.2,71.6z"/>
	<path class="st1" d="M94.7,64c0.2,0.2,0.3,0.3,0.5,0.5c-0.2,0.1-0.3,0.1-0.5,0.2C94.7,64.4,94.7,64.3,94.7,64z"/>
	<path class="st1" d="M137.6,62.9c-0.2,0-0.4,0-0.6,0c0,0-0.1,0-0.1-0.1c0,0,0-0.1,0-0.1c0.2,0,0.4,0,0.7,0
		C137.6,62.8,137.6,62.8,137.6,62.9z"/>
	<path class="st1" d="M135.9,70.5c-0.1,0.3-0.1,0.6-0.2,0.8C135.4,70.9,135.4,70.9,135.9,70.5z"/>
	<path class="st1" d="M96.5,70.2c0,0.3,0.1,0.4,0.1,0.6c-0.1,0-0.3,0-0.3,0C96.1,70.6,96.2,70.4,96.5,70.2z"/>
	<path class="st1" d="M83.3,63.8c-0.2-0.2-0.4-0.4-0.7-0.6C83.2,63.1,83.2,63.5,83.3,63.8z"/>
	<path class="st1" d="M103.1,70.4c0-0.4,0.2-0.6,0.6-0.7C103.6,70,103.5,70.2,103.1,70.4z"/>
	<path class="st1" d="M99,48.5c0.2,0,0.5,0,0.7,0.1C99.5,48.8,99.5,48.8,99,48.5z"/>
	<path class="st1" d="M95.6,73.7c0.1,0,0.2,0.1,0.3,0.1c0.1,0,0.1,0.2,0.1,0.3c0,0-0.1,0.1-0.1,0.1c-0.1,0-0.2-0.1-0.2-0.1
		C95.6,73.9,95.6,73.8,95.6,73.7C95.6,73.7,95.6,73.7,95.6,73.7z"/>
	<path class="st1" d="M130.3,68.1c0.3,0.1,0.6,0.2,0.9,0.3C130.6,68.5,130.6,68.5,130.3,68.1z"/>
	<path class="st1" d="M109,74.1c-0.2-0.2-0.3-0.3-0.5-0.4C108.9,73.5,109,73.5,109,74.1z"/>
	<path class="st1" d="M124.1,53.4c-0.2,0.1-0.3,0-0.4-0.2c0,0,0.1-0.2,0.1-0.2C124,53,124.1,53.2,124.1,53.4z"/>
	<path class="st1" d="M78.6,42.8c-0.1,0.1-0.1,0.3-0.2,0.5c-0.3-0.3-0.1-0.4,0-0.6C78.4,42.8,78.5,42.8,78.6,42.8z"/>
	<path class="st1" d="M138.2,63.6c-0.2,0.1-0.3,0.2-0.4,0.3C137.7,63.4,137.7,63.4,138.2,63.6z"/>
	<path class="st1" d="M97,48.3c0.2-0.1,0.3-0.1,0.5-0.2C97.3,48.5,97.3,48.5,97,48.3z"/>
	<path class="st1" d="M72.1,67.1c0,0.2,0,0.3,0,0.5c-0.1,0-0.2,0-0.2,0C71.8,67.3,71.8,67.2,72.1,67.1z"/>
	<path class="st1" d="M102.3,56.4c-0.1-0.1-0.2-0.2-0.3-0.4c0,0,0.1-0.1,0.1-0.1c0.1,0.1,0.2,0.2,0.4,0.3
		C102.4,56.3,102.3,56.3,102.3,56.4z"/>
	<path class="st1" d="M132.2,69.4c-0.1-0.1-0.2-0.3-0.3-0.4C132.2,69.1,132.2,69.1,132.2,69.4z"/>
	<path class="st1" d="M88.7,48.8c0.1-0.1,0.2-0.1,0.4-0.2c0,0,0.1,0.1,0.1,0.1C89.1,48.9,89,49,88.8,49C88.8,49,88.8,48.9,88.7,48.8
		z"/>
	<path class="st1" d="M95.1,73.2c-0.1,0.1-0.2,0.1-0.3,0.2c0,0-0.1,0-0.1-0.1c0.1-0.1,0.1-0.3,0.2-0.5C94.9,73,95,73.1,95.1,73.2
		C95,73.2,95.1,73.2,95.1,73.2z"/>
	<path class="st1" d="M138.5,74c-0.1-0.1-0.2-0.1-0.4-0.2c0.2,0,0.3,0,0.4,0C138.6,73.8,138.6,73.9,138.5,74
		C138.6,74,138.6,74,138.5,74z"/>
	<path class="st1" d="M95.3,66.4c0,0.2,0.1,0.3,0.1,0.4C95.2,66.7,95.2,66.7,95.3,66.4z"/>
	<path class="st1" d="M83.8,48.3c0.1,0,0.2,0,0.3,0c0,0,0,0.1,0,0.1c-0.1,0.1-0.2,0.1-0.3,0.1C83.8,48.4,83.8,48.4,83.8,48.3z"/>
	<path class="st1" d="M78.7,90.3c0.3,0.2,0.3,0.3,0.3,0.6C78.7,90.7,78.8,90.5,78.7,90.3z"/>
	<path class="st1" d="M84.2,58c-0.1-0.1-0.2-0.2-0.4-0.3c0,0,0,0,0.1-0.1c0.1,0.1,0.3,0.2,0.4,0.3C84.2,57.9,84.2,57.9,84.2,58z"/>
	<path class="st1" d="M131.8,67.7c0.1,0,0.2-0.1,0.4-0.2c0,0.1,0,0.2-0.1,0.2c-0.1,0-0.2,0-0.3,0.1
		C131.9,67.8,131.8,67.7,131.8,67.7z"/>
	<path class="st1" d="M78.8,41.6c0.1-0.1,0.1-0.2,0.2-0.4c0,0,0.1,0,0.1,0.1c-0.1,0.1-0.1,0.3-0.2,0.4
		C78.9,41.7,78.9,41.7,78.8,41.6z"/>
	<path class="st1" d="M91.6,96.2c0.2,0.4,0.1,0.4-0.2,0.4C91.4,96.5,91.5,96.4,91.6,96.2z"/>
	<path class="st1" d="M132.6,67.9c0.1-0.1,0.2-0.2,0.3-0.3c0,0,0.1,0.1,0.1,0.1c-0.1,0.1-0.2,0.2-0.3,0.3
		C132.6,68,132.6,67.9,132.6,67.9z"/>
	<path class="st1" d="M109.6,72.7c0-0.1-0.1-0.2-0.1-0.2c0-0.1,0.1-0.1,0.1-0.2c0,0,0.1,0.1,0.1,0.1
		C109.7,72.4,109.7,72.5,109.6,72.7z"/>
	<path class="st1" d="M79.1,39.3c0,0.1,0,0.2,0,0.3c0,0-0.1,0-0.1,0c0-0.1,0-0.2-0.1-0.3C79,39.3,79,39.3,79.1,39.3z"/>
	<path class="st1" d="M101.1,54.8c0.1-0.1,0.1-0.2,0.3-0.4C101.5,54.7,101.3,54.7,101.1,54.8z"/>
	<path class="st1" d="M131.5,69.3c0-0.1,0-0.2,0-0.4c0.2,0.2,0.2,0.3,0.2,0.4C131.6,69.3,131.6,69.3,131.5,69.3z"/>
	<path class="st1" d="M132.6,69.2c-0.1-0.1-0.1-0.1-0.1-0.1c0-0.1,0.1-0.1,0.1-0.2c0,0,0.1,0.1,0.1,0.1
		C132.7,69,132.7,69.1,132.6,69.2z"/>
	<path class="st1" d="M89.7,63.1c-0.1-0.1-0.1-0.1-0.1-0.2c0,0,0.1-0.1,0.1-0.1c0.1,0,0.1,0.1,0.2,0.1C89.8,63,89.7,63,89.7,63.1z"
		/>
	<path class="st1" d="M95.5,65.1c0,0,0.1,0,0.1,0c0.1,0.1,0.1,0.1,0.2,0.2c0,0-0.1,0.1-0.1,0.1C95.6,65.3,95.5,65.3,95.5,65.1
		C95.5,65.2,95.5,65.1,95.5,65.1L95.5,65.1z"/>
	<path class="st1" d="M78.9,40.4c0-0.1,0.1-0.2,0.1-0.4c0,0,0.1,0,0.1,0c0,0.1-0.1,0.2-0.1,0.4C78.9,40.4,78.9,40.4,78.9,40.4z"/>
	<path class="st1" d="M92.9,50.2c-0.1,0-0.1,0.1-0.2,0.1c0,0-0.1-0.1-0.1-0.1c0,0,0.1-0.1,0.1-0.1C92.8,50.1,92.8,50.2,92.9,50.2z"
		/>
	<path class="st1" d="M106.5,72c-0.1,0-0.1-0.1-0.1-0.1c0,0,0.1-0.1,0.1-0.1c0,0,0.1,0,0.1,0.1C106.5,71.9,106.5,72,106.5,72z"/>
	<path class="st1" d="M102,55.5c0,0.1-0.1,0.1-0.1,0.1c0,0-0.1-0.1-0.1-0.1c0,0,0-0.1,0.1-0.1C101.9,55.5,101.9,55.5,102,55.5z"/>
	<path class="st1" d="M89.8,72.1c0-0.1-0.1-0.1-0.1-0.1c0,0,0-0.1,0.1-0.1c0,0,0.1,0.1,0.1,0.1C89.9,72,89.9,72.1,89.8,72.1z"/>
	<path class="st1" d="M95.4,74.7c0,0.1,0.1,0.2,0.1,0.2c0,0,0,0.1-0.1,0.1c0,0-0.1-0.1-0.1-0.1C95.3,74.9,95.3,74.9,95.4,74.7z"/>
	<path class="st1" d="M100.7,52.2c-0.1,0-0.2,0.1-0.2,0.1c0,0-0.1-0.1-0.1-0.1c0,0,0.1-0.1,0.1-0.1
		C100.6,52.1,100.7,52.1,100.7,52.2z"/>
	<path class="st1" d="M113.4,71.8c-0.2,0.1-0.2,0.1-0.3,0.1c0,0-0.1-0.1-0.1-0.1c0.1,0,0.1-0.1,0.2-0.1
		C113.2,71.7,113.2,71.7,113.4,71.8z"/>
	<path class="st1" d="M80.1,56.7c0.1,0,0.2,0,0.4,0c0,0,0,0.1,0,0.1C80.3,56.8,80.2,56.8,80.1,56.7C80.1,56.8,80.1,56.7,80.1,56.7z"
		/>
	<path class="st1" d="M73.4,46.5c-0.1,0.1-0.2,0.1-0.2,0.1c0,0-0.1-0.1-0.1-0.1c0,0,0.1-0.1,0.1-0.1C73.3,46.3,73.4,46.4,73.4,46.5z
		"/>
	<path class="st1" d="M122.5,51.5c-0.1,0-0.1,0.1-0.2,0.1c-0.1,0-0.1-0.1-0.1-0.2c0,0,0.1-0.1,0.1-0.1
		C122.4,51.4,122.4,51.5,122.5,51.5z"/>
	<path class="st1" d="M78.8,42.3c-0.1,0-0.1,0.1-0.2,0.1c0,0-0.1-0.1-0.1-0.1c0,0,0.1-0.1,0.1-0.1C78.7,42.2,78.7,42.3,78.8,42.3z"
		/>
	<path class="st1" d="M85.2,65.2c-0.1,0-0.1-0.1-0.2-0.1c0,0,0,0,0-0.1C85.1,65.1,85.2,65.1,85.2,65.2
		C85.3,65.2,85.2,65.2,85.2,65.2z"/>
	<path class="st1" d="M137.3,63.2c-0.1,0.1-0.1,0.1-0.1,0.1c0,0-0.1-0.1-0.1-0.1c0,0,0.1-0.1,0.1-0.1
		C137.1,63.2,137.2,63.2,137.3,63.2z"/>
	<path class="st1" d="M110,71.6c-0.1,0-0.1-0.1-0.1-0.1c0,0,0-0.1,0.1-0.1c0,0,0.1,0,0.1,0.1C110.1,71.5,110,71.5,110,71.6z"/>
	<path class="st1" d="M138.3,64.2c-0.1,0-0.1,0.1-0.1,0.1c0,0-0.1-0.1-0.1-0.1c0,0,0.1-0.1,0.1-0.1
		C138.2,64.1,138.2,64.2,138.3,64.2z"/>
	<path class="st1" d="M47.9,64c0.1,0.1,0.1,0.2,0.1,0.2c0,0-0.1,0.1-0.1,0.1c0,0-0.1,0-0.1-0.1C47.8,64.2,47.8,64.2,47.9,64z"/>
	<path class="st1" d="M95.5,65.1c-0.1,0-0.1,0-0.2-0.1c0,0-0.1-0.1-0.1-0.1c0,0,0.1-0.1,0.1-0.1c0,0,0.1,0.1,0.1,0.1
		C95.5,65,95.5,65,95.5,65.1C95.5,65.1,95.5,65.1,95.5,65.1z"/>
	<path d="M76.7,89c0,0-0.1-0.1-0.1-0.1c0-0.1,0.1-0.1,0.1-0.2c0,0,0.1,0,0.1,0C76.8,88.8,76.8,88.9,76.7,89C76.8,89,76.7,89,76.7,89
		C76.7,89,76.7,89,76.7,89z"/>
</g>
</svg>
