<?xml version="1.0" encoding="utf-8"?>
<!-- Generator: Adobe Illustrator 22.1.0, SVG Export Plug-In . SVG Version: 6.00 Build 0)  -->
<svg version="1.1" id="Layer_1" xmlns="http://www.w3.org/2000/svg" xmlns:xlink="http://www.w3.org/1999/xlink" x="0px" y="0px"
	 viewBox="0 0 200 125" style="enable-background:new 0 0 200 125;" xml:space="preserve">
<style type="text/css">
	.st0{fill:#3D98D3;}
	.st1{fill:#FFFFFF;}
	.st2{fill:#354E5C;}
	.st3{fill:#29176F;}
	.st4{fill:#D9261D;}
	.st5{fill:#262626;}
</style>
<rect class="st0" width="200" height="125"/>
<ellipse class="st1" cx="99.3" cy="66.9" rx="66" ry="37.2"/>
<g>
	<path class="st1" d="M124.7,17.7c0.7,0,1.5,0,2.3,0c0.6,1.8,1.2,3.6,1.7,5.4c0,0,0.1,0,0.1,0c0.5-1.8,1.1-3.6,1.6-5.4
		c0.8,0,1.5,0,2.3,0c0,2.7,0,5.3,0,8c-0.5,0-0.9,0-1.5,0c0-1.8,0-3.6,0-5.3c0,0-0.1,0-0.1,0c-0.6,1.8-1.1,3.6-1.8,5.4
		c-0.4,0-0.8,0-1.3,0c-0.6-1.8-1.2-3.6-1.8-5.4c0,0-0.1,0-0.1,0c0,1.8,0,3.5,0,5.3c-0.5,0-1,0-1.4,0
		C124.6,25.3,124.6,18.5,124.7,17.7z"/>
	<path class="st1" d="M49.1,17.6c0.8,0,1.5,0,2.3,0c0.6,1.8,1.2,3.6,1.7,5.4c0,0,0.1,0,0.1,0c0.6-1.8,1.1-3.6,1.7-5.4
		c0.8,0,1.5,0,2.2,0c0.1,0.5,0.2,6.9,0.1,8c-0.5,0-0.9,0-1.5,0c0-0.9,0-1.8,0-2.7c0-0.9,0-1.8,0-2.7c-0.1,0-0.1,0-0.2,0
		c-0.6,1.8-1.2,3.6-1.8,5.4c-0.4,0-0.8,0-1.3,0c-0.6-1.8-1.2-3.6-1.8-5.4c-0.2,0.4-0.2,0.9-0.2,1.3c0,0.4,0,0.9,0,1.3
		c0,0.5,0,0.9,0,1.4c0,0.4,0,0.9,0,1.3c-0.5,0-1,0-1.5,0C49.1,23,49.1,20.4,49.1,17.6z"/>
	<path class="st1" d="M69.8,22.9c0-1.7,0-3.4,0-5.1c0.5-0.2,1-0.1,1.4-0.1c0.1,0.5,0.2,7.3,0,8c-0.5,0-1,0-1.6,0
		c-0.5-0.9-1-1.8-1.5-2.6c-0.5-0.9-1-1.7-1.5-2.6c-0.1,0-0.1,0-0.2,0c0,1.7,0,3.4,0,5.2c-0.5,0-1,0-1.5,0c0-2.7,0-5.3,0-8.1
		c0.5,0,1,0,1.5,0c0.1,0,0.3,0.2,0.4,0.4c0.8,1.4,1.7,2.9,2.5,4.3c0.1,0.2,0.2,0.4,0.3,0.6C69.7,22.9,69.7,22.9,69.8,22.9z"/>
	<path class="st1" d="M84.4,17.6c0.4,0,0.6,0,0.8,0c1.1,0,2.1,0,3.2,0c2.2,0,2.7,2.2,2,3.5c-0.2,0.3-0.5,0.5-0.8,0.8
		c0.5,0.3,0.9,0.8,0.9,1.5c0,0.1,0,0.3,0,0.4c0.1,0.6,0.1,1.2,0.2,1.8c-0.5,0-1,0-1.5,0c-0.1-0.6-0.1-1.1-0.2-1.7
		c0-0.3-0.1-0.6-0.2-0.9c-0.1-0.3-0.4-0.5-0.7-0.6c-0.7,0-1.3,0-2.1,0c0,1,0,2,0,3.1c-0.5,0-1,0-1.6,0c-0.1-0.9,0-1.8,0-2.7
		c0-0.9,0-1.8,0-2.6C84.4,19.5,84.4,18.6,84.4,17.6z M86,19c0,0.8,0,1.5,0,2.3c0.8,0,1.5,0,2.2,0c0.4,0,0.6-0.3,0.7-0.6
		c0.1-0.3,0.1-0.7,0-1c-0.1-0.4-0.3-0.6-0.7-0.6C87.5,19,86.8,19,86,19z"/>
	<path class="st1" d="M144.5,17.6c0.4,0,0.7,0,1,0c1,0,2,0,3.1,0c2.2,0,2.7,2.2,2,3.5c-0.2,0.3-0.5,0.5-0.8,0.8
		c0.8,0.4,0.9,1.3,1,2.1c0,0.5,0.1,1.1,0.2,1.6c-0.5,0-1,0-1.5,0c-0.1-0.6-0.1-1.1-0.2-1.7c0-0.3-0.1-0.6-0.2-0.9
		c-0.1-0.3-0.4-0.5-0.7-0.6c-0.7,0-1.3,0-2.1,0c0,0.5,0,1.1,0,1.6c0,0.5,0,1,0,1.5c-0.5,0-1,0-1.6,0c-0.1-0.9,0-1.8,0-2.7
		c0-0.9,0-1.8,0-2.6C144.5,19.5,144.5,18.6,144.5,17.6z M146.1,19c0,0.8,0,1.5,0,2.3c0.8,0,1.5,0,2.2,0c0.4,0,0.7-0.3,0.7-0.7
		c0-0.2,0.1-0.5,0-0.8c-0.1-0.5-0.3-0.8-0.8-0.8C147.6,19,146.9,19,146.1,19z"/>
	<path class="st1" d="M81.6,21.7c0,0.9-0.2,1.8-0.7,2.6c-1.4,2.3-4.9,2.2-6.1-0.1c-0.9-1.7-0.9-3.4,0-5c0.7-1.2,1.8-1.8,3.1-1.7
		c1.4,0,2.4,0.6,3.1,1.8C81.4,20,81.6,20.8,81.6,21.7z M75.7,21.6c0.1,0.5,0.2,1.1,0.4,1.6c0.3,0.8,0.9,1.2,1.8,1.2
		c0.9,0,1.4-0.4,1.8-1.2c0.5-1.1,0.4-2.2,0-3.3c-0.3-0.7-0.9-1.1-1.7-1.2c-0.9,0-1.5,0.4-1.8,1.2C75.9,20.5,75.8,21.1,75.7,21.6z"/>
	<path class="st1" d="M108,25.7c-0.3,0-0.6,0-0.9,0c-0.2,0-0.4,0-0.6,0c-0.1-0.6,0-1.2,0-1.7c0-0.6,0-1.1,0-1.7
		c-0.5-0.1-2.4-0.2-3.1,0c0,1.1,0,2.2,0,3.4c-0.6,0-1,0-1.6,0c0-2.7,0-5.3,0-8c0.5,0,1,0,1.6,0c0,1,0,2,0,3c1.1,0.1,2.1,0,3.2,0
		c0-1,0-2,0-3.1c0.6,0,1,0,1.5,0C108.1,18.1,108.1,24.9,108,25.7z"/>
	<path class="st1" d="M31.7,17.7c1.8,0,3.6,0,5.5,0c0.1,0.4,0.1,0.9,0,1.4c-1.3,0-2.6,0-3.9,0c0,0.6,0,1.2,0,1.8c1.2,0,2.4,0,3.6,0
		c0,0.5,0,0.9,0,1.3c-1.2,0.1-2.4,0-3.6,0c0,0.7,0,1.3,0,2.1c0.7,0,1.3,0,2,0c0.7,0,1.3,0,2,0c0,0.5,0,0.9,0,1.4c-1.9,0-3.7,0-5.6,0
		C31.6,25.3,31.6,18.5,31.7,17.7z"/>
	<path class="st1" d="M137.6,19.1c0,0.6,0,1.1,0,1.7c1.2,0,2.4,0,3.6,0c0.2,0.5,0.1,0.9,0,1.4c-1.2,0-2.4,0-3.6,0c0,0.7,0,1.4,0,2.1
		c1.4,0,2.7,0,4,0c0,0.5,0,0.9,0,1.4c-1.9,0-3.8,0-5.7,0c0-2.7,0-5.3,0-8c0.4-0.1,4.9-0.2,5.6,0c0,0.4,0,0.9,0,1.4
		C140.2,19.1,138.9,19.1,137.6,19.1z"/>
	<path class="st1" d="M163.7,22.7c0.5,0,1,0,1.5,0c0,2-1.6,3.5-3.6,3.3c-1.5-0.2-2.6-1-3.1-2.4c-0.5-1.3-0.4-2.6,0.1-3.9
		c0.8-2,3.2-2.8,5-1.8c0.9,0.5,1.4,1.3,1.5,2.4c-0.5,0-1,0-1.5,0c0-0.1-0.1-0.2-0.2-0.3c-0.3-0.6-0.7-1-1.5-1.1
		c-0.8-0.1-1.4,0.2-1.8,0.9c-0.7,1.2-0.7,2.5,0,3.8c0.4,0.7,1.1,1,1.9,0.9c0.8-0.1,1.2-0.6,1.4-1.2C163.6,23,163.6,22.8,163.7,22.7z
		"/>
	<path class="st1" d="M120.1,23.9c-1,0-1.9,0-2.9,0c-0.2,0.6-0.4,1.2-0.6,1.8c-0.5,0-1,0-1.6,0c0.4-1.4,0.9-2.7,1.4-4.1
		c0.5-1.3,0.9-2.7,1.4-4c0.6,0,1.1,0,1.7,0c0.9,2.7,1.9,5.3,2.8,8.1c-0.6,0-1.1,0-1.7,0C120.5,25.1,120.3,24.5,120.1,23.9z
		 M117.6,22.6c0.7,0,1.3,0.1,2-0.1c-0.3-1-0.6-1.9-0.9-2.8c0,0-0.1,0-0.1,0C118.2,20.7,117.9,21.6,117.6,22.6z"/>
	<path class="st1" d="M46.7,25.7c-0.6,0-1.1,0-1.7,0c-0.2-0.6-0.4-1.2-0.6-1.8c-1,0-1.9,0-2.9,0c-0.2,0.6-0.4,1.2-0.6,1.8
		c-0.5,0-1,0-1.6,0c1-2.7,1.9-5.4,2.8-8c0.6,0,1.1,0,1.7,0C44.8,20.3,45.8,23,46.7,25.7z M44,22.6c-0.3-1-0.6-1.9-0.9-2.8
		c-0.1,0-0.1,0-0.2,0c-0.3,0.9-0.6,1.9-0.9,2.8C42.7,22.6,43.3,22.6,44,22.6z"/>
	<path class="st1" d="M167.3,25.7c1-2.7,1.9-5.4,2.8-8c0.6,0,1.1,0,1.7,0c0.9,2.7,1.9,5.3,2.8,8c-0.6,0-1.1,0-1.7,0
		c-0.2-0.6-0.4-1.2-0.6-1.8c-1,0-1.9,0-2.9,0c-0.2,0.6-0.4,1.2-0.6,1.8C168.4,25.7,167.9,25.7,167.3,25.7z M171.9,22.6
		c-0.3-1-0.6-1.9-0.9-2.8c-0.1,0-0.1,0-0.2,0c-0.3,0.9-0.6,1.9-0.9,2.8C170.6,22.6,171.2,22.6,171.9,22.6z"/>
	<path class="st1" d="M26.8,19.1c0,2.3,0,4.4,0,6.6c-0.5,0-1,0-1.6,0c0-2.2,0-4.3,0-6.6c-0.8,0-1.5,0-2.2,0c0-0.5,0-0.9,0-1.4
		c0.4-0.1,5.5-0.2,6.1,0c0,0.4,0,0.9,0,1.4C28.3,19.1,27.6,19.1,26.8,19.1z"/>
	<path class="st1" d="M96.8,19.1c0,2.2,0,4.4,0,6.6c-0.6,0-1.1,0-1.6,0c0-2.2,0-4.4,0-6.6c-0.8,0-1.5,0-2.2,0c0-0.5,0-0.9,0-1.4
		c2,0,4,0,6.1,0c0,0.5,0,0.9,0,1.4C98.3,19.1,97.6,19.1,96.8,19.1z"/>
	<path class="st1" d="M153.8,17.7c0.5,0,1,0,1.5,0c0.1,0.5,0.2,7.4,0,8c-0.5,0-1,0-1.5,0C153.8,23,153.8,20.4,153.8,17.7z"/>
</g>
<g>
	<path class="st2" d="M108.1,67.8C108.1,67.8,108.1,67.8,108.1,67.8C108.1,67.8,108.1,67.8,108.1,67.8L108.1,67.8z M100.6,44.5
		L100.6,44.5L100.6,44.5C100.6,44.5,100.6,44.5,100.6,44.5L100.6,44.5C100.6,44.5,100.6,44.5,100.6,44.5z"/>
	<path class="st2" d="M164.4,60.9c-1-3.6-2.9-6.8-5.3-9.7c-2.7-3.2-5.8-5.9-9.3-8.2C144.6,39.5,139,37,133,35
		c-7.2-2.4-14.5-3.9-22.1-4.7c-3.9-0.4-7.8-0.6-11.7-0.6c-0.5,0-1,0-1.4,0c-3.5,0-6.9,0.2-10.4,0.6c-3.6,0.4-7.3,0.9-10.8,1.7
		c-6.2,1.3-12.2,3.1-18,5.7c-4.9,2.2-9.5,4.8-13.7,8.2c-3.1,2.5-5.8,5.4-8,8.8c-2,3.1-3.3,6.5-3.6,10.2c-0.3,3.4,0.1,6.7,1.4,10
		c1.4,3.6,3.5,6.8,6.2,9.6c3,3.2,6.4,5.8,10.2,8c5.6,3.3,11.5,5.8,17.7,7.6c5.8,1.7,11.7,2.8,17.7,3.5c3.3,0.4,6.7,0.6,10,0.7
		c2.6,0,5.2,0,7.9-0.1c2.8-0.1,5.6-0.3,8.4-0.6c3.7-0.4,7.4-1,11.1-1.9c6.8-1.6,13.4-3.8,19.7-6.9c4.3-2.2,8.4-4.8,12-8.1
		c3.1-2.8,5.7-5.9,7.5-9.7C165.4,71.7,166,66.4,164.4,60.9z M61.4,82.8c0,0.1,0.1,0.1,0.1,0.2c0,0-0.1,0.1-0.1,0.1
		c-0.1-0.1-0.1-0.1-0.2-0.2C61.4,82.8,61.4,82.8,61.4,82.8z M60,81.1C60,81.1,59.9,81,59.9,81c0,0,0.1-0.1,0.1-0.1
		c0,0,0.1,0.1,0.1,0.1C60.1,81,60.1,81.1,60,81.1z M60.7,82c0-0.1-0.1-0.1-0.1-0.2c0,0,0-0.1,0-0.1c0.1,0,0.1,0,0.2,0.1
		C60.8,82,60.8,82,60.7,82z M61.9,84.3h-0.7c0-0.3,0.1-0.6,0.4-0.8C61.8,83.7,61.9,84,61.9,84.3z M64.8,57c-0.1,0-0.2-0.1-0.3-0.1
		c0,0,0-0.1,0-0.1C64.6,56.8,64.7,56.9,64.8,57C64.8,56.9,64.8,57,64.8,57z M68.4,58.5C68.4,58.4,68.4,58.4,68.4,58.5
		c0.1-0.1,0.2-0.1,0.3-0.2c0,0,0,0.1,0,0.1C68.6,58.4,68.5,58.5,68.4,58.5z M121.5,39c0.2,0.1,0.3,0.1,0.4,0.2
		c-0.1,0.1-0.1,0.2-0.1,0.2C121.5,39.4,121.5,39.3,121.5,39z M100.6,40.3c0-0.1,0.1-0.2,0.1-0.2c0.3-0.1,0.1-0.3,0.2-0.5
		c0.3,0,0.4,0.2,0.5,0.4c0.1,0.4,0.4,0.7,0.8,0.8c0.4,0.1,0.2,0.5,0.5,0.6c0-0.1,0-0.3,0.1-0.5c0.3,0,0.6,0.1,0.8,0.1
		c0-0.1,0-0.2,0-0.3c0.4-0.2,0.7-0.4,0.8-0.9c-0.1,0.1-0.2,0.1-0.3,0.2c-0.3,0.4-0.8,0.4-1.2,0.5c-0.2,0.1-0.6-0.1-0.8-0.2
		c-0.2-0.1-0.4-0.4-0.5-0.7c0-0.2-0.2-0.4-0.4-0.6c0.3-0.6,1.1-0.6,1.3-1.3c0.2,0.1,0.3,0.1,0.5,0.2c0,0,0.1-0.1,0.1-0.1
		c0-0.4,0.1-0.6,0.4-0.9c0.1-0.1,0.2-0.2,0.2-0.2c0.2,0,0.3,0,0.4-0.2c0.1-0.1,0.2-0.1,0.3-0.1c0.1,0,0.2,0,0.3,0
		c0.4-0.5,1-0.2,1.5-0.2c0.5-0.1,0.8,0.3,1.2,0.4c0.1,0,0.2,0.3,0.1,0.4c-0.1,0.3-0.2,0.6-0.4,0.9c-0.1,0.1-0.2,0.3-0.3,0.5
		c0.1,0,0.3-0.1,0.5-0.1c-0.1,0.3-0.2,0.6-0.3,0.8c-0.2,0.6-0.4,1.2-0.5,1.8c-0.1,0.4-0.4,0.6-0.7,0.9c-0.1,0.1-0.3,0.2-0.4,0.3
		c0.2,0.1,0.3,0.1,0.5,0.2c-0.2,0.1-0.3,0.1-0.4,0.2c0.2,0.1,0.3,0.2,0.5,0.3c-0.3,0.4,0.1,1-0.6,1.2c0,0.3,0.1,0.5-0.1,0.8
		c-0.2,0.1-0.1,0.4,0.1,0.4c0.4,0.1,0.3,0.3,0.2,0.5c-0.1,0.2-0.3,0.4-0.5,0.6c-0.1-0.1-0.2-0.2-0.3-0.3c-0.8,0.2-1.5,0.5-2.4,0.3
		c0,0.1,0.1,0.2,0.1,0.3c-0.3,0.3,0.1,0.6,0.2,0.7c0.3,0.1,0.7,0.2,1,0c0.2-0.2,0.5-0.3,0.8-0.4c0.6-0.2,1.1,0.3,1,0.9
		c0,0.3-0.4,0.6-0.7,0.6c-0.2,0-0.4,0-0.6,0.1c-0.8,0.2-1.5,0.2-2.4,0c0-0.3-0.1-0.7-0.1-1c-0.1-0.3-0.2-0.5-0.2-0.8
		c-0.5,0.1-0.9,0-1-0.4c0-0.1-0.1-0.3,0-0.4c0.1-0.1,0.3-0.1,0.4-0.1c0.3,0.1,0.5,0.2,0.8,0.4c0.5,0,0.8-0.5,1.3-0.8
		c-0.1-0.2-0.2-0.5-0.3-0.7c0.3-0.3,0.5,0,0.8,0.1c0-0.2-0.1-0.4-0.1-0.6c-0.2,0-0.3-0.1-0.6-0.1c0-0.1,0-0.1,0-0.2
		c0-0.1,0-0.3,0.1-0.4c0,0,0-0.1,0-0.1c0,0,0,0,0,0c0,0,0,0,0,0c-0.1,0.2-0.3,0.4-0.5,0.7c-0.9,0.3-0.8,0.3-1.4-0.9
		c0.1-0.1,0.2-0.3,0.4-0.5c-0.3,0-0.5,0-0.7,0C100.1,41.8,100.5,41.1,100.6,40.3z M98.3,46.1c0,0,0.1,0,0.1-0.1
		c0.2,0.2,0.3,0.4,0.5,0.7c0-0.1,0.1-0.3,0.1-0.4c0.1,0.1,0.2,0.2,0.4,0.3c-0.1-0.2-0.1-0.3-0.2-0.6c0.2,0,0.2,0.1,0.3,0.1
		c0.7,0.2,0.7,0.2,0.7,0.9c0,0.2,0,0.4,0,0.5c-0.1,0.6-0.1,0.6-0.8,0.5c0-0.2,0-0.4-0.1-0.7c-0.1,0-0.3,0-0.5,0
		C98.5,46.9,98.2,46.6,98.3,46.1z M98.4,47.8c-0.1,0-0.1,0-0.2,0c0-0.1,0-0.2,0-0.3c0.1,0,0.1,0,0.2,0
		C98.4,47.6,98.4,47.7,98.4,47.8z M98.9,44.6c0,0,0.1-0.1,0.1-0.1c0.1,0,0.1,0.1,0.2,0.1c0,0-0.1,0.1-0.2,0.1
		C99,44.7,98.9,44.6,98.9,44.6z M98.8,50.2c0.1,0.1,0.2,0.1,0.2,0.2c0.1,0,0.1,0.1,0.2,0.2c0.3-0.4,0-0.6-0.2-0.8
		c0.1-0.7,0.7-0.5,1-0.7c0.4,0.5,0.4,0.5,0.1,1.1c0,0,0,0,0,0c0.1,0,0.2,0,0.3,0c0.3,1,0.3,1.1-0.6,1.9c0-0.1-0.1-0.2-0.1-0.3
		c-0.2-0.3-0.4-0.6-0.7-0.9C98.7,50.8,98.7,50.5,98.8,50.2z M100.6,47.8c0-0.2-0.1-0.3-0.1-0.5c0.2,0,0.6-0.1,0.7,0
		c0.2,0.2,0.2,0.5,0.3,0.7c0,0.1-0.1,0.3-0.2,0.3C101,48.4,100.6,48.1,100.6,47.8z M102,44.7c0.1,0,0.1,0,0.1,0
		c0.1,0.1,0.1,0.2,0.2,0.4c-0.1,0-0.1,0.1-0.2,0.1C101.9,45.1,101.9,44.9,102,44.7z M100,43.3c0.8,0.1,1,0.6,0.6,1.2v0c0,0,0,0,0,0
		v0l0,0c0,0,0,0,0,0c0.2,0,0.4,0.1,0.7,0.1c-0.1,0.4-0.1,0.4-0.7,0.3c0-0.1,0-0.1,0-0.2c0,0,0-0.1,0-0.1c0,0,0-0.1,0-0.1v0
		c0,0,0,0,0,0c0,0,0,0,0,0h0c0,0,0,0,0,0c0,0,0,0,0,0c0,0,0,0,0,0c0,0-0.1,0-0.1,0c0,0,0,0,0,0c0,0,0,0-0.1,0c0,0,0,0,0,0
		c0,0,0,0,0,0C100.2,44.1,99.9,43.8,100,43.3z M99.6,41.5l0.2-0.1c0,0.1,0.1,0.3,0.2,0.5C99.6,41.9,99.5,41.8,99.6,41.5z M98.7,42.6
		c0.2,0.1,0.4,0.3,0.6,0.5c0.4,0.3,0.4,0.8,0.5,1.2c0,0.1-0.1,0.2-0.1,0.2c-0.1,0-0.2,0-0.2-0.1C99.3,44,99,44,98.7,44
		c-0.2,0-0.3-0.1-0.5-0.2c0.2-0.2,0.3-0.2,0.4-0.3c-0.1-0.1-0.1-0.3-0.2-0.4c-0.1-0.1-0.1-0.2-0.2-0.3
		C98.2,42.5,98.5,42.5,98.7,42.6z M98.1,44.8c0.1,0.2,0.2,0.3,0.2,0.5C97.9,45.2,98,45,98.1,44.8z M96.8,43.2
		c0.1,0.2,0.2,0.3,0.3,0.5c0,0-0.1,0.1-0.1,0.1c-0.3,0-0.6-0.1-0.9-0.1c0,0,0-0.1,0-0.1C96.3,43.5,96.6,43.4,96.8,43.2z M96.9,44.1
		c0,0.2-0.1,0.3-0.1,0.5c0,0.3-0.2,0.3-0.4,0.4c-0.2,0.1-0.3-0.1-0.4-0.2c-0.1-0.2-0.3-0.4-0.4-0.5C96.1,44.2,96.5,44.1,96.9,44.1z
		 M95.5,46.1c0.3,0.3,0.6,0.6,0.8,1.1c0.2,0,0.4,0,0.6,0.1c-0.1-0.4-0.2-0.7-0.2-1c0.1-0.1,0.2-0.3,0.4-0.5c0.1,0.3,0.1,0.6,0.1,0.8
		c0,0.2,0.1,0.4,0.4,0.3c0.1,0,0.2,0.1,0.3,0.1c0.2,0.4-0.2,1.1-0.7,1.1c-0.4,0-0.7,0.1-1.1,0.3c-0.5,0.3-0.7,0.3-1-0.2
		c0.2-0.1,0.5-0.2,0.7-0.3c-1.5-0.2-1.3-0.2-1.5-0.5c0.2-0.2,0.2-0.4,0.4-0.6c0.1-0.2,0.2-0.4,0.3-0.5
		C95.2,45.9,95.3,45.9,95.5,46.1z M93.9,46.8c0.1-0.3,0.2-0.4,0.5-0.5C94.3,46.8,94.3,46.8,93.9,46.8z M93.3,45.7
		c0.2-0.1,0.4-0.2,0.5-0.4c0.6-0.5,0.6-0.5,1.2-0.7c0.2,0,0.4,0.1,0.3,0.2c-0.2,0.4-0.1,0.9-0.7,1.2c0-0.1-0.1-0.2-0.1-0.3
		c-0.2,0.2-0.4,0.5-0.6,0.8c-0.3-0.1-0.5-0.2-0.9-0.4C93.1,45.9,93.2,45.8,93.3,45.7z M91.6,49.5c0.2-0.5,0.7-0.9,0.4-1.6
		c0.5,0,1-0.2,1.3,0.2c0.1,0.1,0.2,0.2,0.3,0.2c0.7-0.1,0.8,0.5,1,0.9c-0.2,0.2-0.3,0.4-0.5,0.5c0,0,0,0,0,0h0c0,0,0,0,0,0
		c0,0,0,0,0,0c0.3-0.1,0.5-0.2,0.9-0.3c0,0.3,0,0.5,0,0.7c0.4-0.3,0.5-0.2,1,0.3c0.1-0.2,0.1-0.3,0.2-0.4c0.6,0.2,0.4,0.9,0.7,1.3
		c0,0,0.1,0,0.1,0c0-0.5-0.1-1-0.1-1.5c0.2,0,0.3,0,0.5-0.1c0-0.1,0-0.3,0.1-0.3c0.1-0.1,0.3-0.1,0.5-0.1c0.1,0,0.2,0.3,0.1,0.4
		c-0.3,0.6-0.2,1.2,0,1.9c0,0.1,0,0.2,0,0.4c0,0.3,0.1,0.5,0.3,0.7c0.2,0.1,0.4,0.3,0.6,0.4c0.3,0.2,0.3,0.4,0.2,0.6
		c-0.1,0-0.3,0-0.4-0.1c0.1,0.2,0.2,0.4,0.2,0.6c-0.6,0.4-0.9,0.4-1.7-0.3c-0.6,0.6-1.4,0.8-2.2,0.6c-0.1,0-0.2-0.2-0.3-0.3
		c-0.1-0.1-0.1-0.3-0.1-0.4c-0.9-0.3-0.9-0.3-1.1-1c0.2-0.2,0.5-0.2,0.8-0.2s0.6,0.1,1,0.1c-0.2-0.4-0.4-0.5-0.7-0.5
		c-0.2,0-0.4,0-0.5,0c-0.4,0-0.6-0.2-0.8-0.6c0.2-0.1,0.4-0.2,0.7-0.3c-0.4,0-0.6-0.2-0.8-0.6c0,0,0,0,0.1-0.1c0,0,0,0,0,0
		c0,0,0,0,0-0.1c0-0.1,0.1-0.1,0.1-0.2c0,0,0-0.1,0.1-0.1c0,0,0-0.1,0.1-0.1c0-0.1,0.1-0.1,0.1-0.2c0,0,0,0,0-0.1c0,0,0,0,0,0
		c0,0,0,0,0,0c0,0,0,0,0,0c0,0,0,0,0,0c0,0,0,0,0,0c0,0,0,0,0,0c0,0,0.1-0.1,0.1-0.1c0,0,0,0,0.1,0c0,0,0,0,0,0c0,0,0,0,0,0
		c0,0,0,0-0.1,0c0,0-0.1,0-0.1,0c0,0-0.1,0-0.1,0c0,0,0,0,0,0c0,0,0,0-0.1,0c0,0,0,0,0,0c0,0-0.1,0-0.1,0c-0.1,0-0.1,0.1-0.2,0.1
		c0,0,0,0-0.1,0c0,0,0,0-0.1,0c-0.1,0.1-0.2,0.1-0.2,0.2c0,0,0,0-0.1,0.1c0,0,0,0-0.1,0.1c0,0,0,0.1-0.1,0.1
		c-0.1,0.1-0.1,0.2-0.2,0.3c-0.2,0.3-0.2,0.5-0.6,0.5c-0.1,0-0.3,0.1-0.4,0.2c-0.2-0.4-0.4-0.8-0.7-1.2C91.3,50,91.4,49.8,91.6,49.5
		z M73.2,51.4c-0.1,0-0.2,0-0.3,0c-0.2-0.3-0.3-0.6-0.5-0.9C72.9,50.6,73.1,50.9,73.2,51.4z M72.7,54.1c0.1,0,0.1,0.2,0.2,0.3
		c0,0-0.1,0.2-0.1,0.2c-0.1,0-0.2,0-0.3-0.1c-0.1-0.1-0.1-0.2-0.2-0.4C72.4,54,72.6,54,72.7,54.1z M69.1,58.7
		c0.2-0.4,0.2-0.4,0.9-0.2C69.7,58.6,69.4,58.7,69.1,58.7z M76.9,58.9c-0.1,0.6-0.6,0.5-1.1,0.6c0-0.2,0-0.4-0.1-0.6
		c1.3-0.4,1.3-0.4,1.5-0.2C77.1,58.8,76.9,58.9,76.9,58.9z M84.3,66.6c-0.4-0.4-0.4-0.8-0.4-1.4c0.2,0.1,0.4,0.1,0.5,0.2
		C84.4,65.9,84.4,66.3,84.3,66.6z M116.5,101.4c-0.1-0.2-0.3-0.4-0.3-0.5c-0.1-0.3-0.3-0.4-0.5-0.5c-0.2-0.1-0.4,0-0.5,0.1
		c-0.1,0.2-0.3,0.4-0.4,0.6c0.1,0.1,0.2,0.2,0.3,0.4c-0.1,0.1-0.3,0.2-0.4,0.4c-0.6-0.6-1.5-0.6-2.2-0.6c-0.2-0.5-0.7-0.8-1.2-0.7
		c-0.4,0-0.6-0.2-0.6-0.5c0-0.3-0.1-0.5-0.4-0.7c-0.3-0.2-0.6-0.5-0.9-0.7c-0.1-0.1-0.2-0.3-0.2-0.3c-0.4,0-0.8-0.1-1.2-0.1
		c-0.5-0.1-1-0.1-1.5-0.3c-0.4-0.1-0.7-0.4-1-0.6c-0.3-0.2-0.6-0.5-0.9-0.7c-0.4-0.3-0.9-0.4-1.3,0c-0.6,0.4-1.2,0.2-1.8,0
		c-0.6-0.2-1.2-0.5-1.8-0.7c-0.3-0.1-0.6-0.3-0.9-0.5c-0.1,0-0.1-0.1-0.2-0.1c-0.8,0-1.3-0.7-1.9-1c-0.2-0.1-0.4-0.4-0.6-0.6
		c-0.1-0.1-0.1-0.3,0-0.5c0.2-0.3,0.1-0.6,0-0.9c-0.3-0.8-0.8-1.4-1.4-2c-0.3-0.3-0.6-0.7-1-1c-0.1-0.1-0.1-0.4-0.1-0.6
		c-0.4-0.5-0.9-1.1-1.3-1.6c-0.1-0.2-0.3-0.3-0.5-0.5c0.1-0.4-0.1-0.7-0.2-1.1c-0.2-0.7-0.2-0.7-1-1c-0.3,0.8-0.1,1.4,0.7,1.8
		c0,0.1-0.1,0.2-0.1,0.3c0.3,0.5,0.5,1.1,0.8,1.6c0.1,0.2,0.2,0.5,0.3,0.7c0.1,0.4,0.2,0.8,0.3,1.2c0.2,0.3,0.4,0.4,0.6,0.7
		c0.2,0.3,0.2,0.3-0.3,0.5c-0.2-0.5-0.6-0.9-1-1.2c-0.2-0.1-0.4-0.3-0.3-0.5c0.3-0.7-0.2-1-0.7-1.4c-0.3-0.2-0.6-0.5-0.8-0.7
		c0.2-0.2,0.5-0.3,0.5-0.5c0.1-0.1-0.1-0.4-0.2-0.5c-0.9-0.8-0.9-2-1.3-3.1c-0.1-0.3-0.2-0.5-0.4-0.7c-0.4-0.3-0.9-0.6-1.3-1
		c-0.1-0.3-0.3-0.6-0.4-1c-0.1-0.3-0.2-0.5-0.2-0.8c-0.1-0.5-0.3-1-0.5-1.4c-0.1-0.3-0.1-0.5-0.2-0.8c-0.2-0.5-0.1-1,0.1-1.5
		c-0.1-0.8,0.2-1.5,0.5-2.2c0.3-0.9,0.5-1.7,0.4-2.6c0-0.1,0-0.1,0-0.1c0,0,0,0,0,0c0,0,0,0,0,0c0,0,0,0,0,0c0,0,0,0,0,0
		c0,0,0,0,0,0c0,0,0,0,0,0c0,0,0,0,0,0c0,0,0,0,0.1,0l0,0c-0.2-0.2-0.3-0.4-0.5-0.6c-0.4-0.5-0.7-1-1.1-1.6c0.3-0.2,0.4-0.3,0.4-0.7
		c-0.1-0.5-0.3-1-0.6-1.5c-0.2-0.3-0.3-0.5-0.1-0.9c0.2-0.4-0.1-0.8-0.6-0.7c-0.3,0-0.6-0.3-0.5-0.7c0-0.1,0.1-0.3,0.1-0.4
		c0-0.1,0.1-0.2,0.1-0.3c-0.1,0.1-0.2,0.1-0.3,0.2c0.1-0.3,0.1-0.5,0.1-0.8c0,0,0,0-0.1,0c-0.1,0.2-0.2,0.3-0.3,0.6
		c-0.1-0.4-0.2-0.8-0.2-1.1c-0.1-0.7-0.4-1.3-0.8-1.9c-0.1-0.2-0.2-0.3-0.2-0.5c-0.7-0.6-1.6-1-2.3-1.7c0-0.1,0-0.2-0.1-0.3
		c-0.1-0.1-0.3-0.1-0.4-0.2c0,0.3-0.1,0.5-0.1,0.8c-0.4-0.4-0.9-0.4-1.4-0.2c-0.2,0.1-0.4,0-0.6,0c0.5-1.1,0.8-1.2,1.4-1.3
		c-0.2-0.1-0.3-0.2-0.4-0.2c-0.2,0-0.4,0.1-0.6,0.2c-0.4,0.2-0.8,0.5-1.3,0.7c0,0.1,0,0.2,0.1,0.4c-0.4,0.1-0.7,0.2-1.1,0.3
		c-0.7,0.2-1.4,0.3-2,0.5c-0.2,0.1-0.4,0-0.6,0c-0.2,0-0.4,0-0.7,0c-0.1-0.2-0.2-0.2-0.5-0.2c-0.5,0-0.9-0.1-1.5-0.2
		c0.2-0.3,0.4-0.2,0.6-0.2c0.2,0,0.5,0.1,0.7,0c0.3-0.1,0.6-0.1,0.9,0c0,0,0.1,0,0.1,0c0.6-0.2,1.2-0.3,1.8-0.5
		c0.3-0.1,0.4-0.4,0.7-0.7c-0.2-0.1-0.5-0.1-0.7-0.2c0,0-0.1,0-0.1-0.1c0-0.6-0.5-0.6-1-0.6c0.2-0.4,0.3-0.7,0.5-1.1
		c-0.1-0.1-0.2-0.1-0.3-0.1c-0.5-0.1-0.7-0.6-0.5-1.1c0.1-0.1,0.1-0.3,0.1-0.4c0-0.3,0.1-0.5,0.4-0.7c0.3-0.1,0.5-0.3,0.8-0.4
		c0.1,0,0.3,0,0.4,0.1c0.1,0.2,0.3,0.2,0.5,0.2c0.1,0,0.3,0,0.4,0c0.3,0.1,0.4,0,0.5-0.3c0.1-0.2,0.2-0.4,0.3-0.6c0,0,0,0,0,0
		c-0.6,0-0.9-0.3-1.4-0.6c-0.2-0.1-0.4-0.4-0.3-0.5c0.1-0.4,0.1-0.7-0.1-1.1c0.6-0.1,1.2-0.1,1.8,0.1c-0.1,0.2-0.1,0.3-0.2,0.4
		c0.1,0.1,0.2,0.2,0.4,0.3c0.1,0.1,0.2,0.1,0.3,0c0.1,0,0.1-0.2,0.1-0.3c-0.2-0.6-0.1-1.3-0.3-2c0-0.1-0.1-0.3-0.1-0.4
		c0.1-0.1,0.2-0.2,0.4-0.3c0.2,0.1,0.3,0.1,0.4,0.2c0.3,0.1,0.5,0.1,0.7-0.1c0.3-0.4,0.7-0.6,1.2-0.4c0.1,0,0.3-0.1,0.4-0.1
		c0.1,0,0.3,0,0.4,0c0.3,0.2,0.6,0.1,0.9-0.1c0.2,0.2,0.4,0.3,0.4,0.6c0.1,0.2,0.2,0.3,0.3,0.4c0.2,0.1,0.3,0.1,0.3,0.3
		c0,0.3,0.1,0.4,0.4,0.5c0.3,0.1,0.6,0.3,0.8,0.6c0.3,0.3,0.7,0.7,1.2,0.8c0,0,0.1,0,0.1,0c0.3,0.5,0.9,0.8,1.3,1.3
		c0.2,0.3,0.3,0.6,0.6,0.7c0.2-0.1,0.4-0.3,0.6-0.3c0.2-0.1,0.5-0.1,0.6,0.2c0.5-0.1,1-0.5,1.6-0.3c-0.1,0.1-0.2,0.2-0.3,0.3
		c0,0,0,0,0.1,0.1c0.4,0,0.7-0.1,0.8-0.6c0.1,0.2,0.1,0.4,0.2,0.6c0.1,0.2,0.1,0.4,0.2,0.7c0.2-0.3,0.4-0.5,0.6-0.8v0.9
		c0.1,0,0.2,0,0.3-0.1c0.3-0.3,0.5-0.2,0.9,0c0.3,0.3,0.6,0.6,1,0.8c0.1,0.1,0.3,0.1,0.5,0.2c0.4,0,0.6,0.3,0.8,0.7
		c-0.2,0.1-0.3,0.2-0.5,0.4c0.6,0.5,1.2,0.4,1.8,0.2c0.2,0.2,0.4,0.3,0.7,0.5c0.2-0.2,0.3-0.4,0.1-0.6c-0.2-0.2,0-0.3,0.1-0.4
		c0.2-0.1,0.5-0.2,0.8-0.2c0.1,0.1,0.1,0.2,0.2,0.3c0.1,0.3,0.3,0.5,0.7,0.6c0.3,0,0.5,0.3,0.8,0.3c0.1,0,0.3-0.1,0.4-0.1
		c0.1,0,0.3,0,0.4,0c0.1-0.3,0.2-0.5,0.4-0.8c-0.2-0.1-0.3-0.2-0.5-0.3c0.2-0.3,0.3-0.6,0.4-0.8c0.4,0,0.7,0.1,1,0.1
		c-0.5-0.4-0.6-1.3-0.4-1.8c0.3-0.5,0.3-1,0.1-1.5c-0.1-0.3-0.1-0.7,0-1.1c0.1-0.4,0.4-0.5,0.7-0.5c0.3,0,0.5,0.1,0.8,0.2
		c0,0.5-0.2,0.8-0.4,1.2c0,0.1-0.3,0.1-0.4,0.2c-0.1,0.3-0.1,0.6-0.2,0.8c0.3,0.6,0.6,1.1,0.9,1.8c0,0.1-0.1,0.3-0.2,0.5
		c0.3,0.1,0.5,0.1,0.7,0.1c0,0.4,0.1,0.7,0.1,1c0,0,0.1,0,0.1,0c0.1-0.2,0.1-0.5,0.2-0.7c0.5,0.2,0.7,0.4,0.6,0.9
		c-0.1,0.5-0.1,0.5,0.3,0.9c0.5-0.2-0.1-0.5,0.1-0.8c0.1,0,0.1,0,0.2,0c0.2-0.5,0.2-1.1-0.1-1.7c0.4,0,0.6-0.1,0.9-0.1
		c0,0,0-0.1,0-0.1c-0.2,0-0.5,0-0.7-0.1c-0.4-0.1-0.8-0.1-1.1-0.2c-0.2-0.1-0.4-0.3-0.5-0.6c0.2,0,0.3,0,0.5-0.1c0,0,0-0.1,0-0.1
		c-0.2-0.1-0.5-0.1-0.7-0.2c-0.2-0.7-0.2-1.4,0.1-2.1c0.2-0.5,0.5-0.7,1.1-0.6c-0.1,0.3-0.3,0.6-0.3,0.9c0,0.3,0,0.6,0.1,0.9
		c0.1,0.3,0.2,0.6,0.6,0.7c-0.2-0.2-0.5-0.4-0.3-0.8c0,0-0.1-0.2-0.1-0.3c-0.2-0.6,0.2-1.4,0.8-1.4c0.4,0,0.7-0.2,1.1-0.2
		c0.6,0,0.9,0.3,0.9,0.8c0.3,0.3,0.6,0.5,0.9,0.7c0.2,0.2,0.3,0.3,0.6,0.2c0.1,0,0.4,0.1,0.5,0.2c0.2,0.3,0.5,0.4,0.8,0.4
		c0.2,0,0.5,0.1,0.3,0.4c0.3-0.1,0.5,0,0.6,0.3c0.1,0.2,0.2,0.4,0.3,0.5c-0.1,0.2-0.2,0.3-0.2,0.5c0,0.2,0.2,0.3,0.4,0.4
		c0.2,0.1,0.5,0.1,0.7,0.2c0.2,0.1,0.4,0.1,0.6,0.2c0.2,0.2,0.5,0.3,0.8,0.3c0.4,0,0.4,0.2,0.4,0.6c0,0.5-0.3,0.9-0.3,1.4
		c-0.4,0.2-0.6,0-0.8-0.2c-0.2-0.2-0.5-0.4-0.8-0.6c-0.1,0.6,0.1,1.2,0.6,1.3c0.3,0.1,0.5,0.3,0.7,0.4c0.4,0.3,0.5,0.7,0.5,1.1
		c0,0.1,0.1,0.2,0.1,0.3c-0.4-0.1-0.9-0.2-1.4-0.4c0.2,0.5,1,0.5,1.1,1.1c-0.5,0-1,0.1-1.4-0.2c-0.2-0.1-0.4-0.1-0.6,0.1
		c-0.2-0.3-0.5-0.4-0.6-0.7c-0.2-0.3-0.7-0.5-1-0.6c-0.2-0.1-0.5,0.1-0.8,0.2c-0.1,0-0.2,0.2-0.2,0.2c-0.2,0-0.4,0-0.6-0.1
		c-0.2-0.1-0.2-0.3-0.1-0.5c0.1-0.1,0.1-0.2,0.2-0.4c0.5,0,0.9,0,1.2-0.5c-0.1-0.1-0.2-0.3-0.3-0.4c0.1-0.5,0.6-0.9,0.4-1.5
		c-0.2-0.5-0.6-0.8-1.2-0.6v-0.4c-0.2,0.1-0.3,0.1-0.5,0.2c-0.3-0.3,0.2-0.3,0.1-0.5c-0.4-0.3-0.7-0.6-1.1-0.8
		c-0.1,0.3-0.3,0.5-0.4,0.8c-0.2-0.1-0.3-0.1-0.4-0.1c-0.2-0.1-0.4-0.1-0.5,0c-0.1,0.2,0,0.3,0.2,0.4c0.2,0.2,0.4,0.6,0.2,0.8
		c-0.2,0.3-0.1,0.5,0.1,0.8c0.3,0.4,0.3,0.4,0,0.9c-0.2,0.3-0.5,0.6-0.7,0.8h0c0,0,0,0,0,0c0,0,0,0,0,0c0,0,0,0,0,0c0,0,0,0,0,0
		c-0.3,0-0.5-0.4-0.9-0.2c0.1,0.1,0.1,0.2,0.2,0.3c-0.2,0.6-0.3,1.1-0.5,1.7c-0.1,0.2-0.2,0.4-0.5,0.4c-0.4,0.1-0.5,0.4-0.6,0.7
		c0,0.1-0.1,0.3-0.2,0.4c-0.9,0.7-1.5,2.2-1.3,3.3c0,0.2,0.1,0.4,0.3,0.4c0.4,0,0.5,0.2,0.6,0.5c0.1,0.3,0.2,0.6,0.3,0.9
		c0.8-0.3,1.5,0,2.1,0.5c0.5,0.4,1.1,0.7,1.8,0.6c0.3,0,0.5,0,0.8,0c0.1,0.4,0.2,0.8,0.3,1.2c0,0.1,0.1,0.3,0.1,0.4h0v0c0,0,0,0,0,0
		c0,0,0,0,0,0c0.4,0.4,0.8,0.9,1.3,1.4c0.1-0.2,0.2-0.4,0.3-0.5c0.2-0.3,0.3-0.5,0.1-0.8c-0.3-0.5-0.5-1-0.7-1.6
		c0.6-0.4,1.1-0.9,1.1-1.7c-0.1-0.8-0.5-1.3-1.3-1.6c0-0.2,0.1-0.3,0.1-0.4c0.2-0.5,0.2-0.9-0.1-1.3c-0.1-0.1-0.1-0.2-0.1-0.3
		c0-0.3,0-0.5-0.2-0.7c-0.1-0.2-0.1-0.4-0.1-0.6c0.1-0.2,0.3-0.2,0.5-0.1c0.4,0,0.7,0.1,1-0.1c0.1-0.1,0.2-0.1,0.3,0
		c0.3,0.1,0.6,0.2,0.7,0.4c0.2,0.3,0.5,0.4,0.9,0.3c0.1,0,0.1,0,0.2,0c0.1,0.2,0.1,0.5,0.2,0.7c0.1,0.6,0.5,0.8,1,1.1
		c0.3,0.1,0.4,0.1,0.6-0.2c0.2-0.3,0.3-0.6,0.2-1c0-0.2,0.1-0.5,0.1-0.8c0.5,0.4,0.8,0.8,1.2,1.2c0.2,0.2,0.4,0.3,0.6,0.5
		c0.2,0.3,0.5,0.5,0.6,0.8c0.2,0.5,0.7,0.6,1.1,0.8c0.2,0.1,0.6,0,0.9,0.1c0.2,0,0.4-0.1,0.4,0.3c0,0.1,0.3,0.2,0.5,0.2
		c0.5,0.1,0.9,0.4,0.9,1c0,0.4-0.2,0.6-0.5,0.9c-0.2,0.2-0.5,0.5-0.6,0.7c-0.2,0.6-0.7,0.8-1.2,1c-0.6,0.2-1.2,0.3-1.8,0.6
		c-0.3,0.1-0.6,0.3-0.6,0.7c0,0.1-0.1,0.3-0.2,0.3c-0.4,0.3-0.6,0.8-0.7,1.3c0.4-0.4,0.8-0.8,1.2-1.2c0.2-0.2,0.5-0.3,0.7-0.4
		c0.2-0.1,0.5-0.1,0.6,0.2c0.2,0.3-0.1,0.4-0.2,0.6c-0.1,0.1-0.2,0.1-0.4,0.2c0.1,0.3,0.3,0,0.5,0.1c0.1,0.4,0.2,0.8,0.6,1
		c0.5,0.2,1,0.1,1.5-0.1c0.1-0.4,0.1-0.7,0.2-1.1c0.2,0.2,0.4,0.4,0.7,0.6c-0.2,0.3-0.4,0.6-0.6,0.9c-0.3,0.3-0.6,0.6-1,0.9
		c-0.4,0.3-0.3,0.8-0.7,1c-0.5-0.1-0.6-0.4-0.4-0.8c0.1-0.2,0.4-0.3,0.2-0.7c-0.3,0.3-0.7,0.4-0.9,0.8c-0.1,0.3-0.5,0.5-0.8,0.8
		c-0.1,0.1-0.2,0.2-0.3,0.2c-0.6,0.4-0.8,1.2-0.1,1.9c-0.3,0.2-0.8,0.3-0.9,0.6c-0.2,0.4-0.5,0.4-0.8,0.7c-0.1,0.4,0.2,1-0.5,1.1
		c0.1,0.2,0.2,0.4,0.2,0.7c0,0.2-0.1,0.4-0.2,0.7c-0.1-0.2-0.2-0.4-0.3-0.6c0,0-0.1,0-0.1,0.1c0.1,0.3,0,0.7,0.4,0.9
		c0.1,0.1,0.2,0.3,0.2,0.4c0.2,0.2,0.1,0.4-0.1,0.6c-0.2,0.2-0.2,0.3-0.1,0.4c-0.3,0.3-0.5,0.6-0.8,0.8c-0.1,0.1-0.2,0.1-0.2,0.2
		c-0.1,0.1-0.3,0.2-0.3,0.3c-0.1,0.4-0.4,0.6-0.7,0.9c-0.6,0.6-0.7,1.4-0.2,2.3c0.2,0.4,0.5,0.8,0.7,1.2c0.4,0.8,0.5,0.9,0.3,1.8
		c-0.2,0.1-0.4,0.1-0.6-0.2c-0.3-0.4-0.7-0.7-1-1c-0.2-0.2-0.3-0.5-0.3-0.8c0-0.3-0.1-0.5-0.4-0.7c-0.1-0.1-0.2-0.2-0.4-0.3
		c-0.2-0.2-0.4-0.2-0.6,0c-0.2,0.3-0.5,0.3-0.7,0c-0.3-0.2-0.6-0.2-0.9-0.2c-0.3,0.1-0.5,0.1-0.8,0.1c-0.6,0-0.6,0-0.8,0.7
		c0.1,0,0.2,0.1,0.3,0.2c-0.1,0-0.1,0.1-0.1,0.1c-0.1,0-0.1-0.1-0.2-0.1c-0.3,0-0.5,0.1-0.8,0.1c-0.3,0-0.5-0.2-0.8-0.2
		c-0.2,0-0.4,0-0.6-0.1c-0.4-0.1-0.8,0.1-1.2,0.3c-0.3,0.2-0.6,0.4-0.9,0.6c-0.7,0.4-0.8,0.9-0.7,1.7c0,0.2,0,0.5,0,0.7
		c-0.3,0.7-0.3,1.5-0.2,2.2c0.1,0.5,0.2,1.1,0.7,1.5c0,0,0.1,0.1,0.1,0.1c0.2,0.7,0.8,1.1,1.5,1.3c0.1,0,0.3,0.1,0.4,0.1
		c0.3-0.1,0.7-0.2,1-0.3c0.3-0.1,0.6-0.2,0.9,0c0.1-0.2,0.1-0.3,0.2-0.4c0.4-0.3,0.5-0.7,0.5-1.2c0-0.4,0.2-0.6,0.5-0.7
		c0.5-0.1,1-0.4,1.6-0.4c0.4,0,0.6,0.2,0.4,0.5c-0.3,0.5-0.2,1-0.3,1.5c-0.1,0.6-0.3,1.1-0.3,1.7c0,0.2-0.2,0.4-0.3,0.7
		c0.7-0.1,1.3,0,1.9-0.2c0.7-0.2,1.3-0.3,1.9,0.1c0.3,0.2,0.4,0.5,0.4,0.9c-0.1,0.7-0.1,1.4-0.1,2.1c0,0.2,0.2,0.5,0.4,0.7
		c0.4,0.4,0.8,0.7,1.4,0.8c0.2,0.1,0.4,0,0.6-0.1c0.1-0.1,0.3-0.2,0.4-0.3c0.4-0.4,0.9-0.4,1.3-0.3c0.5,0.1,0.8,0.4,1,0.9
		C116.9,101,116.7,101.1,116.5,101.4z M108.8,67.8C108.8,67.8,108.8,67.8,108.8,67.8c0.1,0.1,0.1,0.1,0.1,0.2c-0.1,0-0.1,0-0.2-0.1
		c0,0-0.1,0-0.1,0c-0.2,0-0.3-0.1-0.4-0.1c0,0,0,0,0.1,0c0,0,0,0,0.1,0c0,0,0,0,0.1,0c0,0,0,0,0.1,0c0,0,0,0,0,0c0,0,0.1,0,0.1,0
		c0,0,0,0,0,0c0,0,0.1,0,0.1,0.1C108.7,67.7,108.7,67.7,108.8,67.8C108.7,67.7,108.7,67.7,108.8,67.8
		C108.8,67.8,108.8,67.8,108.8,67.8z M109,64.8c0.1,0,0.2,0.1,0.2,0.2c0,0.3-0.2,0.4-0.4,0.3C108.7,65.1,108.8,64.9,109,64.8z
		 M108.2,58.9c0,0,0-0.1,0.1-0.1c0.1,0,0.2,0.1,0.3,0.1c0,0,0,0.1-0.1,0.1C108.4,59,108.3,58.9,108.2,58.9z M107.9,59.8
		c0.2,0.2,0.1,0.4,0,0.6C107.6,60.2,107.6,60.2,107.9,59.8z M107.9,54.4c0.1-0.1,0.2-0.2,0.3-0.2c0.3,0,0.6,0.1,0.9,0.1
		c0,0,0,0.1,0.1,0.2c0,0,0,0-0.1,0c0,0-0.1,0-0.1,0c-0.1,0-0.1,0-0.2,0c0,0-0.1,0-0.1,0c-0.1,0.6-0.1,0.6-0.6,0.7
		C107.8,54.9,107.8,54.7,107.9,54.4z M106.2,58.6c-0.2,0.3-0.4,0.6-0.7,1c-0.1-0.2-0.2-0.4-0.3-0.5c-0.2,0-0.3,0-0.6,0.1
		c0.5-0.5,0.3-1.1,0.3-1.6c0-0.3,0-0.6,0.4-0.6c0,0.1,0,0.2,0,0.4c0.5,0.3,1.1,0.4,1.5,1c0.1,0.1,0.3,0.2,0.5,0.2
		C107.2,59,107.2,59,106.2,58.6z M107,59.6c-0.2,0.2-0.3,0.4-0.4,0.6c0,0.1-0.2,0.1-0.3,0c-0.1,0-0.1-0.2-0.1-0.3
		C106.3,59.6,106.4,59.6,107,59.6z M105.5,56.8c0.1,0.1,0.2,0.1,0.4,0.2C105.7,57.1,105.6,57,105.5,56.8
		C105.6,56.9,105.6,56.9,105.5,56.8C105.5,56.8,105.5,56.8,105.5,56.8z M106.9,53.7c0-0.1,0.1-0.2,0.1-0.3c0,0,0.1,0,0.1,0
		C107.1,53.5,107.1,53.6,106.9,53.7C107,53.7,107,53.7,106.9,53.7z M113.9,59c0,0,0.1-0.1,0.1-0.1c0,0,0.1,0.1,0.1,0.1
		c0,0-0.1,0.1-0.1,0.2C113.9,59.1,113.9,59,113.9,59z M114.8,49.9c0.4-0.3,0.7,0.1,1.2,0.2c-0.2,0.3-0.4,0.5-0.5,0.7
		C115.1,50.6,114.7,50.4,114.8,49.9z M119.2,70.4c0,0.1,0,0.2,0,0.3c-0.4,0.1-0.7,0.1-1.1-0.2C118.5,70.4,118.8,70.4,119.2,70.4z
		 M117.4,68.1c0.5-0.2,0.9-0.1,1.4,0.1C118.3,68.5,117.9,68.4,117.4,68.1z M114.7,92.7c0.1-0.3,0.2-0.4,0.3-0.6
		c-0.5-0.1-0.9-0.1-1.1-0.6c-0.7-0.1-1.3-0.3-2-0.4c-0.1,0-0.1,0-0.2-0.1c-0.3-0.3-0.4-0.3-0.8-0.1c-0.3,0.2-0.6,0.3-0.9,0.5
		c-0.1-0.3,0-0.5,0.2-0.6c1-0.5,2-0.6,3-0.1c0.1,0,0.2,0.1,0.3,0.1c0.4,0.1,0.7,0.2,1.1,0.4c0.6,0.2,1.2,0.5,1.8,0.8
		c0.1,0.1,0.3,0.2,0.5,0.3C116.2,92.7,115.5,92.4,114.7,92.7z M115.6,93.9c-0.8,0.2-0.8,0.2-1.2-0.1
		C114.8,93.5,115.2,93.7,115.6,93.9z M114.2,88.9c0.1,0.2,0.1,0.3,0.2,0.5C114,89.3,114,89.2,114.2,88.9z M118.9,94
		c-0.4-0.6-1-0.2-1.5-0.3c-0.2,0-0.3,0-0.5-0.1c0-0.1,0-0.1,0-0.2h1.2c0,0,0-0.1,0.1-0.2c-0.2-0.3-0.3-0.5-0.5-0.8
		c0.3,0,0.7,0,1.1-0.1c0.4-0.1,0.8,0,1.1,0.2c0.3,0.2,0.7,0.4,1.1,0.6C120.2,93.5,119.4,93.2,118.9,94z M121.8,93.4
		c0.3-0.2,0.6-0.1,1-0.1C122.3,93.7,122.1,93.7,121.8,93.4z M123.5,68.3c-0.2,0.1-0.5,0-0.6-0.4c-0.2,0.3-0.4,0.5-0.6,0.8
		c0,0-0.1,0-0.1,0c0-0.1,0.1-0.3,0.2-0.5c-0.7,0.2-1.4,0.5-2.1,0.7c0-0.3,0-0.6,0-0.9c0-0.5,0-1,0.1-1.5c0-0.4,0-0.9,0.5-1.2
		c0.2,0.4,0,0.9,0.1,1.3c0.2,0,0.4-0.2,0.5,0.1c0,0.1,0.3,0.1,0.4,0c0.2,0,0.4-0.1,0.6-0.2c0.2,0.5,0.2,0.5,0.6,0.6
		c0,0.1,0,0.2-0.1,0.3c0,0.1,0,0.1,0,0.1c0.2,0,0.4,0.1,0.6,0.1C123.6,67.9,123.9,68.2,123.5,68.3z M123.7,46.9
		c-0.2,0.3-0.4,0.7-0.7,0.9c-0.2,0.1-0.2,0.6-0.1,0.9c0,0.5,0.2,0.9,0,1.3c-0.2,0.6-0.5,1.1-1,1.4c0,0.3-0.1,0.5-0.1,0.8
		c0.4,0.5,0.6,1.1,0.6,1.8c0,0.2,0,0.4,0,0.5c0.3,0.5,0.4,1.1,0.5,1.7c0,0.2,0.2,0.4-0.1,0.5c-0.2,0.1-0.5,0.1-0.7,0.1
		c-0.3-0.1-0.5-0.2-0.7-0.1c-0.2,0-0.4,0.1-0.6,0.3c-0.7-0.5-1.4-1-2.1-1.6c-0.4-0.3-0.7-0.6-0.9-1c-0.1-0.2-0.3-0.3-0.5-0.4
		c-0.3-0.2-0.6-0.4-0.6-0.9c0-0.1,0-0.2-0.1-0.2c-0.6-0.3-0.4-1-0.5-1.5c0-0.1,0.2-0.3,0.4-0.5c0-0.1-0.1-0.3-0.1-0.5
		c-0.1-0.3-0.3-0.6-0.8-0.6c-0.2,0-0.4,0-0.5-0.1c-0.1,0-0.3-0.1-0.4-0.2c0.3-0.4,0.7-0.3,1.1-0.2c-0.2-0.6-0.9-0.3-1.1-0.8
		c-0.1,0.1-0.1,0.2-0.2,0.2c-0.3,0.3-0.5,0.2-0.7-0.1c-0.1-0.3-0.4-0.5-0.3-0.8c0.1-0.7-0.5-0.9-0.8-1.3c-0.3-0.4-0.7-0.7-1-1.1
		c-0.3-0.4-0.7-0.5-1.1-0.6c-0.3-0.1-0.7-0.1-0.9,0.2c-0.2,0.3-0.6,0.1-0.8,0.4c0,0.1-0.4,0-0.5-0.1c-0.1-0.1-0.1-0.2-0.2-0.5
		c-0.1-0.1-0.5,0.1-0.7-0.4c0.2-0.1,0.4-0.3,0.6-0.4c0.1-0.2,0.5-0.1,0.5-0.5c-0.1,0-0.2,0-0.2,0c-0.2,0.1-0.5,0.3-0.6,0.3
		c-0.3-0.1-0.7-0.3-1-0.5c-0.2-0.1-0.2-0.5,0-0.7c0.4-0.3,0.6-0.9,1.1-1.1c0.1-0.1,0.2-0.4,0.2-0.6c0-0.2-0.1-0.3-0.2-0.5
		c-0.1,0-0.1-0.1-0.1-0.1c-0.6-0.1-0.6-0.2-0.5-0.7c0.1-0.2,0.1-0.5,0.2-0.7c0.1-0.3,0.2-0.6,0.6-0.4c0-0.2,0-0.4-0.1-0.6
		c-0.4-0.5,0-0.7,0.2-1c0.2-0.3,0.5-0.7,0.9-0.7c0.2,0,0.3,0.1,0.5,0.2c0.1,0,0.2,0,0.4,0.1c-0.2-0.3-0.4-0.5-0.7-0.8
		c0.7-0.2,1.1,0.2,1.6,0.3c-0.2-0.5-0.8-0.4-1-0.9c0.1-0.1,0.2-0.1,0.3-0.2c-0.1-0.1-0.3-0.2-0.4-0.4c0.1-0.7,0.7-0.8,1.3-0.9
		c-0.1-0.2-0.2-0.3-0.2-0.5c0-0.2,0.2-0.3,0.3-0.5c0.4-0.6,1-0.8,1.8-0.8c0,0.1-0.1,0.3-0.1,0.5c0.2-0.1,0.3-0.2,0.3-0.3
		c0.4,0,0.8,0.1,1.2,0.1c0.2,0.4,0,0.7-0.2,0.9c-0.3,0.4-0.7,0.7-0.9,1.3c0,0.1,0,0.1,0,0.3c0.2-0.3,0.3-0.4,0.4-0.6
		c0.1-0.1,0.1-0.3,0.2-0.3c0.2-0.1,0.4-0.3,0.6-0.3c0.3,0,0.1,0.4,0.2,0.6c0.2-0.2,0.3-0.5,0.2-0.8c-0.1-0.2-0.1-0.3,0.1-0.4
		c0.1,0,0.3,0.1,0.3,0.1c0.2,0.3,0.3,0.5,0.5,0.8c0.2-0.3-0.1-0.5,0-0.8c0.2-0.1,0.3-0.1,0.5-0.2c0-0.1,0-0.1,0-0.2
		c-0.1-0.5,0.2-0.9,0.7-0.8c0.1,0,0.3,0.1,0.3,0.3c0.1,0.4,0.2,0.7,0.2,1.1c0,0.2-0.2,0.4-0.3,0.6c0.1,0,0.3,0,0.5-0.1
		c0,0.1,0.1,0.1,0.1,0.2c0,0.2-0.1,0.4,0.1,0.5c0.1,0,0.1,0.1,0.1,0.2c0,0.2-0.2,0.5,0.1,0.7c0.2,0.1,0.3,0.3,0.4,0.5
		c0,0,0.1,0,0.1,0c-0.1,0.1-0.2,0.2-0.2,0.3c0.1,0.3,0.3,0.6,0.4,0.9c0.3-0.1,0.6-0.3,0.8,0c-0.1,0.1-0.1,0.1-0.2,0.2
		c0.2,0.3,0.4,0.1,0.7,0c0.1,0.2,0.3,0.4,0.4,0.6c-0.2,0-0.5,0-0.6,0.1c-0.1,0.1-0.1,0.4,0,0.5c0.2,0.3,0.4,0.1,0.6,0
		c0.3,0.2,0.6,0.5,0.9,0.7c-0.1,0.1-0.2,0.2-0.3,0.3c0.3,0.1,0.6,0.2,1,0.3c0,0.2-0.1,0.5-0.1,0.7c0.2,0.1,0.3,0.3,0.5,0.4
		c-0.1,0.2-0.2,0.4-0.3,0.6c-0.2,0-0.4,0-0.8,0.1c0.5,0.2,0.8,0.1,1.2,0.2c0.1,0.2,0.2,0.4,0.4,0.6c-0.3,0-0.5,0.1-0.7,0.1
		c0.8,0.1,1.5,0.3,2,1.1c-0.4,0.5-0.4,0.5-0.9,0.2c-0.1-0.1-0.3-0.1-0.5-0.2c0.2,0.4,0.3,0.7,0.4,1c0.3-0.1,0.7-0.3,1.1-0.5
		c0,0.1,0.1,0.1,0.1,0.2C124.3,45.3,124.3,46.2,123.7,46.9z M125.9,98.9c0-0.2-0.1-0.4,0.2-0.5C126.2,98.7,126.2,98.8,125.9,98.9z"
		/>
	<path class="st2" d="M117.5,35c-0.1,0-0.1,0.1-0.2,0c0,0-0.1-0.1-0.1-0.1c0,0,0.1-0.1,0.1-0.1C117.5,34.9,117.5,35,117.5,35z"/>
	<path class="st2" d="M114.7,92.7c0.1-0.3,0.2-0.4,0.3-0.6c-0.5-0.1-0.9-0.1-1.1-0.6c-0.7-0.1-1.3-0.3-2-0.4c-0.1,0-0.1,0-0.2-0.1
		c-0.3-0.3-0.4-0.3-0.8-0.1c-0.3,0.2-0.6,0.3-0.9,0.5c-0.1-0.3,0-0.5,0.2-0.6c1-0.5,2-0.6,3-0.1c0.1,0,0.2,0.1,0.3,0.1
		c0.4,0.1,0.7,0.2,1.1,0.4c0.6,0.2,1.2,0.5,1.8,0.8c0.1,0.1,0.3,0.2,0.5,0.3C116.2,92.7,115.5,92.4,114.7,92.7z"/>
	<path class="st2" d="M121,93.3c-0.8,0.3-1.6-0.1-2.1,0.7c-0.4-0.6-1-0.2-1.5-0.3c-0.2,0-0.3,0-0.5-0.1c0-0.1,0-0.1,0-0.2h1.2
		c0,0,0-0.1,0.1-0.2c-0.2-0.3-0.3-0.5-0.5-0.8c0.3,0,0.7,0,1.1-0.1c0.4-0.1,0.8,0,1.1,0.2C120.2,92.9,120.6,93,121,93.3z"/>
	<path class="st2" d="M77.2,58.8c-0.1,0.1-0.3,0.1-0.3,0.1c-0.1,0.6-0.6,0.5-1.1,0.6c0-0.2,0-0.4-0.1-0.6C77,58.6,77,58.6,77.2,58.8
		z"/>
	<path class="st2" d="M84.5,65.5c-0.1,0.4-0.1,0.8-0.2,1.2c-0.4-0.4-0.4-0.8-0.4-1.4C84.2,65.4,84.3,65.4,84.5,65.5z"/>
	<path class="st2" d="M118.8,68.2c-0.6,0.3-1,0.2-1.4-0.1C117.9,67.9,118.3,68,118.8,68.2z"/>
	<path class="st2" d="M115.6,93.9c-0.8,0.2-0.8,0.2-1.2-0.1C114.8,93.5,115.2,93.7,115.6,93.9z"/>
	<path class="st2" d="M122.8,93.3c-0.5,0.4-0.7,0.4-1,0.1C122.1,93.2,122.4,93.3,122.8,93.3z"/>
	<path class="st2" d="M100.6,44.5C100.6,44.5,100.6,44.5,100.6,44.5L100.6,44.5L100.6,44.5C100.6,44.5,100.6,44.5,100.6,44.5
		L100.6,44.5L100.6,44.5z"/>
	<path class="st2" d="M101.3,44.6c-0.1,0.4-0.1,0.4-0.7,0.3c0-0.1,0-0.1,0-0.2c0-0.1,0-0.1,0-0.2C100.8,44.6,101.1,44.6,101.3,44.6z
		"/>
	<path class="st2" d="M73.2,51.4c-0.1,0-0.2,0-0.3,0c-0.2-0.3-0.3-0.6-0.5-0.9C72.9,50.6,73.1,50.9,73.2,51.4z"/>
	<path class="st2" d="M119.2,70.4c0,0.1,0,0.2,0,0.3c-0.4,0.1-0.7,0.1-1.1-0.2C118.5,70.4,118.8,70.4,119.2,70.4z"/>
	<path class="st2" d="M72.8,54.3c0,0-0.1,0.2-0.1,0.2c-0.1,0-0.2,0-0.3-0.1c-0.1-0.1-0.1-0.2-0.2-0.4c0.2,0,0.3,0,0.5,0.1
		C72.7,54.1,72.8,54.2,72.8,54.3z"/>
	<path class="st2" d="M70,58.5c-0.4,0.1-0.6,0.1-0.9,0.2C69.3,58.4,69.3,58.4,70,58.5z"/>
	<path class="st2" d="M108.1,67.8C108.1,67.8,108.1,67.8,108.1,67.8C108.2,67.8,108.1,67.8,108.1,67.8
		C108.1,67.8,108.1,67.8,108.1,67.8L108.1,67.8z"/>
	<path class="st2" d="M108.9,68c-0.1,0-0.1,0-0.2-0.1c0,0-0.1,0-0.1,0c-0.2,0-0.3-0.1-0.4-0.1c0,0,0,0,0.1,0c0,0,0,0,0.1,0
		c0,0,0,0,0.1,0c0,0,0,0,0.1,0c0,0,0,0,0,0c0,0,0.1,0,0.1,0c0,0,0,0,0,0c0,0,0.1,0,0.1,0.1c0,0,0,0,0,0c0,0,0,0,0,0c0,0,0,0,0,0
		C108.8,67.8,108.8,67.8,108.9,68C108.8,67.9,108.8,67.9,108.9,68z"/>
	<path class="st2" d="M99.7,41.5c0,0.1,0.1,0.3,0.2,0.5c-0.3-0.1-0.4-0.2-0.3-0.4C99.6,41.5,99.7,41.5,99.7,41.5z"/>
	<path class="st2" d="M102.3,45.1c-0.1,0-0.1,0.1-0.2,0.1c-0.2-0.1-0.2-0.2-0.1-0.4c0.1,0,0.1,0,0.1,0
		C102.2,44.8,102.2,45,102.3,45.1z"/>
	<path class="st2" d="M98.3,45.3c-0.4,0-0.3-0.3-0.2-0.5C98.2,44.9,98.2,45.1,98.3,45.3z"/>
	<path class="st2" d="M98.4,47.8c-0.1,0-0.1,0-0.2,0c0-0.1,0-0.2,0-0.3c0.1,0,0.1,0,0.2,0C98.4,47.6,98.4,47.7,98.4,47.8z"/>
	<path class="st2" d="M114.4,89.4c-0.4-0.1-0.4-0.2-0.2-0.5C114.3,89.1,114.3,89.2,114.4,89.4z"/>
	<path class="st2" d="M125.9,98.9c0-0.2-0.1-0.4,0.2-0.5C126.2,98.7,126.2,98.8,125.9,98.9z"/>
	<path class="st2" d="M121.5,39c0.2,0.1,0.3,0.1,0.4,0.2c-0.1,0.1-0.1,0.2-0.1,0.2C121.5,39.4,121.5,39.3,121.5,39z"/>
	<path class="st2" d="M99.2,44.6c0,0-0.1,0.1-0.2,0.1c-0.1-0.1-0.1-0.1-0.1-0.2c0,0,0.1-0.1,0.1-0.1C99.1,44.5,99.1,44.6,99.2,44.6z
		"/>
	<path class="st2" d="M64.8,56.9C64.8,56.9,64.8,57,64.8,56.9c-0.1,0-0.2,0-0.3,0c0,0,0-0.1,0-0.1C64.6,56.8,64.7,56.9,64.8,56.9z"
		/>
	<path class="st2" d="M105.5,56.8C105.5,56.8,105.5,56.8,105.5,56.8C105.5,56.8,105.5,56.8,105.5,56.8L105.5,56.8
		C105.5,56.8,105.5,56.8,105.5,56.8z"/>
	<path class="st2" d="M105.9,57c-0.2,0.1-0.3,0-0.3-0.1c0,0,0,0,0,0c0,0,0,0,0,0C105.7,56.9,105.8,56.9,105.9,57z"/>
	<path class="st2" d="M68.7,58.4c-0.1,0-0.2,0-0.3,0c0,0,0-0.1,0-0.1c0.1,0,0.2-0.1,0.3-0.1C68.7,58.3,68.7,58.4,68.7,58.4z"/>
	<path class="st2" d="M114.1,59c0,0-0.1,0.1-0.1,0.2c-0.1-0.1-0.1-0.2-0.1-0.2c0,0,0.1-0.1,0.1-0.1C114.1,58.9,114.1,59,114.1,59z"
		/>
	<path class="st2" d="M61.6,83C61.6,83,61.5,83,61.6,83c-0.1,0-0.2-0.1-0.2-0.1c0,0,0.1-0.1,0.1-0.1C61.5,82.8,61.5,82.9,61.6,83z"
		/>
	<path class="st2" d="M60.8,81.9C60.8,82,60.8,82,60.7,82c0-0.1-0.1-0.1-0.1-0.2c0,0,0-0.1,0-0.1C60.7,81.8,60.8,81.8,60.8,81.9z"/>
	<path class="st2" d="M60.1,81c0,0-0.1,0.1-0.1,0.1C60,81.1,59.9,81,59.9,81c0,0,0.1-0.1,0.1-0.1C60,80.9,60.1,80.9,60.1,81z"/>
	<path class="st2" d="M107.7,73c-0.3,0-0.6,0-0.8,0.1c-0.5,0.2-0.9,0.1-1.2-0.4c-0.3,0.2-0.7,0.4-1,0.7c-0.2-0.3-0.5-0.2-0.7,0
		c0,0,0-0.1-0.1-0.1c0.2-0.2,0.3-0.4,0.5-0.5c0.4-0.3,0.8-0.7,1.3-0.9c0.2-0.1,0.4-0.2,0.7-0.2c0.3-0.1,0.4,0.1,0.5,0.3
		c0,0.1,0.1,0.1,0.2,0.1C107.6,72,107.5,72.6,107.7,73z"/>
	<path class="st2" d="M107.3,74.1c-0.5,0.5-0.5,1-0.2,1.6c0.2,0.4,0.1,0.8-0.2,1.1c0,0.1-0.1,0.1-0.2,0.1c-0.4-0.4-0.4-1-0.4-1.5
		c0-0.3,0.2-0.6,0-1c-0.1-0.1,0.1-0.4,0.2-0.5c0.3-0.2,0.6-0.5,1.2-0.4C107.5,73.8,107.5,74,107.3,74.1z"/>
	<path class="st2" d="M110.2,74.2c-0.1,0-0.2,0-0.3-0.1c-0.1,0-0.2-0.1-0.3-0.1c0,0.4,0,0.7-0.1,1.1c0,0.1-0.1,0.3-0.2,0.5
		c-0.2-0.3-0.3-0.5-0.4-0.8c-0.2,0.1-0.3,0.2-0.5,0.3c0-0.3,0.1-0.6,0.1-0.9c0-0.4-0.5-0.3-0.7-0.7c0.5-0.2,0.9,0,1.4,0.1
		c0.2-0.1,0.2-0.5,0.6-0.3C110.1,73.4,110.3,73.8,110.2,74.2z"/>
	<path class="st2" d="M111.1,75.5c-0.2,0.2-0.4,0.4-0.6,0.6c-0.2,0.1-0.4,0.2-0.5,0.4c-0.3,0.2-0.6,0.3-1,0.1c0.7-0.5,1.3-1,2.1-1.1
		C111.1,75.4,111.1,75.5,111.1,75.5z"/>
	<path class="st2" d="M101.8,54.7c-0.1,0.2-0.1,0.3-0.3,0.4c-0.3,0.2-0.5,0.5-0.4,0.9c-0.3,0-0.3-0.2-0.3-0.3c0-0.2,0.1-0.5-0.3-0.6
		c0.2-0.2,0.4-0.3,0.6-0.5c0,0,0,0-0.1,0c0,0,0,0,0,0c0,0,0,0,0,0c0,0,0,0,0,0c0,0,0,0,0,0c0,0,0,0,0,0c0,0,0,0,0,0c0,0,0,0,0,0
		c0,0,0,0,0,0c0,0,0-0.1,0-0.1c0,0,0,0,0,0c0,0,0,0,0-0.1c0,0,0,0,0-0.1c0,0,0-0.1,0.1-0.1c0,0,0,0,0-0.1c0,0,0,0,0,0c0,0,0,0,0-0.1
		c0,0,0,0,0,0c0,0,0,0,0,0c0,0,0.1,0,0.1,0s0,0,0.1,0c0,0,0,0,0,0c0,0,0,0,0,0c0,0,0,0,0,0c0,0,0,0,0,0c0,0,0,0,0,0c0,0,0,0,0,0
		c0,0.1,0,0.1,0,0.2c0,0,0,0.1,0,0.1c0,0.1,0,0.1,0,0.2C101.6,54.6,101.7,54.6,101.8,54.7z"/>
	<path class="st2" d="M101.2,53.8L101.2,53.8C101.2,53.8,101.2,53.8,101.2,53.8C101.2,53.8,101.2,53.8,101.2,53.8z"/>
	<path class="st2" d="M112.1,74.8c-0.4,0.1-0.8,0.2-1.3,0.2c0.1-0.4,0.4-0.5,0.7-0.6c0.3-0.1,0.6-0.2,0.9-0.3
		C112.5,74.5,112.4,74.7,112.1,74.8z"/>
	<path class="st2" d="M106.6,49.7c-0.1,0.2-0.2,0.4-0.3,0.6c-0.1,0-0.2,0-0.3,0c-0.1,0-0.1,0-0.2,0C105.7,50,105.9,49.9,106.6,49.7z
		"/>
	<path class="st2" d="M110.4,98.7c0.2,0.2,0.5,0.3,0.7,0.5C110.6,99.4,110.5,99.4,110.4,98.7z"/>
	<path class="st2" d="M87.6,70.6c-0.1-0.2-0.2-0.4-0.3-0.6c0.4,0,0.4,0.3,0.6,0.6C87.7,70.6,87.6,70.6,87.6,70.6
		C87.6,70.6,87.6,70.6,87.6,70.6z"/>
	<path class="st2" d="M87,70.8c0.2-0.1,0.5,0.3,0.6-0.2c0,0,0,0,0,0c0.1,0.1,0.1,0.3,0.2,0.5C87.5,71.1,87.2,71,87,70.8
		C87,70.8,87,70.8,87,70.8z"/>
	<path class="st2" d="M104,57.6c0,0-0.1,0.1-0.1,0.1c-0.1-0.1-0.3-0.2-0.4-0.3C103.8,57.4,104,57.5,104,57.6z"/>
	<path class="st2" d="M92.6,77.4l-0.1,0.1c-0.1-0.1-0.2-0.3-0.2-0.4c0,0,0.1,0,0.1-0.1C92.4,77.2,92.5,77.3,92.6,77.4z"/>
	<path class="st2" d="M108.3,73.2c0.1,0,0.2,0,0.4,0c0,0,0,0,0,0.1c-0.1,0-0.2,0-0.4,0C108.4,73.3,108.3,73.3,108.3,73.2z"/>
	<path class="st2" d="M118.3,64.4c0.1-0.1,0.1-0.1,0.2-0.2c0,0,0.1,0.1,0.1,0.1c-0.1,0.1-0.1,0.1-0.2,0.2
		C118.4,64.5,118.4,64.5,118.3,64.4z"/>
	<path class="st2" d="M117.5,35c-0.1,0-0.1,0.1-0.2,0c0,0-0.1-0.1-0.1-0.1c0,0,0.1-0.1,0.1-0.1C117.5,34.9,117.5,35,117.5,35z"/>
	<path class="st2" d="M102.9,43.2c0-0.2,0.1-0.3,0.1-0.5c0.1-0.1,0.2-0.2,0.3-0.4c0,0.2,0.1,0.4,0.1,0.5
		C103.3,42.9,103.1,43,102.9,43.2C102.9,43.1,102.9,43.2,102.9,43.2z"/>
</g>
</svg>
