<?xml version="1.0" encoding="utf-8"?>
<!-- Generator: Adobe Illustrator 22.1.0, SVG Export Plug-In . SVG Version: 6.00 Build 0)  -->
<svg version="1.1" id="Layer_1" xmlns="http://www.w3.org/2000/svg" xmlns:xlink="http://www.w3.org/1999/xlink" x="0px" y="0px"
	 viewBox="0 0 200 125" style="enable-background:new 0 0 200 125;" xml:space="preserve">
<style type="text/css">
	.st0{fill:#3D98D3;}
	.st1{fill:#FFFFFF;}
	.st2{fill:#354E5C;}
	.st3{fill:#29176F;}
	.st4{fill:#D9261D;}
	.st5{fill:#262626;}
</style>
<rect x="-0.8" y="-1" class="st0" width="201.6" height="126"/>
<g>
	<path class="st1" d="M84.1,17.4c0.7,0,1.3,0,2,0c0.1,0,0.2,0,0.3,0c0,2.7,0,5.4,0,8.1c-0.2,0-0.5,0-0.7,0c-0.2,0-0.5,0-0.8,0
		c0-1.9,0-3.7,0-5.5c0,0-0.1,0-0.1,0c-0.3,0.6-0.4,1.2-0.6,1.8c-0.2,0.6-0.4,1.3-0.6,1.9c-0.2,0.6-0.4,1.2-0.6,1.8
		c-0.4,0-0.8,0-1.3,0c-0.6-1.8-1.2-3.6-1.8-5.4c-0.1,0-0.1,0-0.2,0c0,0.9,0,1.8,0,2.7c0,0.9,0,1.8,0,2.7c-0.5,0-0.9,0-1.4,0
		c-0.1-0.4-0.2-7.4,0-8.1c0.7,0,1.4,0,2.2,0c0.6,1.8,1.2,3.6,1.7,5.4c0.1,0,0.1,0,0.2,0C83,21,83.5,19.2,84.1,17.4z"/>
	<path class="st1" d="M117.6,21.7c0.8,0.4,1,1.1,1.1,1.9c0.1,0.6,0.1,1.2,0.2,1.9c-0.5,0-1,0-1.5,0c0-0.3-0.1-0.7-0.1-1.1
		c0-0.4-0.1-0.8-0.1-1.1c-0.1-0.7-0.5-0.9-1.1-1c-0.5,0-1,0-1.5,0c-0.1,0-0.2,0-0.3,0.1c0,1,0,2,0,3.1c-0.6,0-1.1,0-1.6,0
		c0-2.7,0-5.3,0-8.1c0.1,0,0.3-0.1,0.4-0.1c1.2,0,2.4,0,3.6,0c2.2,0,2.7,2.1,2,3.5c-0.1,0.2-0.2,0.3-0.3,0.4
		C117.9,21.4,117.8,21.5,117.6,21.7z M114.1,21.1c0.7,0,1.4,0,2,0c0.3,0,0.6-0.1,0.8-0.4c0.3-0.4,0.3-1.2,0-1.6
		c-0.1-0.1-0.3-0.3-0.5-0.3c-0.8-0.1-1.5-0.1-2.3-0.1C114.1,19.6,114.1,20.3,114.1,21.1z"/>
	<path class="st1" d="M128.9,21.4c0,0.8-0.1,1.5-0.5,2.2c-0.7,1.3-1.7,2-3.2,2c-1.5,0-2.7-0.6-3.3-2c-0.7-1.5-0.7-3.1,0-4.6
		c0.6-1.3,1.8-2,3.3-2c1.5,0,2.5,0.7,3.2,2C128.8,19.8,128.9,20.6,128.9,21.4z M123,21.4c0.1,0.6,0.2,1.1,0.4,1.7
		c0.3,0.8,0.9,1.2,1.8,1.2c0.8,0,1.4-0.4,1.7-1.2c0.5-1.1,0.5-2.2,0-3.3c-0.3-0.7-0.9-1.1-1.8-1.1c-0.8,0-1.4,0.4-1.8,1.1
		C123.2,20.2,123.1,20.8,123,21.4z"/>
	<path class="st1" d="M142.2,18.8c0,0.6,0,1.2,0,1.8c1.2,0,2.4,0,3.6,0c0.2,0.5,0.1,0.9,0.1,1.4c-1.2,0-2.4,0-3.7,0
		c0,0.7,0,1.4,0,2.1c1.4,0,2.7,0,4.1,0c0,0.5,0,0.9,0,1.4c-1.9,0-3.8,0-5.7,0c0-2.7,0-5.4,0-8c0.4-0.1,5-0.2,5.6,0
		c0,0.4,0,0.9,0,1.4c-0.7,0-1.3,0-2,0C143.6,18.8,142.9,18.8,142.2,18.8z"/>
	<path class="st1" d="M62.3,18.8c0,0.6,0,1.1,0,1.8c1.2,0,2.4,0,3.6,0c0.1,0.5,0.1,0.9,0,1.4c-1.2,0-2.4,0-3.6,0c0,0.7,0,1.4,0,2.1
		c1.4,0,2.7,0,4.1,0c0,0.5,0,0.9,0,1.4c-1.9,0-3.8,0-5.7,0c0-2.7,0-5.4,0-8c0.4-0.1,5-0.2,5.6,0c0,0.4,0,0.9,0,1.4
		C64.9,18.9,63.6,18.8,62.3,18.8z"/>
	<path class="st1" d="M94.2,17.4c1.9,0,3.7,0,5.6,0c0,0.4,0,0.9,0,1.4c-1.3,0.1-2.6,0-4,0.1c0,0.6,0,1.1,0,1.8c1.2,0,2.4,0,3.7,0
		c0,0.5,0,0.9,0,1.3c-1.2,0.1-2.4,0-3.7,0c-0.1,0.7,0,1.3,0,2.1c1.4,0.1,2.7,0,4.1,0c0,0.5,0,0.9,0,1.4c-1.9,0-3.8,0-5.7,0
		C94.2,22.8,94.2,20.1,94.2,17.4z"/>
	<path class="st1" d="M107.6,17.4c0.6,0,1.1,0,1.6,0c0,0.2,0.1,0.3,0.1,0.5c0,1.6,0,3.2,0,4.8c0,0.2,0,0.5-0.1,0.7
		c-0.3,1.4-1.2,2.3-2.9,2.4c-0.5,0-1,0-1.5-0.1c-1.1-0.3-1.8-1-2-2.2c0-0.3-0.1-0.6-0.1-0.9c0-1.6,0-3.1,0-4.7c0-0.1,0-0.2,0-0.4
		c0.5,0,1,0,1.6,0c0,0.2,0,0.5,0,0.7c0,1.4,0,2.7,0,4.1c0,0.2,0,0.4,0,0.6c0,0.2,0.1,0.5,0.2,0.7c0.3,0.6,0.9,0.8,1.8,0.7
		c0.6-0.1,1-0.4,1.1-1.1c0-0.3,0.1-0.5,0.1-0.8c0-1.4,0-2.9,0-4.3C107.6,17.9,107.6,17.7,107.6,17.4z"/>
	<path class="st1" d="M133.4,22.6c0,1,0,1.9,0,2.9c-0.6,0.1-1.1,0.1-1.6,0c0-2.7,0-5.4,0-8.1c0.1,0,0.3-0.1,0.5-0.1c1,0,2,0,3,0
		c2.2,0,3.4,2.2,2.2,4.1c-0.5,0.8-1.3,1.1-2.1,1.1C134.7,22.6,134.1,22.6,133.4,22.6z M133.4,21.2c0.6,0,1.2,0,1.8,0
		c0.6-0.1,1-0.5,1-1.1c0-0.7-0.3-1.2-0.9-1.3c-0.6-0.1-1.3-0.1-1.9,0C133.4,19.6,133.4,20.4,133.4,21.2z"/>
	<path class="st1" d="M75.8,25.5c-0.6,0-1.1,0-1.7,0c-0.2-0.6-0.4-1.2-0.6-1.8c-1,0-1.9,0-2.9,0c-0.2,0.6-0.4,1.2-0.6,1.8
		c-0.5,0-1,0-1.5,0c0-0.4,2.3-7,2.8-8.1c0.2,0,0.5,0,0.8,0c0.3,0,0.5,0,0.9,0C73.9,20.1,74.9,22.8,75.8,25.5z M72.2,19.5
		c0,0-0.1,0-0.1,0c-0.4,0.9-0.6,1.9-1,2.9c0.7,0,1.3,0.1,2-0.1C72.8,21.3,72.5,20.4,72.2,19.5z"/>
	<path class="st1" d="M51.8,18.8c0-0.5,0-0.9,0-1.4c2.1,0,4.1,0,6.2,0c0,0.5,0,0.9,0,1.4c-0.7,0-1.4,0-2.2,0c0,0.8,0,1.5,0,2.2
		c0,0.7,0,1.5,0,2.2c0,0.7,0,1.4,0,2.2c-0.5,0.1-1.1,0.1-1.6,0c0-2.2,0-4.4,0-6.6C53.3,18.8,52.6,18.8,51.8,18.8z"/>
</g>
<g>
	<path class="st2" d="M99.8,29.4c3.4,0,6.9,0.1,10.3,0.4c8.9,0.8,17.6,2.6,26,5.7c5.7,2.1,11,4.7,16,8.2c3.5,2.5,6.7,5.4,9.3,9
		c2.1,2.9,3.6,6,4.4,9.5c1.1,4.9,0.5,9.7-1.6,14.3c-1.5,3.2-3.5,5.9-5.9,8.4c-3.6,3.7-7.7,6.6-12.2,9.1c-5.7,3.1-11.7,5.3-18,7
		c-4.6,1.2-9.3,2.1-14.1,2.7c-5.9,0.7-11.9,1-17.9,0.8c-8.9-0.3-17.7-1.5-26.3-4c-6.3-1.8-12.3-4.2-17.9-7.5
		c-3.6-2.1-6.9-4.5-9.9-7.4c-3.2-3.1-5.7-6.6-7.3-10.8c-1.2-3.1-1.6-6.3-1.4-9.6c0.3-3.9,1.7-7.5,3.8-10.8c2.2-3.4,4.9-6.3,8-8.8
		c4.2-3.4,8.8-6,13.8-8.2c5.8-2.6,11.9-4.4,18.2-5.7c3.6-0.7,7.3-1.3,11-1.7c3.3-0.3,6.6-0.5,10-0.6C98.6,29.4,99.2,29.4,99.8,29.4z
		 M77.3,56.1c0.1-0.4,0.3-0.7,0.4-1.1c-0.5-0.4-0.7-0.3-1.1,0.4C77,55.5,77.2,55.8,77.3,56.1c-0.2,0.2-0.2,0.2,0.2,0.6
		C77.4,56.4,77.3,56.3,77.3,56.1z M77.2,62.8C77.2,62.8,77.2,62.8,77.2,62.8C77.1,62.7,77.1,62.7,77.2,62.8c0-0.2,0.2-0.2,0.2-0.4
		c0.2-0.3,0.5-0.6,0.2-1c-0.4,0.3-0.9,0.4-0.8,1c0,0.1-0.1,0.2-0.2,0.3c0,0.1-0.1,0.1-0.1,0.2c0,0.3,0,0.6,0.1,1c0,0,0,0,0.1,0
		C76.9,63.5,77.1,63.1,77.2,62.8c-0.1,0.3,0.3,0.5,0.2,0.7c-0.2,0.5,0.3,0.4,0.4,0.5c-0.3,0.2-0.5,0.4-0.8,0.5c0,0,0,0.1,0.1,0.1
		c0.1,0,0.3-0.1,0.4-0.1c0,0.2,0,0.3,0.1,0.4c0.1,0,0.3,0,0.3,0c-0.2,0.2-0.3,0.4-0.5,0.6c0,0.1,0,0.2,0.1,0.3
		c0.1,0.1,0.2,0.1,0.3,0c0.1,0,0.2-0.1,0.3-0.2c0,0.3,0,0.5,0,0.7c0.3-0.2,0.5-0.3,0.9-0.5c-0.1,0.2-0.1,0.4-0.2,0.5
		c-0.2,0.3-0.2,0.5,0.1,0.8c0.3,0,0.7-0.1,1-0.1c0.1,0.3,0.2,0.6,0.3,0.8c0.2,0.3,0.3,0.6,0.1,1C80,69.2,79.7,69,79.4,69
		c-0.1,0-0.2,0-0.6,0c0.5,0.3,0.2,0.6,0.1,0.8c0.2,0,0.3,0,0.4,0c0.1,0.6,0.1,0.6-0.3,0.8c-0.1,0-0.2,0.1-0.3,0.1
		c-0.2,0.1-0.3,0.2-0.3,0.4c0.1,0.2,0.2,0.3,0.4,0.2c0.4-0.1,0.6,0.1,1,0.3c-0.5,0-0.7,0.4-0.9,0.7c-0.2,0.3-0.5,0.6-0.9,0.9
		c0.2,0.1,0.4,0.1,0.5,0.2c0.3-0.5,0.7-0.5,1.2-0.3c0.1-0.1,0.1-0.1,0.2-0.2c0.3-0.4,0.2-0.4,0.7-0.3c0.4,0.1,0.8,0,1.2-0.1
		c0.3-0.1,0.6-0.2,1-0.1c0.5,0,1-0.4,1.1-0.8c-0.1-0.1-0.3-0.1-0.5-0.2c0.1-0.2,0.3-0.3,0.4-0.5c0.1-0.2,0.3-0.4,0.4-0.7
		c0.1-0.4-0.1-0.7-0.5-0.9c-0.2,0-0.4-0.1-0.6-0.1c-0.2-0.5-0.3-1-0.5-1.5c-0.1-0.2-0.2-0.5-0.4-0.6c-0.5-0.2-0.6-0.7-0.7-1.1
		c-0.1-0.3-0.2-0.5-0.4-0.7c-0.2-0.2-0.4-0.3-0.6-0.5c0-0.2,0-0.4,0.1-0.6c0.2-0.4,0.4-0.8,0.6-1.3c0.2-0.4,0.1-0.6-0.4-0.6
		c-0.4,0-0.8,0-1.1,0c-0.2-0.7,0.5-0.8,0.6-1.3c0.1-0.4,0.3-0.8,0.5-1.3c-0.2,0-0.4-0.1-0.6-0.1c-0.1,0.3-0.3,0.7-0.4,1.1
		c-0.3,0-0.7,0-1.2,0.1c-0.3,0.5-0.5,1-0.8,1.5C77.7,62.7,77.5,62.7,77.2,62.8z M103.5,88.8c0,0.3,0.2,0.2,0.4,0.1
		c0.2-0.1,0.4-0.1,0.7-0.2c0-0.1-0.1-0.1-0.1-0.1c-0.1-0.2-0.3-0.3-0.5-0.2c-0.2,0-0.3,0.2-0.2,0.4
		C103.7,88.7,103.6,88.8,103.5,88.8c-0.1-0.2-0.1-0.5-0.2-0.7c0.2,0,0.5,0,0.8,0c-0.6-0.6-1.1-1.1-1.6-1.6c0.1-0.1,0.2-0.3,0.4-0.4
		c-0.3,0-0.5,0.1-0.6,0c-0.3-0.2-0.5-0.6-0.6-1c0.2-0.1,0.3,0,0.4,0.1c0.4,0.4,0.4,0.4,0.8,0c0.1,0,0.1-0.1,0.2-0.1
		c-0.1-0.2-0.2-0.3-0.3-0.4c0.2-0.3,0.4,0.1,0.6,0c0.1-0.1,0.2-0.2,0.3-0.3c0.3,0.1,0.6,0.1,1,0.2c0.1-0.4,0.3-0.8,0.4-1.2
		c0.2-0.4,0.7,0.1,1.1-0.2c0-0.1-0.1-0.2-0.1-0.3c-0.1-0.4,0-0.9,0.3-1.1c0.3-0.2,0.4-0.5,0.4-0.8c0-0.5,0.2-0.9,0.8-1.1
		c0.1-0.3,0.1-0.6,0.3-0.9c0.2-0.4,0.5-0.7,0.8-1c0.2-0.2,0.3-0.2,0.5,0c0.1,0.2,0.3,0.3,0.5,0.3c0.4,0.1,0.7,0.1,1.1,0.2
		c-0.3,0.3-0.7,0.3-0.8,0.7c0.3,0.1,0.6,0.3,0.9,0.4c-0.1,0.2-0.1,0.4-0.1,0.5c0.2,0.3,0.5,0.4,0.7,0.1c0.3-0.3,0.6-0.3,0.9-0.5
		c0.4-0.2,0.8-0.1,1.2-0.2c0.1,0,0.2,0.1,0.3,0.2c0.2,0.1,0.4,0.3,0.6,0.4c0.5,0.3,1.1,0.6,1.5,1.1c0.1,0.1,0.1,0.1,0.2,0.2
		c0.3,0,0.5,0,0.6,0c0.6,0.2,1.1,0.3,1.7,0.4c0.4,0.1,0.7,0.4,1.2,0.6c0,0,0.1,0,0.1,0c0.6-0.2,0.8-0.1,1.2,0.4
		c0.1,0.1,0.2,0.2,0.4,0.3c0.3,0.2,0.7,0.3,0.9,0.7c0.1,0.2,0.4,0.3,0.6,0.1c0.2-0.2,0.4-0.4,0.6-0.6c-0.2-0.3-0.3-0.5-0.5-0.7
		c-0.4-0.6-0.6-1.1-0.3-1.7c-0.3-0.3-0.5-0.5-0.8-0.7c0.2-0.3,0.3-0.6,0.5-0.8c0.1-0.1,0.2-0.2,0.3-0.3c0.5-0.2,1-0.5,1.4-1
		c-0.5-0.1-0.3-0.5-0.4-0.7c-0.3-0.6-0.5-1.2-1.3-1.2c0,0-0.1,0-0.1-0.1c0.1-0.4-0.2-0.5-0.5-0.7c0-0.1,0-0.2,0.1-0.3
		c0.2-0.3,0.3-0.6,0.1-0.9c0-0.1,0-0.3,0.1-0.4c0.1-0.2,0.3-0.5,0.5-0.7c0.1,0.2,0.3,0.3,0.4,0.5c0.1,0.2,0.3,0.3,0.5,0.2
		c0.2-0.1,0.3-0.3,0.2-0.5c-0.1-0.2-0.1-0.3,0.1-0.5c0.5-0.5,1.1-0.9,1.7-1.3c0.4,0.3,0.4,0.3,1,0c0.2,0.1,0.3,0.3,0.5,0.2
		c0.4-0.1,0.7,0.1,0.9,0.4c0.2,0.2,0.4,0.5,0.6,0.8c0.1-0.1,0.2-0.3,0.3-0.4c0.2,0.1,0.5,0.3,0.7,0.4c0.2-0.1,0.3-0.2,0.4-0.3
		c0.3-0.2,0.6-0.5,1-0.2c0.1,0.1,0.3,0,0.4-0.1c0.3-0.2,0.4-0.1,0.7,0.1c0.2,0.2,0.6,0.3,0.9,0.5c0.3-0.3,0.6-0.2,0.9-0.2
		c0.4,0,0.6-0.2,0.7-0.7c0.1-0.4-0.3-0.4-0.5-0.6c-0.2-0.1-0.5-0.2-0.6-0.6c0.2-0.1,0.4-0.3,0.6-0.4c0-0.1,0-0.2-0.1-0.2
		c-0.1-0.4,0-0.6,0.4-0.6c0.1,0,0.3,0,0.5-0.1c-0.2-0.3-0.5-0.5-0.4-0.6c0.1-0.3-0.5-0.4-0.1-0.7c0.2,0,0.3-0.1,0.5-0.1
		c0.1-1.3,0.1-28.1,0-28.5c-0.4-0.4-1-0.2-1.4-0.7c-0.3-0.4-0.7-0.8-1.1-1.1c-0.3,0.2-0.5,0.3-0.5,0.7c0.1,0.4,0.2,0.7,0.6,0.9
		c0.2,0.1,0.8,0.7,0.9,0.9c0.2,0.4,0.4,0.8,0.5,1.2c-0.1,0.5-0.5,0.6-0.9,0.7c0,0.1,0.1,0.2,0.1,0.3c0,0.1,0,0.3-0.1,0.4
		c0,0-0.3,0-0.3,0c-0.1-0.1-0.1-0.3-0.1-0.4c0-0.1,0.2-0.3,0.2-0.4c-0.1-0.2-0.2-0.4-0.3-0.6c-0.6,0-1,0.4-1.4,0.8
		c-0.2,0.2-0.3,0.2-0.6,0.1c-0.7-0.2-1.3,0-1.7,0.7c0,0-0.1,0-0.1,0c-0.2,0-0.3-0.1-0.5-0.1c-0.3-0.8-0.3-0.8,0.2-1
		c0-0.1-0.1-0.2-0.1-0.2c0.2-0.1,0.3-0.1,0.4-0.2c0,0,0-0.1,0-0.1c-0.2,0-0.5,0-0.7,0.1c-0.4,0.2-0.8,0.5-1.2,0.7
		c-0.2,0.1-0.5,0.3-0.7,0.3c-0.3,0-0.5,0.2-0.7,0.3c-0.3,0.3-0.7,0.6-1,0.9c-0.2,0.1-0.4,0.2-0.6,0.1c0,0-0.1,0-0.1,0
		c0,0.1,0,0.2,0,0.3c-0.2,0.1-0.5,0.2-0.7,0.3c-0.1,0.5,0,1-0.2,1.3c-0.2,0.4-0.7,0.3-1.1,0.3c-0.3,0-0.3-0.4-0.5-0.6
		c-0.1-0.1-0.2-0.1-0.2-0.2c-0.4-0.3-0.4-0.3-0.1-0.7c0.2-0.2,0.3-0.3,0.6-0.4c0.2,0,0.4-0.1,0.6-0.2c-0.1-1-0.6-1.6-1.4-1.7
		c-0.5,0-1,0-1.4-0.2c0,0-0.1,0-0.2,0.1c0.2,0.2,0.3,0.3,0.4,0.5c0.3,0.2,0.4,0.5,0.3,0.8c-0.1,0.5-0.2,1-0.3,1.5
		c0,0.2-0.1,0.4,0.1,0.5c0.5,0.2,0.5,0.6,0.4,1c-0.1,0.3-0.2,0.6-0.3,0.9c-0.5-0.2-1-0.4-1.5-0.6c-0.3,0.3-0.4,0.7-0.7,0.9
		c-0.4,0.2-0.7,0.6-1.1,0.9c-0.4,0.3-0.4,0.5-0.2,0.9c0.1,0.3,0.3,0.5,0.4,0.8c-0.3,0.2-0.5,0.3-0.6,0.5c-0.4-0.2-0.8-0.3-1.1-0.5
		c-0.4-0.1-0.5-0.7-1.1-0.6c0,0.3-0.6,0.5-0.2,1c0.3,0.3,0.4,0.7,1,0.6c0.1,0.2,0.1,0.4,0.2,0.6c-0.2,0.1-0.3,0.2-0.5,0.3
		c-1-0.4-1-0.4-1.2-1.1c-0.1,0-0.2,0-0.3,0c-0.3,0.1-0.4-0.1-0.4-0.3c-0.1-0.5-0.2-1-0.3-1.6c0.4-0.7,0.4-1.1-0.4-1.7
		c-0.2-0.2-0.4-0.5-0.6-0.8c0,0,0.1-0.1,0.1-0.1c0.4,0.1,0.9,0.2,1.2,0.4c0.4,0.2,0.8,0.3,1.2,0.4c0.3,0.1,0.6,0.2,0.9,0.3
		c0.3,0.1,0.6,0.2,0.9,0.2c1.1-0.1,1.8-0.8,2.2-1.7c0.1-0.2,0.1-0.5,0-0.8c-0.2-0.7-0.4-1.2-1-1.6c-0.1,0-0.1-0.1-0.1-0.2
		c-0.1-0.1-0.1-0.1-0.2-0.2c-0.6,0-0.9-0.5-1.3-0.8c-0.5-0.4-1.1-0.8-1.5-1.3c-0.5-0.6-1.3-0.2-1.8-0.8c0,0,0,0-0.1,0
		c-0.4,0.2-0.6-0.2-1-0.2c0.2-0.5,0.2-0.5-0.2-0.7c-0.2-0.1-0.4-0.3-0.6-0.4c-0.1,0.2-0.3,0.4-0.4,0.6c-0.5-0.2-1.2-0.3-1.7-0.7
		c0.6,0.2,0.8-0.4,1.3-0.5c0-0.1,0-0.2,0-0.3c-0.3-0.3-0.6-0.6-1-0.9c-0.4-0.3-0.9-0.4-1.3-0.8c-0.1-0.1-0.5-0.2-0.7-0.1
		c-0.2,0.1-0.5,0.2-0.3,0.6c0.1,0.3-0.1,0.6-0.3,0.8c0-0.3,0-0.6,0-1c-0.7,0.3-0.6,1-1.2,1.4c0-0.7,0.6-1,0.7-1.6
		c-0.1-0.1-0.3-0.3-0.4-0.2c-0.2,0.1-0.4,0.3-0.6,0.5c-0.1-0.1-0.2-0.2-0.2-0.3c-0.2,0.2-0.4,0.5-0.5,0.7c0-0.1,0.1-0.2,0.1-0.3
		c0-0.1-0.1-0.2-0.2-0.2c0,0-0.1,0-0.1,0c0,0.1,0,0.2,0,0.3c0,0.1,0.1,0.1,0.1,0.2c0,0.1,0,0.2,0,0.4c-0.3-0.2-0.5-0.3-0.7-0.4
		c-0.4,0.2-0.8,0.4-1.2,0.6c0.2,0.2,0.3,0.4,0.4,0.6c-0.3,0.1-0.3,0.1-0.6,0.1c-0.4,0.1-0.4,0.4-0.4,0.8c-0.1-0.2-0.3-0.3-0.4-0.5
		c-0.2,0.1-0.3,0.2-0.4,0.3c-0.1,0-0.1-0.1-0.2-0.1c-0.4-0.3-1.1-0.1-1.2,0.4c0,0.6-0.4,0.8-0.9,1c-0.6,0.2-0.8,0.9-0.5,1.5
		c0.1,0.2,0,0.3-0.1,0.4c-0.1-0.1-0.2-0.3-0.3-0.4c-0.1,0-0.2,0.1-0.4,0.1c-0.1-0.3,0.3-0.6,0-0.9c-0.3,0.4-0.6,0.7-1,1
		c-0.4,0.3-0.5,0.6-0.1,1c-0.7,0.3-1.5,0.5-1.6,1.5c0.3-0.2,0.6-0.4,0.9-0.6c0.3-0.1,0.6-0.2,0.8-0.3c0.6-0.2,0.6-0.2,0.9-0.1
		c-0.2,0.2-0.4,0.3-0.6,0.5c-0.2,0.2-0.3,0.4-0.3,0.6c0,0.3,0.1,0.6-0.3,0.7c0,0,0,0.1,0,0.2c-0.1,0.1-0.1,0.3-0.2,0.4
		c-0.5,0.7-0.9,1.4-1.4,2.1c-0.1,0.1-0.1,0.3-0.1,0.3c0.2,0.4,0,0.7-0.1,1.1c-0.1,0.5-0.4,0.9-1,1c-0.1,0-0.1,0.1-0.2,0.2
		c0.1,0.1,0.2,0.2,0.3,0.2c-0.5,0.7-0.9,1.4-1.4,2.1c-0.2-0.1-0.3-0.2-0.5-0.4c-0.2,0.3-0.5,0.5-0.8,0.8c0,0.1,0.1,0.2,0.1,0.3
		c-0.4,0.3-0.8,0.4-1,0.7c-0.2,0.3-0.5,0.6-0.8,0.8c-0.3,0.2-0.7,0.4-0.7,0.8c0,0.3,0,0.6,0,0.9c0,0.3-0.1,0.6-0.2,0.9
		c0,0,0,0.1,0,0.1c0,0.8,0.4,1.5,0.3,2.2c0,0.3,0,0.6,0.3,0.8c0.1,0,0.1,0.2,0.1,0.3c0,0.4,0.2,0.6,0.4,0.8c0.1,0.1,0.3,0.2,0.4,0.3
		c0.2,0.3,0.5,0.3,0.8,0.3c0.4,0,0.7-0.1,1-0.4c0.3-0.3,0.5-0.5,0.7-0.8c0.1-0.1,0.2-0.3,0.4-0.3c0.3,0,0.4-0.3,0.6-0.5
		c0.4,0.3,0.5,0.6,0.5,1.1c0,0.1,0,0.3,0,0.4c0.4,0.9,0.6,1.9,1.3,2.7c-0.2,0.4-0.4,0.8-0.8,0.8c-0.5,0-0.5,0.5-1,0.6
		c-0.1,0-0.2,0-0.4,0c0.1-0.1,0.1-0.2,0.2-0.3c0.1,0.1,0.2,0.1,0.2,0.2c0.1-0.4,0.2-0.7,0.3-1.1c-0.5-0.3-0.5-0.4-0.5-0.9
		c0.1-0.4,0.1-0.7,0.2-1.2c-0.4,0.2-0.7,0.3-0.9,0.6c-0.1,0.2-0.3,0.3-0.5,0.3c-0.4,0-0.6,0.3-0.7,0.6c-0.1,0.7-0.3,1.4,0.1,2.1
		c0.1,0.1,0,0.3,0,0.5c0,0.2-0.1,0.4,0,0.6c0.1,0.3,0.3,0.6,0.4,0.8c-0.1,0.2-0.3,0.3-0.4,0.4c-0.5-0.1-0.7-0.1-1.2,0.1
		c-0.4,0.1-0.7,0.2-1.1,0.3c-0.5,0.1-0.7,0.3-0.8,0.8c-0.2,1.2-1,2-2,2.5c-0.4,0.2-0.6,0.3-0.6,0.8c0,0.4-0.2,0.6-0.5,0.7
		c-0.6,0.2-0.6,0.2-0.8,0.7c-0.4,0-0.8,0.1-1-0.4c0-0.1-0.3-0.1-0.4-0.1c0,0.5,0.4,0.9,0.1,1.3c-0.3,0-0.6,0.1-0.9,0.1
		c-0.1-0.1-0.3-0.3-0.4-0.3c-0.4,0.1-0.9,0.1-1.3,0.4c0.1,0.2,0.2,0.3,0.3,0.5c0,0.2,0.1,0.3,0.3,0.4c0.4,0.1,0.8,0.2,1.2,0.4
		c0.2,0.1,0.4,0.3,0.4,0.5c0.1,0.4,0.3,0.6,0.6,0.8c0.1,0.1,0.3,0.3,0.3,0.4c0,0.8-0.1,1.7-0.2,2.5c-0.1,0.5-0.3,0.6-0.8,0.5
		c-0.5-0.1-1-0.2-1.5-0.1c-0.1,0-0.3,0-0.4,0c-0.5-0.1-1.1-0.2-1.7-0.2c-0.3,0-0.6-0.2-0.9-0.2c-0.3,0-0.5,0.3-0.8,0.5
		c0,0,0,0-0.1,0c-0.4,0.2-0.4,0.3-0.3,0.7c0.1,0.3,0.3,0.6,0.2,1c0,0.2,0,0.4,0.1,0.5c0.2,0.7,0,1.4-0.3,2c-0.3,0.7-0.3,0.9,0.3,1.4
		c0,0.4,0,0.8-0.1,1.3c0.2,0,0.4,0,0.6,0c0.2,0,0.3,0,0.5,0c0.5-0.2,0.7-0.1,0.9,0.4c0.2,0.4,0.5,0.7,1,0.8c0.1-0.4,0.1-0.4,0.4-0.6
		c0.5-0.3,1-0.2,1.5-0.2c0.3,0,0.6-0.1,0.8-0.2c0.1-0.5,0.6-0.7,1-0.8c0-0.6,0.4-0.9,0.8-1.2c-0.5-0.7-0.5-0.8,0-1.4
		c0.2-0.2,0.4-0.4,0.5-0.7c0.1-0.2,0.3-0.4,0.5-0.4c0.5-0.1,0.8-0.4,1.2-0.6c0.4-0.2,0.4-0.5,0.2-0.9c-0.2-0.5-0.1-0.7,0.3-1
		c0.3-0.2,0.5-0.2,0.8-0.1c0.3,0.1,0.7,0.2,1,0.3c0.3,0.1,0.6,0.1,0.8-0.2c0.2-0.2,0.5-0.4,0.7-0.5c0.3-0.1,0.5-0.2,0.7-0.5
		c0.1-0.1,0.2-0.2,0.4-0.3c0.3,0,1,0.5,1.1,0.8c0.2,0.4,0.3,0.8-0.2,1.1c0.8-0.1,0.8-0.1,0.8,0.4c0.5-0.1,0.7,0.3,1,0.6
		c0.3,0.3,0.6,0.6,1.1,0.6c0.3,0,0.3,0.3,0.3,0.5c0.4,0.1,0.8,0.1,0.9,0.6c0,0.1,0.1,0.1,0.2,0.1c0.5,0.2,0.6,0.6,0.7,1
		c0.1,0.4-0.3,0.8-0.6,0.8c-0.1,0-0.2-0.2-0.3-0.2c-0.1,0.1-0.2,0.3-0.3,0.4c-0.2,0.1-0.5,0.1-0.8,0c-0.5-0.2-0.9-0.1-1.2,0.2
		c0.5,0.7,1.4,0.7,2.1,1.3c0.1,0.1,0.3,0,0.5,0.1c0-0.3,0-0.5,0.1-0.7c0-0.2,0-0.4,0.1-0.7c0.6,0.2,0.9-0.2,1-0.5
		c0.1-0.3,0.3-0.4,0.5-0.5c0.1-0.5-0.2-0.7-0.5-0.9c0.1-0.2,0.2-0.4,0.3-0.5c0.6-0.1,0.8,0.4,1.2,0.6c0.2-0.3,0.2-0.5,0-0.7
		c-0.1-0.1-0.3-0.3-0.5-0.4c-0.5-0.3-0.9-0.5-1.4-0.8c0-0.2,0-0.3,0.1-0.5c-0.1,0-0.2-0.1-0.2-0.1c-1-0.1-1.4-0.4-1.7-1.3
		c-0.1-0.3-0.3-0.6-0.6-0.8c-0.5-0.3-0.9-0.6-0.5-1.2c0,0,0,0,0-0.1c0-0.6,0-0.6,0.6-0.7c0.3,0.3,0.2,0.9,0.8,1
		c0.4,0.6,0.9,1.1,1.5,1.5c0.1,0.1,0.1,0.3,0.2,0.5c0,0,0.2,0,0.2,0c0.1,0.3,0.5,0.3,0.7,0.4c0.2,0.1,0.4,0.1,0.6,0.2
		c0.8,0.4,1.2,1,1,1.9c-0.1,0.3-0.1,0.6,0.2,0.8c0.1,0,0.1,0.2,0.1,0.3c0,0.4,0.2,0.6,0.5,0.7c0.1,0.1,0.2,0.1,0.3,0.2
		c-0.1,0.2-0.2,0.4-0.2,0.6c-0.1,0.4,0.2,0.8,0.6,0.9c0.3,0,0.5,0.2,0.4,0.5c0,0.2,0.1,0.3,0.1,0.5c0.2,0,0.3-0.1,0.4-0.1
		c0.1,0.1,0.1,0.3,0.2,0.4c0.1-0.1,0.2-0.2,0.3-0.2c0.1,0.2,0.1,0.4,0.1,0.6c0.5-0.3,0.1-0.7,0.1-0.9c0.3-0.3,0.4-0.5,0.6-0.7
		c0.4,0.2,0.5,0.6,0.5,1.1C103.3,88.9,103.4,88.8,103.5,88.8z M66.2,47.6c-0.6,0.2-0.1,0.6-0.3,0.9c-0.2,0.1-0.4,0.2-0.7,0.3
		c0-0.2,0-0.3,0-0.5c0-0.2,0-0.4-0.1-0.5c-0.2-0.3-0.5-0.6-0.8-0.8c-0.2-0.1-0.4-0.1-0.6-0.1c-0.1,0-0.1,0.3-0.1,0.4
		c-0.2,0.1-0.4,0.2-0.5,0.3c-0.2,0.4-0.4,0.8-0.6,1.2c0.3,0.2,0.6,0.2,1,0.1c0.3-0.1,0.6-0.1,0.8,0.1c-0.2,0.7-0.9,0.8-1.4,1
		c0.1,0.4,0.1,0.4,0.3,0.3c0.8-0.1,0.9-0.1,1.2,0.6c0.1,0.2,0.1,0.4,0,0.6c0,0.1-0.3,0.1-0.5,0.2c0,0.1,0.1,0.3,0.1,0.4
		c0.3,0,0.7,0,0.9,0c0.6-0.1,0.8,0.3,1.1,0.7c0.3-0.1,0.3-0.1,0.7,0c0.6,0.2,1.1,0.2,1.4-0.3c0.1-0.1,0.3-0.2,0.4-0.2
		c0.4,0,0.6-0.2,0.8-0.4c0.3-0.2,0.6-0.4,0.9-0.5c0.3-0.1,0.4-0.2,0.6-0.4c0.2-0.2,0.3-0.4,0.5-0.6c0.2-0.3,0.4-0.5,0.3-0.9
		c-0.1-0.4,0-0.8-0.5-1c-0.2,0-0.3-0.3-0.4-0.4c-0.1-0.2-0.2-0.4-0.3-0.6c0.1-0.1,0.1-0.3,0.2-0.4c0,0,0-0.1-0.1-0.1
		c-0.2,0.1-0.4,0.2-0.7,0.3c-0.4-0.6-0.4-0.6-0.9-0.4c0,0.2,0,0.4,0,0.6c-0.4-0.2-0.6,0-0.8,0.3c-0.3-0.6-0.7-0.3-1.1-0.3
		c-0.2,0-0.5,0.3-0.7,0.5C66.4,48,66.3,47.8,66.2,47.6z M77.8,66.3C77.8,66.3,77.7,66.3,77.8,66.3c-0.3,0-0.6,0-0.8,0
		c-0.1,0-0.3,0-0.4,0c-0.5,0.1-0.9,0.4-1,1c0.1,0.1,0.1,0.2,0.2,0.3c-0.2,0-0.4,0.1-0.6,0.1c-0.1,0-0.3,0-0.4,0
		c-0.4,0-0.6,0.3-0.4,0.6c0.3,0.3,0,0.5,0,0.7c0.2,0.3,0.4,0.5,0.6,0.7c-0.1,0.2-0.3,0.4-0.4,0.5c-0.1,0.2-0.3,0.3-0.4,0.5
		c0,0,0,0.1,0,0.1c0.1,0.7,0.5,1,1.2,0.8c0.2-0.1,0.4-0.1,0.6-0.3c0.5-0.3,1-0.7,1.6-0.6c0.2-0.6,0.5-1.2,0.3-1.9
		c-0.1-0.5,0-0.7,0.3-1c0.3-0.2,0.3-0.5,0.1-0.7C78.1,66.9,78,66.6,77.8,66.3z M127.2,36.9c0.6,0.3,1,0.5,1.5,0.7
		c0.1,0,0.1,0.1,0.2,0.1c0.5-0.2,1,0,1.4,0.1c0.3,0.1,0.4-0.1,0.5-0.3c0.1-0.2,0.1-0.4-0.1-0.5c-0.6-0.4-0.9-0.9-1.1-1.5
		c-0.1-0.3-0.3-0.6-0.4-0.9c-1.2,0-2.3,0-3.5,0c0.1,0.3,0,0.5,0.2,0.7c0.1,0.2,0.4,0.2,0.6,0.3c0,0.1-0.1,0.3,0,0.4
		c0.2,0.3,0.4,0.5,0.7,0.7c0.1-0.2,0.2-0.4,0.3-0.5C127.3,36.4,127.7,36.7,127.2,36.9z M90.7,82.1c-0.3,0.3-0.8,0.3-0.7,0.8
		c0.1,0.3,0.2,0.7,0.4,1c-0.1,0.3-0.4,0.4-0.8,0.2c0,0.2-0.1,0.5,0,0.6c0.2,0.2,0.1,0.5,0.1,0.7c0,0.2-0.1,0.4-0.1,0.6
		c0,0.1,0.1,0.3,0.2,0.4c0.1,0.1,0.3,0,0.4,0c0.2-0.1,0.3-0.2,0.6-0.3c0-0.8,0.5-1.7-0.3-2.4C90.7,83.2,91,82.7,90.7,82.1z
		 M122.9,41.4c0,0.3,0.2,0.5,0.5,0.7c0.2,0.2,0.4,0,0.6-0.1c0.1-0.1,0.2-0.1,0.3-0.2c0.8-0.5,0.8-0.9,0-1.4c0,0-0.1-0.1-0.1-0.1
		c-0.4-0.2-0.6-0.2-0.9,0.1C123.1,40.7,123,41.1,122.9,41.4z M109.7,90.5c0.2,0.5,0.4,0.6,0.8,0.5c0.6-0.1,0.7-0.7,1.1-1.1
		c-0.3,0.1-0.6,0.2-0.9,0.2C110.3,90.1,110,90.3,109.7,90.5z M102.4,90.3c0.3,0.1,0.5,0,0.7,0.2c0.5,0.3,0.9,0.1,1.4,0.1
		c0.2,0,0.3-0.1,0.3-0.3c-0.8-0.1-1.5-0.3-2.3-0.4c0,0-0.1,0.1-0.1,0.1C102.4,90.1,102.5,90.2,102.4,90.3z M82.2,57.5
		c-0.8,0.4-1,0.9-0.4,1.7C82.1,58.7,82.3,57.9,82.2,57.5z M105.9,89.2c-0.1-0.1-0.3-0.2-0.3-0.4c-0.2-0.4-0.2-0.5-0.7-0.7
		c0.4,0.6,0.8,1.1,1.2,1.6c0.2-0.2,0.3-0.4,0.4-0.6c-0.2-0.1-0.3-0.2-0.4-0.3C106,89,106,89.1,105.9,89.2z M85.4,86.3
		c0.1-0.2,0.3-0.4,0.4-0.6c-0.4-0.5-0.7-0.4-1,0.1C85,86,85.2,86.1,85.4,86.3z M70.8,97.3c0.5-0.1,0.8-0.5,0.9-1.2
		C71.2,96.4,71.2,96.9,70.8,97.3z M76.3,36.1c-0.4,0.2-0.9,0.7-0.9,1C76.3,36.6,76.3,36.6,76.3,36.1z M105.1,86.4
		c-0.2-0.6-0.3-0.6-0.7-0.2C104.6,86.5,104.6,86.5,105.1,86.4z M58.9,86.8c0.4,0.3,0.6,0.4,0.9,0C59.5,86.5,59.2,86.7,58.9,86.8z
		 M68.7,97c0.2,0.2,0.3,0.3,0.3,0.3c0.2-0.1,0.3-0.3,0.5-0.5c0,0-0.1-0.1-0.1-0.1C69.2,96.8,69,96.9,68.7,97z M105.4,87.8
		c-0.4-0.2-0.4-0.2-1,0.2C104.9,87.9,105.1,87.8,105.4,87.8z M104.5,87.3c0.2-0.1,0.3-0.3,0.1-0.5c-0.1-0.1-0.3,0-0.5-0.1
		C104.3,87,104.4,87.1,104.5,87.3z M113.1,49.6c-0.3-0.1-0.5-0.1-0.7,0.1c0.1,0.1,0.2,0.2,0.3,0.3C112.8,50,112.9,49.8,113.1,49.6z
		 M84.2,86.9c0-0.3,0.1-0.5,0.1-0.7C83.8,86.4,83.8,86.4,84.2,86.9z M104.2,85.3c-0.2,0-0.4,0-0.5,0c0,0.2,0,0.3,0,0.5
		C103.9,85.6,104,85.5,104.2,85.3z M78.8,68.1c0.5-0.2,0.5-0.2,0.4-0.6C79.1,67.7,79,67.8,78.8,68.1z M69.9,97.7
		c0.1-0.1,0.2-0.2,0.2-0.3c0-0.1-0.1-0.1-0.2-0.2c-0.1,0.1-0.2,0.2-0.2,0.2C69.7,97.5,69.8,97.6,69.9,97.7z M61.4,87.5
		c0.2,0.3,0.3,0.3,0.6,0.1C61.8,87.6,61.6,87.6,61.4,87.5z M86.6,85.6c-0.2-0.4-0.2-0.4-0.6-0.2C86.2,85.4,86.3,85.5,86.6,85.6z
		 M68.5,92.6c0.3,0.3,0.3,0.3,0.6,0.1C68.9,92.7,68.7,92.7,68.5,92.6z M105.5,89.6c-0.1,0.3-0.2,0.4-0.3,0.6
		C105.6,90.2,105.6,90,105.5,89.6z M132.1,41.1c0,0,0.1-0.1,0.1-0.1c-0.1-0.1-0.2-0.2-0.3-0.3c0,0-0.1,0-0.2,0
		C131.9,40.8,132,40.9,132.1,41.1z M68,96.9c0.1,0,0.1,0,0.2,0c0-0.1,0-0.2-0.1-0.3c0,0-0.2,0-0.2,0C67.9,96.7,68,96.8,68,96.9z
		 M60.5,86.7c-0.1-0.1-0.2-0.2-0.2-0.2c-0.1,0-0.1,0.1-0.2,0.1c0,0.1,0.1,0.1,0.1,0.1C60.3,86.8,60.4,86.8,60.5,86.7z M57.1,85.7
		c0,0-0.1,0-0.1,0c0,0.1-0.1,0.2-0.1,0.3c0,0,0.1,0,0.1,0C57,85.9,57,85.8,57.1,85.7z M92.1,63.5c0-0.1,0.1-0.2,0.1-0.2
		c0,0-0.1-0.1-0.1,0c-0.1,0-0.1,0.1-0.2,0.1C92,63.4,92,63.4,92.1,63.5z M92.9,48.6c-0.1,0-0.1-0.1-0.1-0.1c0,0-0.1,0.1-0.1,0.1
		c0,0,0.1,0.1,0.1,0.1C92.8,48.7,92.9,48.7,92.9,48.6z M94.8,89.4C94.8,89.5,94.7,89.5,94.8,89.4c0,0.2,0.1,0.2,0.2,0.3
		c0,0,0.1-0.1,0.1-0.1C94.9,89.6,94.9,89.5,94.8,89.4z"/>
	<path class="st1" d="M103,37c0.2-0.2,0.3-0.4,0.5-0.7c0.1,0.1,0.2,0.2,0.2,0.3c0.2-0.2,0.4-0.4,0.6-0.5c0.1,0,0.3,0.2,0.4,0.2
		c-0.1,0.6-0.7,1-0.7,1.6c0.6-0.4,0.5-1.1,1.2-1.4c0,0.4,0,0.7,0,1c0.3-0.2,0.4-0.5,0.3-0.8c-0.1-0.4,0.1-0.5,0.3-0.6
		c0.2-0.1,0.6,0,0.7,0.1c0.4,0.4,0.9,0.5,1.3,0.8c0.4,0.2,0.7,0.6,1,0.9c0,0,0,0.2,0,0.3c-0.5,0.1-0.7,0.8-1.3,0.5
		c0.5,0.5,1.1,0.5,1.7,0.7c0.1-0.2,0.3-0.4,0.4-0.6c0.2,0.1,0.4,0.3,0.6,0.4c0.4,0.2,0.4,0.2,0.2,0.7c0.3,0.1,0.6,0.4,1,0.2
		c0,0,0,0,0.1,0c0.5,0.5,1.3,0.2,1.8,0.8c0.4,0.5,1,0.9,1.5,1.3c0.4,0.3,0.7,0.8,1.3,0.8c0.1,0,0.1,0.1,0.2,0.2
		c0.1,0.1,0.1,0.2,0.1,0.2c0.6,0.4,0.8,1,1,1.6c0.1,0.3,0.1,0.6,0,0.8c-0.4,1-1.1,1.6-2.2,1.7c-0.3,0-0.6-0.1-0.9-0.2
		c-0.3-0.1-0.6-0.2-0.9-0.3c-0.4-0.1-0.8-0.2-1.2-0.4c-0.4-0.2-0.8-0.3-1.2-0.4c0,0-0.1,0.1-0.1,0.1c0.2,0.3,0.3,0.6,0.6,0.8
		c0.8,0.6,0.8,1,0.4,1.7c0.1,0.6,0.2,1.1,0.3,1.6c0,0.3,0.1,0.4,0.4,0.3c0.1,0,0.2,0,0.3,0c0.3,0.7,0.3,0.7,1.2,1.1
		c0.1-0.1,0.3-0.2,0.5-0.3c-0.1-0.2-0.1-0.4-0.2-0.6c-0.5,0.1-0.7-0.3-1-0.6c-0.4-0.5,0.2-0.7,0.2-1c0.6-0.1,0.7,0.4,1.1,0.6
		c0.4,0.1,0.7,0.3,1.1,0.5c0.2-0.1,0.4-0.3,0.6-0.5c-0.1-0.2-0.3-0.5-0.4-0.8c-0.2-0.4-0.2-0.6,0.2-0.9c0.4-0.3,0.7-0.7,1.1-0.9
		c0.3-0.2,0.5-0.5,0.7-0.9c0.5,0.2,0.9,0.4,1.5,0.6c0.1-0.3,0.2-0.6,0.3-0.9c0.1-0.4,0.1-0.7-0.4-1c-0.2-0.1-0.1-0.3-0.1-0.5
		c0.1-0.5,0.2-1,0.3-1.5c0.1-0.3,0-0.6-0.3-0.8c-0.2-0.1-0.3-0.3-0.4-0.5c0.1-0.1,0.1-0.1,0.2-0.1c0.4,0.2,0.9,0.2,1.4,0.2
		c0.8,0.1,1.3,0.7,1.4,1.7c-0.2,0.1-0.4,0.1-0.6,0.2c-0.2,0.1-0.4,0.2-0.6,0.4c-0.3,0.4-0.3,0.4,0.1,0.7c0.1,0.1,0.2,0.1,0.2,0.2
		c0.2,0.2,0.1,0.6,0.5,0.6c0.4,0,0.9,0.1,1.1-0.3c0.2-0.4,0.2-0.8,0.2-1.3c0.2-0.1,0.4-0.2,0.7-0.3c0-0.1,0-0.2,0-0.3
		c0,0,0.1,0,0.1,0c0.2,0.1,0.4,0.1,0.6-0.1c0.4-0.3,0.7-0.6,1-0.9c0.2-0.2,0.4-0.3,0.7-0.3c0.3,0,0.5-0.2,0.7-0.3
		c0.4-0.2,0.8-0.5,1.2-0.7c0.2-0.1,0.5-0.1,0.7-0.1c0,0,0,0.1,0,0.1c-0.1,0.1-0.3,0.1-0.4,0.2c0,0.1,0.1,0.2,0.1,0.2
		c-0.5,0.1-0.5,0.1-0.2,1c0.1,0,0.3,0.1,0.5,0.1c0,0,0.1,0,0.1,0c0.4-0.7,0.9-0.9,1.7-0.7c0.3,0.1,0.4,0.1,0.6-0.1
		c0.4-0.4,0.8-0.8,1.4-0.8c0.1,0.2,0.2,0.4,0.3,0.6c-0.1,0.1-0.2,0.2-0.2,0.4c0,0.1,0,0.3,0.1,0.4c0.1,0.1,0.3,0.1,0.3,0
		c0.1-0.1,0.1-0.2,0.1-0.4c0-0.1,0-0.2-0.1-0.3c0.4-0.1,0.8-0.2,0.9-0.7c-0.2-0.4-0.4-0.8-0.5-1.2c-0.1-0.2-0.7-0.8-0.9-0.9
		c-0.4-0.2-0.5-0.5-0.6-0.9c0-0.3,0.2-0.5,0.5-0.7c0.4,0.4,0.8,0.7,1.1,1.1c0.3,0.5,1,0.3,1.4,0.7c0.1,0.4,0.2,27.2,0,28.5
		c-0.2,0-0.3,0.1-0.5,0.1c-0.4,0.3,0.2,0.4,0.1,0.7c0,0.1,0.2,0.4,0.4,0.6c-0.2,0-0.4,0.1-0.5,0.1c-0.4,0-0.5,0.2-0.4,0.6
		c0,0.1,0,0.1,0.1,0.2c-0.2,0.1-0.4,0.3-0.6,0.4c0.1,0.4,0.4,0.4,0.6,0.6c0.2,0.1,0.6,0.1,0.5,0.6c-0.1,0.5-0.3,0.7-0.7,0.7
		c-0.3,0-0.7-0.1-0.9,0.2c-0.3-0.2-0.7-0.3-0.9-0.5c-0.2-0.2-0.4-0.3-0.7-0.1c-0.1,0.1-0.3,0.1-0.4,0.1c-0.4-0.3-0.7-0.1-1,0.2
		c-0.1,0.1-0.2,0.2-0.4,0.3c-0.2-0.2-0.5-0.3-0.7-0.4c-0.1,0.1-0.2,0.3-0.3,0.4c-0.2-0.3-0.4-0.6-0.6-0.8c-0.2-0.2-0.5-0.5-0.9-0.4
		c-0.1,0-0.3-0.1-0.5-0.2c-0.6,0.3-0.6,0.3-1,0c-0.6,0.4-1.2,0.8-1.7,1.3c-0.2,0.2-0.1,0.3-0.1,0.5c0.1,0.2,0,0.4-0.2,0.5
		c-0.2,0.1-0.4,0-0.5-0.2c-0.1-0.2-0.2-0.3-0.4-0.5c-0.2,0.3-0.4,0.5-0.5,0.7c-0.1,0.1-0.1,0.3-0.1,0.4c0.2,0.4,0.1,0.6-0.1,0.9
		c-0.1,0.1-0.1,0.2-0.1,0.3c0.3,0.2,0.6,0.3,0.5,0.7c0,0,0.1,0.1,0.1,0.1c0.8,0,1.1,0.6,1.3,1.2c0.1,0.3-0.1,0.6,0.4,0.7
		c-0.4,0.5-0.9,0.8-1.4,1c-0.1,0.1-0.2,0.2-0.3,0.3c-0.2,0.2-0.3,0.5-0.5,0.8c0.2,0.2,0.5,0.4,0.8,0.7c-0.3,0.6-0.2,1.2,0.3,1.7
		c0.2,0.2,0.3,0.4,0.5,0.7c-0.2,0.2-0.4,0.5-0.6,0.6c-0.2,0.1-0.4,0.1-0.6-0.1c-0.2-0.3-0.6-0.5-0.9-0.7c-0.1-0.1-0.3-0.2-0.4-0.3
		c-0.4-0.5-0.6-0.6-1.2-0.4c-0.1,0-0.2,0-0.1,0c-0.4-0.2-0.8-0.5-1.2-0.6c-0.6-0.1-1.1-0.2-1.7-0.4c-0.2-0.1-0.4,0-0.6,0
		c0,0-0.1-0.1-0.2-0.2c-0.4-0.5-0.9-0.8-1.5-1.1c-0.2-0.1-0.4-0.3-0.6-0.4c-0.1-0.1-0.2-0.2-0.3-0.2c-0.4,0.1-0.8,0-1.2,0.2
		c-0.3,0.2-0.7,0.2-0.9,0.5c-0.2,0.2-0.5,0.1-0.7-0.1c0-0.1,0.1-0.3,0.1-0.5c-0.3-0.1-0.6-0.3-0.9-0.4c0.1-0.4,0.5-0.4,0.8-0.7
		c-0.4-0.1-0.8-0.1-1.1-0.2c-0.2,0-0.4-0.1-0.5-0.3c-0.1-0.2-0.3-0.2-0.5,0c-0.3,0.3-0.6,0.6-0.8,1c-0.1,0.3-0.2,0.6-0.3,0.9
		c-0.6,0.1-0.8,0.5-0.8,1.1c0,0.3-0.1,0.6-0.4,0.8c-0.3,0.2-0.4,0.7-0.3,1.1c0,0.1,0.1,0.2,0.1,0.3c-0.4,0.3-0.8-0.2-1.1,0.2
		c-0.1,0.4-0.3,0.8-0.4,1.2c-0.4-0.1-0.7-0.1-1-0.2c-0.1,0.1-0.2,0.2-0.3,0.3c-0.2,0.1-0.4-0.3-0.6,0c0.1,0.1,0.2,0.3,0.3,0.4
		c-0.1,0-0.2,0.1-0.2,0.1c-0.4,0.3-0.5,0.3-0.8,0c-0.1-0.1-0.2-0.2-0.4-0.1c0.1,0.4,0.3,0.7,0.6,1c0.1,0.1,0.4,0,0.6,0
		c-0.2,0.2-0.3,0.3-0.4,0.4c0.5,0.5,1,1,1.6,1.6c-0.3,0-0.6,0-0.8,0c0.1,0.2,0.1,0.5,0.2,0.7l0,0c-0.1,0-0.2,0.1-0.4,0.2
		c0.1-0.5,0-0.9-0.5-1.1c-0.2,0.2-0.3,0.4-0.6,0.7c0,0.2,0.4,0.6-0.1,0.9c-0.1-0.2-0.1-0.3-0.1-0.6c-0.1,0.1-0.2,0.1-0.3,0.2
		c-0.1-0.1-0.1-0.2-0.2-0.4c-0.1,0-0.2,0.1-0.4,0.1c-0.1-0.2-0.2-0.4-0.1-0.5c0-0.4-0.1-0.5-0.4-0.5c-0.4-0.1-0.6-0.5-0.6-0.9
		c0-0.2,0.1-0.4,0.2-0.6c-0.1-0.1-0.2-0.1-0.3-0.2c-0.3-0.2-0.5-0.3-0.5-0.7c0-0.1,0-0.2-0.1-0.3c-0.3-0.2-0.3-0.5-0.2-0.8
		c0.3-0.9-0.2-1.5-1-1.9c-0.2-0.1-0.4-0.1-0.6-0.2c-0.3-0.1-0.6,0-0.7-0.4c0,0-0.2,0-0.2,0c-0.1-0.2-0.1-0.4-0.2-0.5
		c-0.6-0.4-1.2-0.8-1.5-1.5c-0.6-0.1-0.5-0.7-0.8-1c-0.6,0.1-0.6,0.1-0.6,0.7c0,0,0,0,0,0.1c-0.4,0.7,0.1,1,0.5,1.2
		c0.3,0.2,0.5,0.4,0.6,0.8c0.3,1,0.7,1.2,1.7,1.3c0.1,0,0.1,0,0.2,0.1c0,0.1,0,0.3-0.1,0.5c0.5,0.3,0.9,0.5,1.4,0.8
		c0.2,0.1,0.3,0.2,0.5,0.4c0.2,0.2,0.2,0.5,0,0.7c-0.4-0.2-0.6-0.7-1.2-0.6c-0.1,0.1-0.2,0.3-0.3,0.5c0.3,0.3,0.6,0.5,0.5,0.9
		c-0.2,0.1-0.4,0.2-0.5,0.5c-0.1,0.3-0.4,0.7-1,0.5c0,0.3-0.1,0.5-0.1,0.7c0,0.2,0,0.4-0.1,0.7c-0.2,0-0.4,0-0.5-0.1
		c-0.6-0.5-1.5-0.6-2.1-1.3c0.4-0.3,0.8-0.4,1.2-0.2c0.2,0.1,0.5,0,0.8,0c0.1,0,0.2-0.2,0.3-0.4c0.1,0,0.2,0.2,0.3,0.2
		c0.3,0.1,0.7-0.4,0.6-0.8c-0.1-0.4-0.1-0.9-0.7-1c-0.1,0-0.2-0.1-0.2-0.1c-0.1-0.5-0.5-0.5-0.9-0.6c0-0.2,0-0.5-0.3-0.5
		c-0.5,0-0.8-0.3-1.1-0.6c-0.3-0.3-0.5-0.7-1-0.6c0-0.5,0-0.5-0.8-0.4c0.5-0.3,0.4-0.7,0.2-1.1c-0.1-0.3-0.9-0.8-1.1-0.8
		c-0.1,0-0.3,0.1-0.4,0.3c-0.2,0.2-0.4,0.4-0.7,0.5c-0.3,0.1-0.5,0.3-0.7,0.5c-0.3,0.2-0.5,0.3-0.8,0.2c-0.3-0.1-0.7-0.2-1-0.3
		c-0.3-0.1-0.5-0.1-0.8,0.1c-0.4,0.3-0.5,0.5-0.3,1c0.2,0.4,0.1,0.7-0.2,0.9c-0.4,0.2-0.7,0.6-1.2,0.6c-0.2,0-0.4,0.2-0.5,0.4
		c-0.1,0.3-0.4,0.5-0.5,0.7c-0.5,0.7-0.5,0.8,0,1.4c-0.4,0.3-0.8,0.6-0.8,1.2c-0.5,0.1-0.9,0.3-1,0.8c-0.3,0.1-0.6,0.2-0.8,0.2
		c-0.5,0-1-0.1-1.5,0.2c-0.3,0.2-0.3,0.1-0.4,0.6c-0.4-0.1-0.8-0.4-1-0.8c-0.2-0.5-0.4-0.6-0.9-0.4c-0.2,0.1-0.3,0-0.5,0
		c-0.2,0-0.4,0-0.6,0c0-0.4,0-0.8,0.1-1.3c-0.6-0.5-0.6-0.7-0.3-1.4c0.3-0.6,0.5-1.3,0.3-2c0-0.2-0.1-0.4-0.1-0.5
		c0-0.4-0.1-0.7-0.2-1c-0.2-0.4-0.1-0.5,0.3-0.7c0,0,0,0,0.1,0c0.3-0.2,0.5-0.4,0.8-0.5c0.3,0,0.6,0.2,0.9,0.2c0.6,0,1.1,0,1.7,0.2
		c0.1,0,0.3,0,0.4,0c0.5-0.1,1,0,1.5,0.1c0.5,0.1,0.8,0,0.8-0.5c0.1-0.8,0.2-1.7,0.2-2.5c0-0.1-0.1-0.3-0.3-0.4
		c-0.3-0.2-0.5-0.5-0.6-0.8c0-0.2-0.2-0.4-0.4-0.5c-0.4-0.2-0.8-0.3-1.2-0.4c-0.2-0.1-0.3-0.1-0.3-0.4c0-0.2-0.2-0.3-0.3-0.5
		c0.4-0.3,0.9-0.3,1.3-0.4c0.1,0,0.3,0.2,0.4,0.3c0.3,0,0.6-0.1,0.9-0.1c0.2-0.4-0.1-0.8-0.1-1.3c0.2,0,0.4,0,0.4,0.1
		c0.3,0.5,0.7,0.3,1,0.4c0.2-0.5,0.2-0.5,0.8-0.7c0.3-0.1,0.5-0.4,0.5-0.7c0-0.4,0.2-0.6,0.6-0.8c1-0.5,1.8-1.3,2-2.5
		c0.1-0.5,0.3-0.7,0.8-0.8c0.4-0.1,0.7-0.2,1.1-0.3c0.5-0.2,0.7-0.2,1.2-0.1c0.1-0.1,0.2-0.2,0.4-0.4c-0.1-0.3-0.3-0.6-0.4-0.8
		c-0.1-0.2,0-0.4,0-0.6c0-0.2,0.1-0.3,0-0.5c-0.4-0.7-0.2-1.4-0.1-2.1c0.1-0.4,0.3-0.6,0.7-0.6c0.2,0,0.4-0.1,0.5-0.3
		c0.2-0.4,0.5-0.5,0.9-0.6c-0.1,0.4-0.1,0.8-0.2,1.2c-0.1,0.4,0,0.5,0.5,0.9c-0.1,0.3-0.2,0.7-0.3,1.1c-0.1-0.1-0.1-0.1-0.2-0.2
		c0,0.1-0.1,0.2-0.2,0.3c0.2,0,0.3,0,0.4,0c0.4,0,0.5-0.5,1-0.6c0.4,0,0.6-0.4,0.8-0.8c-0.7-0.8-0.9-1.8-1.3-2.7c0-0.1,0-0.2,0-0.4
		c0-0.4-0.1-0.8-0.5-1.1c-0.1,0.2-0.2,0.4-0.6,0.5c-0.1,0-0.3,0.2-0.4,0.3c-0.3,0.3-0.5,0.5-0.7,0.8c-0.3,0.3-0.6,0.4-1,0.4
		c-0.3,0-0.6,0-0.8-0.3c-0.1-0.1-0.2-0.2-0.4-0.3c-0.3-0.2-0.5-0.4-0.4-0.8c0-0.1,0-0.2-0.1-0.3c-0.3-0.2-0.3-0.6-0.3-0.8
		c0.1-0.8-0.3-1.5-0.3-2.2c0,0,0-0.1,0-0.1c0.1-0.3,0.2-0.6,0.2-0.9c0-0.3,0-0.6,0-0.9c0-0.4,0.4-0.6,0.7-0.8
		c0.3-0.2,0.6-0.4,0.8-0.8c0.2-0.3,0.6-0.4,1-0.7c0-0.1,0-0.2-0.1-0.3c0.3-0.3,0.5-0.6,0.8-0.8c0.2,0.1,0.3,0.3,0.5,0.4
		c0.5-0.7,0.9-1.4,1.4-2.1c-0.1-0.1-0.2-0.1-0.3-0.2c0.1-0.1,0.1-0.2,0.2-0.2c0.6-0.1,0.8-0.4,1-1c0.1-0.4,0.3-0.7,0.1-1.1
		c0-0.1,0-0.2,0.1-0.3c0.5-0.7,0.9-1.4,1.4-2.1c0.1-0.1,0.1-0.3,0.2-0.4c0-0.1,0-0.2,0-0.2c0.4-0.1,0.3-0.4,0.3-0.7
		c0-0.2,0.2-0.4,0.3-0.6c0.2-0.2,0.4-0.3,0.6-0.5c-0.3-0.1-0.3-0.1-0.9,0.1c-0.3,0.1-0.6,0.2-0.8,0.3c-0.3,0.1-0.5,0.4-0.9,0.6
		c0.1-1,0.9-1.1,1.6-1.5c-0.4-0.4-0.3-0.8,0.1-1c0.4-0.3,0.7-0.6,1-1c0.3,0.4-0.2,0.6,0,0.9c0.1,0,0.3-0.2,0.4-0.1
		c0.1,0.1,0.2,0.2,0.3,0.4c0.1-0.1,0.2-0.2,0.1-0.4c-0.3-0.6,0-1.2,0.5-1.5c0.4-0.2,0.8-0.4,0.9-1c0-0.5,0.8-0.7,1.2-0.4
		c0,0,0.1,0.1,0.2,0.1c0.1-0.1,0.3-0.2,0.4-0.3c0.1,0.2,0.3,0.3,0.4,0.5c0-0.3,0-0.6,0.4-0.8c0.3,0,0.3,0,0.6-0.1
		c-0.1-0.2-0.3-0.4-0.4-0.6c0.4-0.2,0.8-0.4,1.2-0.6c0.2,0.1,0.5,0.3,0.7,0.4C103,37.2,103,37.1,103,37L103,37z M101.1,49.3
		c-0.1,0.3-0.1,0.5-0.2,0.6c-0.2,0.3-0.2,0.5-0.1,0.8c0.1,0.2,0.1,0.4,0,0.5c-0.4,0.3-0.5,0.7-0.4,1.2c-0.2,0.1-0.5,0.1-0.6,0.2
		c-0.3,0.2-0.6,0.4-0.8,0.7c-0.1,0.1-0.3,0.2-0.4,0.4c-0.2,0.3-0.4,0.7-0.7,1c-0.1,0.1-0.2,0.2-0.2,0.4c0,0.4,0,0.7-0.1,1
		c-0.2,0.4-0.1,0.8-0.1,1.1c0,0.3,0.1,0.5,0.5,0.6c0.4,0.1,0.6,0.4,0.8,0.7c0.3,0.6,0.2,1.2-0.2,1.8c-0.2,0.3-0.5,0.4-0.8,0.5
		c-0.3,0.1-0.5,0.3-0.6,0.7c-0.1,0.6-0.2,1.2-0.3,1.8c0,0,0.1,0,0.1,0.1c0.1-0.1,0.2-0.2,0.3-0.3c0,0,0.1,0,0.1,0.1
		c-0.2,0.6-0.3,1.1-0.5,1.7c0,0-0.1,0-0.1,0c0-0.1-0.1-0.1-0.1-0.2c-0.1,0.2-0.2,0.3-0.4,0.5c-0.1,0-0.2,0-0.3-0.1
		c-0.3-0.2-0.6,0.1-0.8,0.2c-0.2,0.1-0.1,0.3-0.1,0.5c0,0.1-0.1,0.3-0.2,0.3c-0.4,0-0.7,0.2-1.1,0c0-0.1,0-0.3,0-0.5
		c-0.3,0.4-0.5,0.7-0.3,1.1c-0.2,0.2-0.3,0.4-0.5,0.6c-0.5-0.1-0.9-0.2-1.5-0.4c0.1,0.2,0.1,0.4,0.2,0.4c0.3,0.3,0.6,0,0.9,0
		c-0.1,0.2-0.1,0.4-0.2,0.8c0.7-0.4,1.2-0.6,1.7-1c0.2-0.1,0.4-0.1,0.5,0.1c0.1,0.1,0,0.3,0.1,0.4c0.1,0.2,0.4,0.4,0.5,0.4
		c0.5-0.2,1.1-0.2,1.6-0.7c0.4-0.3,0.9-0.5,1.4-0.6c0.4,0,0.6,0.2,0.6,0.6c0.6,0.1,0.7,0,0.9-0.7c0.7-0.2,0.9-0.5,0.9-1.2
		c-0.1-0.7,0-1.3,0.2-2c0.2-0.6,0.5-0.9,1.1-1c0.2,0.3,0.4,0.6,0.6,0.9c0.2,0.3,0.4,0.3,0.6,0.1c0.2-0.1,0.2-0.3,0.2-0.5
		c0-0.4,0-0.7,0-1c-0.2-0.2-0.5-0.3-0.7-0.5c-0.4,0.3-0.8,0.5-1.2,0.8c-0.1-0.2-0.1-0.4-0.2-0.5c0-0.2-0.1-0.4,0.2-0.5
		c0.4-0.1,0.2-0.4,0-0.7c0.3,0,0.5-0.1,0.7-0.1c0.2,0,0.3-0.1,0.5-0.2c0.4-0.3,0.8-0.8,1.4-0.6c0,0,0.1,0,0.1,0
		c0.5-0.3,0.9,0,1.3,0.1c0.3,0.1,0.6,0.1,0.9,0.2c0-0.3,0.1-0.4,0.1-0.5c0.5-0.2,0.9-0.4,1.4-0.5c-0.5-0.1-1-0.1-1.1-0.7
		c-0.4,0-0.8,0-1.1,0.1c-0.6,0.2-1.2,0.4-1.8,0.6c-0.2,0.1-0.5,0.2-0.7,0.2c-0.2,0.1-0.5,0.2-0.7,0.2c0,0-0.1,0-0.1,0
		c0-0.1,0-0.2-0.1-0.3c-0.1,0.1-0.2,0.1-0.4,0.2c0-0.3-0.2-0.4-0.5-0.4c-0.1,0-0.3-0.1-0.4-0.2c-0.1-0.2-0.2-1.1-0.1-1.4
		c0.2-0.5,0.2-1.1,0-1.6c-0.1-0.4-0.2-0.8-0.2-1.2c0-0.4,0.2-0.8,0-1.3c0.3,0.1,0.4,0.1,0.6,0.1c0.3-0.3,0.5-0.7,0.8-0.9
		c0.7-0.5,1.1-1.2,1.4-1.9c0.1-0.1,0-0.3,0.1-0.4c0,0,0-0.1,0.1-0.1c0,0,0.1,0,0.2,0c0.1,0,0.2,0,0.2,0c0.2-0.7,0.2-0.6-0.3-1
		c-0.3-0.3-0.6-0.2-0.9-0.2c-0.2,0-0.6,0.1-0.7,0.3C101.6,49.1,101.4,49.2,101.1,49.3z M115.2,77.3c-0.5,0-1.1,0-1.6,0.3
		c-0.1,0.1-0.2,0.1-0.3,0.1c-0.7,0-1,0.4-1.4,0.9c0.1,0.2,0.2,0.4,0.3,0.5c0.6,0,1.1,0,1.7,0c0.2-0.3,0.4-0.6,0.6-0.9
		c-0.1-0.2-0.2-0.3-0.3-0.5C114.6,77.6,114.9,77.5,115.2,77.3z M92.5,66.8c0,0,0-0.1,0.1-0.1c-0.1-0.1-0.2-0.1-0.3-0.2
		c0,0-0.1,0.1-0.2,0.1C92.2,66.7,92.3,66.7,92.5,66.8z M101.9,61c0,0,0.1,0.1,0.1,0.1c0.2-0.1,0.3-0.1,0.2-0.4
		C102.1,60.8,102,60.9,101.9,61z M110.2,46c0,0-0.1,0.1-0.1,0.1c0.1,0.1,0.2,0.2,0.3,0.2c0,0,0-0.1,0.1-0.1
		C110.4,46.2,110.3,46.1,110.2,46z M87.4,69.2c0,0-0.1-0.1-0.1-0.1c-0.1,0.1-0.1,0.2-0.2,0.3c0,0,0.1,0,0.1,0.1
		C87.2,69.4,87.3,69.3,87.4,69.2z M100.3,87.5c0,0,0.1,0,0.1,0.1c0.1-0.1,0.1-0.2,0.2-0.2c0,0-0.1-0.1-0.1-0.1
		C100.3,87.3,100.3,87.4,100.3,87.5z"/>
	<path class="st1" d="M77.2,62.8c0.2,0,0.4,0,0.7-0.1c0.2-0.5,0.5-1,0.8-1.5c0.4,0,0.8,0,1.2-0.1c0.2-0.4,0.3-0.8,0.4-1.1
		c0.2,0,0.4,0.1,0.6,0.1c-0.2,0.4-0.4,0.8-0.5,1.3c-0.1,0.5-0.8,0.6-0.6,1.3c0.4,0,0.8,0,1.1,0c0.4,0,0.5,0.2,0.4,0.6
		c-0.2,0.4-0.4,0.8-0.6,1.3c-0.1,0.2-0.1,0.4-0.1,0.6c0.2,0.2,0.4,0.3,0.6,0.5c0.2,0.2,0.3,0.4,0.4,0.7c0.1,0.4,0.2,0.9,0.7,1.1
		c0.2,0.1,0.3,0.3,0.4,0.6c0.2,0.5,0.3,1,0.5,1.5c0.2,0,0.4,0,0.6,0.1c0.4,0.1,0.6,0.4,0.5,0.9c-0.1,0.2-0.2,0.5-0.4,0.7
		c-0.1,0.1-0.2,0.3-0.4,0.5c0.2,0.1,0.3,0.1,0.5,0.2c-0.1,0.5-0.6,0.9-1.1,0.8c-0.4,0-0.7,0.1-1,0.1c-0.4,0.1-0.8,0.1-1.2,0.1
		c-0.5-0.1-0.5-0.1-0.7,0.3c0,0.1-0.1,0.1-0.2,0.2c-0.5-0.2-0.9-0.2-1.2,0.3c-0.2,0-0.3-0.1-0.5-0.2c0.3-0.3,0.6-0.6,0.9-0.9
		c0.2-0.3,0.4-0.7,0.9-0.7c-0.3-0.2-0.6-0.4-1-0.3c-0.2,0-0.4,0-0.4-0.2c-0.1-0.2,0.1-0.3,0.3-0.4c0.1,0,0.2-0.1,0.3-0.1
		c0.4-0.2,0.5-0.2,0.3-0.8c-0.1,0-0.3,0-0.4,0c0.1-0.3,0.4-0.5-0.1-0.8c0.3,0,0.5-0.1,0.6,0c0.3,0.1,0.6,0.2,0.8-0.1
		c0.2-0.3,0.1-0.6-0.1-1c-0.1-0.2-0.2-0.5-0.3-0.8c-0.3,0-0.6,0.1-1,0.1c-0.3-0.2-0.3-0.5-0.1-0.8c0.1-0.1,0.1-0.3,0.2-0.5
		c-0.3,0.2-0.5,0.3-0.9,0.5c0-0.3,0-0.5,0-0.7c-0.1,0.1-0.2,0.2-0.3,0.2c-0.1,0-0.2,0-0.3,0c-0.1-0.1-0.1-0.2-0.1-0.3
		c0.1-0.2,0.3-0.4,0.5-0.6c-0.1,0-0.2,0-0.3,0c0-0.1,0-0.3-0.1-0.4c-0.2,0-0.3,0.1-0.4,0.1c0,0,0-0.1-0.1-0.1
		c0.2-0.2,0.5-0.3,0.8-0.5c-0.1-0.2-0.6-0.1-0.4-0.5C77.5,63.3,77.1,63.1,77.2,62.8L77.2,62.8z"/>
	<path class="st1" d="M66.2,47.6c0.1,0.2,0.2,0.3,0.3,0.4c0.2-0.2,0.5-0.5,0.7-0.5c0.4,0,0.8-0.2,1.1,0.3c0.2-0.4,0.4-0.5,0.8-0.3
		c0-0.3,0-0.4,0-0.6c0.5-0.2,0.5-0.2,0.9,0.4c0.2-0.1,0.4-0.2,0.7-0.3c0,0,0,0.1,0.1,0.1c-0.1,0.2-0.2,0.3-0.2,0.4
		c0.1,0.2,0.2,0.4,0.3,0.6c0.1,0.2,0.2,0.4,0.4,0.4c0.5,0.2,0.4,0.6,0.5,1c0.1,0.3-0.1,0.6-0.3,0.9c-0.1,0.2-0.3,0.4-0.5,0.6
		c-0.2,0.2-0.3,0.4-0.6,0.4c-0.3,0.1-0.6,0.3-0.9,0.5c-0.3,0.2-0.5,0.4-0.8,0.4c-0.1,0-0.3,0.1-0.4,0.2c-0.4,0.6-0.9,0.5-1.4,0.3
		c-0.3-0.1-0.3-0.1-0.7,0c-0.3-0.4-0.5-0.7-1.1-0.7c-0.3,0-0.6,0-0.9,0c0-0.1-0.1-0.3-0.1-0.4c0.2-0.1,0.4-0.1,0.5-0.2
		c0.1-0.2,0-0.4,0-0.6c-0.3-0.7-0.4-0.7-1.2-0.6c-0.2,0-0.2,0-0.3-0.3c0.5-0.2,1.2-0.2,1.4-1c-0.2-0.2-0.5-0.2-0.8-0.1
		c-0.4,0.2-0.7,0.1-1-0.1c0.2-0.4,0.4-0.8,0.6-1.2c0.1-0.1,0.3-0.2,0.5-0.3c0-0.1,0-0.4,0.1-0.4c0.2-0.1,0.5,0,0.6,0.1
		c0.3,0.2,0.5,0.5,0.8,0.8c0.1,0.1,0.1,0.3,0.1,0.5c0,0.1,0,0.3,0,0.5c0.3-0.1,0.5-0.2,0.7-0.3C66,48.2,65.6,47.8,66.2,47.6z"/>
	<path class="st1" d="M77.8,66.3c0.2,0.3,0.3,0.6,0.5,0.9c0.2,0.3,0.2,0.5-0.1,0.7c-0.3,0.2-0.5,0.5-0.3,1c0.2,0.6-0.1,1.2-0.3,1.9
		c-0.7-0.1-1.1,0.3-1.6,0.6c-0.2,0.1-0.4,0.2-0.6,0.3c-0.7,0.2-1.1-0.1-1.2-0.8c0,0,0-0.1,0-0.1c0.1-0.2,0.3-0.3,0.4-0.5
		c0.1-0.2,0.3-0.3,0.4-0.5c-0.2-0.3-0.4-0.5-0.6-0.7c0-0.2,0.3-0.4,0-0.7c-0.2-0.3,0-0.6,0.4-0.6c0.1,0,0.3,0,0.4,0
		c0.2,0,0.3-0.1,0.6-0.1c-0.1-0.2-0.2-0.3-0.2-0.3c0.1-0.6,0.5-0.8,1-1c0.1,0,0.3,0,0.4,0C77.2,66.2,77.5,66.3,77.8,66.3
		C77.7,66.3,77.8,66.3,77.8,66.3z"/>
	<path class="st1" d="M127.2,36.9c0.5-0.2,0.1-0.6,0.1-0.9c-0.1,0.2-0.2,0.4-0.3,0.5c-0.2-0.2-0.5-0.5-0.7-0.7c-0.1-0.1,0-0.3,0-0.4
		c-0.2-0.1-0.4-0.2-0.6-0.3c-0.1-0.1-0.1-0.4-0.2-0.7c1.2,0,2.3,0,3.5,0c0.1,0.3,0.3,0.6,0.4,0.9c0.2,0.6,0.6,1.1,1.1,1.5
		c0.2,0.1,0.3,0.3,0.1,0.5c-0.1,0.2-0.2,0.4-0.5,0.3c-0.5-0.1-0.9-0.3-1.4-0.1c0,0-0.1,0-0.2-0.1C128.2,37.4,127.7,37.2,127.2,36.9z
		"/>
	<path class="st1" d="M90.7,82.1c0.2,0.6,0,1.1-0.1,1.6c0.8,0.8,0.3,1.6,0.3,2.4c-0.2,0.1-0.4,0.2-0.6,0.3c-0.1,0-0.3,0.1-0.4,0
		c-0.1-0.1-0.2-0.3-0.2-0.4c0-0.2,0.1-0.4,0.1-0.6c0-0.2,0.1-0.5-0.1-0.7c-0.1-0.1,0-0.4,0-0.6c0.4,0.2,0.6,0,0.8-0.2
		c-0.1-0.4-0.3-0.7-0.4-1C89.9,82.4,90.4,82.4,90.7,82.1z"/>
	<path class="st1" d="M122.9,41.4c0.1-0.3,0.2-0.7,0.4-0.9c0.2-0.4,0.5-0.4,0.9-0.1c0.1,0,0.1,0.1,0.1,0.1c0.7,0.6,0.7,0.9,0,1.4
		c-0.1,0.1-0.2,0.1-0.3,0.2c-0.2,0.1-0.3,0.3-0.6,0.1C123.1,41.9,122.9,41.7,122.9,41.4z"/>
	<path class="st1" d="M109.7,90.5c0.3-0.2,0.6-0.4,1-0.4c0.3,0,0.6-0.2,0.9-0.2c-0.3,0.4-0.5,0.9-1.1,1.1
		C110.1,91,109.9,91,109.7,90.5z"/>
	<path class="st1" d="M77.2,62.8c-0.2,0.4-0.3,0.7-0.5,1.1c0,0,0,0-0.1,0c0-0.3-0.1-0.6-0.1-1c0-0.1,0.1-0.1,0.1-0.2
		c0.1-0.1,0.2-0.2,0.2-0.3c-0.1-0.6,0.4-0.7,0.8-1c0.3,0.5,0,0.7-0.2,1C77.4,62.5,77.3,62.6,77.2,62.8
		C77.1,62.7,77.1,62.7,77.2,62.8C77.2,62.8,77.2,62.8,77.2,62.8C77.2,62.8,77.2,62.8,77.2,62.8z"/>
	<path class="st1" d="M102.4,90.3c0-0.1,0-0.2,0-0.3c0-0.1,0.1-0.1,0.1-0.1c0.8,0.1,1.5,0.3,2.3,0.4c0,0.2-0.1,0.3-0.3,0.3
		c-0.5,0-0.9,0.2-1.4-0.1C103,90.3,102.7,90.4,102.4,90.3z"/>
	<path class="st1" d="M82.2,57.5c0.1,0.4-0.1,1.2-0.4,1.7C81.3,58.5,81.4,57.9,82.2,57.5z"/>
	<path class="st1" d="M77.3,56.1c-0.1-0.3-0.3-0.6-0.6-0.7c0.4-0.7,0.6-0.8,1.1-0.4C77.6,55.4,77.4,55.7,77.3,56.1
		C77.3,56.1,77.3,56.1,77.3,56.1z"/>
	<path class="st1" d="M105.9,89.2c0-0.2,0.1-0.2,0.1-0.4c0.1,0.1,0.3,0.2,0.4,0.3c-0.1,0.2-0.3,0.4-0.4,0.6
		c-0.4-0.6-0.7-1.1-1.2-1.6c0.6,0.3,0.6,0.3,0.7,0.7C105.7,89,105.8,89.1,105.9,89.2z"/>
	<path class="st1" d="M85.4,86.3c-0.2-0.2-0.4-0.3-0.6-0.4c0.3-0.6,0.6-0.6,1-0.1C85.7,85.9,85.6,86.1,85.4,86.3z"/>
	<path class="st1" d="M70.8,97.3c0.4-0.4,0.4-1,0.9-1.2C71.6,96.8,71.3,97.2,70.8,97.3z"/>
	<path class="st1" d="M76.3,36.1c0,0.5,0,0.5-0.9,1C75.4,36.7,75.8,36.2,76.3,36.1z"/>
	<path class="st1" d="M103.5,88.8c0.1,0,0.2-0.1,0.2-0.1c0-0.2,0-0.3,0.2-0.4c0.2-0.1,0.4,0,0.5,0.2c0,0,0.1,0.1,0.1,0.1
		c-0.2,0.1-0.4,0.2-0.7,0.2C103.8,88.9,103.6,89,103.5,88.8C103.5,88.8,103.5,88.8,103.5,88.8z"/>
	<path class="st1" d="M105.1,86.4c-0.4,0.1-0.4,0.1-0.7-0.2C104.8,85.8,104.8,85.8,105.1,86.4z"/>
	<path class="st1" d="M58.9,86.8c0.4-0.1,0.6-0.3,0.9,0C59.5,87.2,59.2,87.1,58.9,86.8z"/>
	<path class="st1" d="M68.7,97c0.3-0.1,0.5-0.2,0.7-0.3c0,0,0.1,0.1,0.1,0.1c-0.1,0.2-0.3,0.3-0.5,0.5C69,97.3,68.9,97.2,68.7,97z"
		/>
	<path class="st1" d="M105.4,87.8c-0.3,0.1-0.6,0.1-1,0.2C105,87.6,105,87.6,105.4,87.8z"/>
	<path class="st1" d="M104.5,87.3c-0.1-0.2-0.2-0.3-0.3-0.5c0.2,0,0.4,0,0.5,0.1C104.8,87,104.7,87.2,104.5,87.3z"/>
	<path class="st1" d="M113.1,49.6c-0.2,0.2-0.3,0.3-0.4,0.5c-0.1-0.1-0.2-0.2-0.3-0.3C112.6,49.5,112.8,49.6,113.1,49.6z"/>
	<path class="st1" d="M84.2,86.9c-0.3-0.5-0.3-0.5,0.1-0.7C84.2,86.4,84.2,86.6,84.2,86.9z"/>
	<path class="st1" d="M104.2,85.3c-0.2,0.2-0.3,0.4-0.5,0.5c0-0.2,0-0.3,0-0.5C103.8,85.3,104,85.3,104.2,85.3z"/>
	<path class="st1" d="M78.8,68.1c0.1-0.2,0.2-0.4,0.4-0.6C79.3,67.9,79.3,67.9,78.8,68.1z"/>
	<path class="st1" d="M69.9,97.7c-0.1-0.1-0.2-0.2-0.2-0.3c0-0.1,0.1-0.2,0.2-0.2c0.1,0.1,0.2,0.1,0.2,0.2
		C70.1,97.4,70,97.5,69.9,97.7z"/>
	<path class="st1" d="M61.4,87.5c0.2,0,0.4,0,0.6,0.1C61.8,87.9,61.6,87.9,61.4,87.5z"/>
	<path class="st1" d="M103,37c-0.1-0.1-0.1-0.1-0.1-0.2c0-0.1,0-0.2,0-0.3c0,0,0.1-0.1,0.1,0c0.1,0.1,0.2,0.1,0.2,0.2
		C103.1,36.8,103,36.9,103,37C103,37,103,37,103,37z"/>
	<path class="st1" d="M86.6,85.6c-0.2-0.1-0.4-0.1-0.6-0.2C86.3,85.2,86.3,85.2,86.6,85.6z"/>
	<path class="st1" d="M68.5,92.6c0.2,0,0.4,0,0.6,0.1C68.8,92.9,68.8,92.9,68.5,92.6z"/>
	<path class="st1" d="M105.5,89.6c0.1,0.3,0.1,0.5-0.3,0.6C105.3,90,105.4,89.9,105.5,89.6z"/>
	<path class="st1" d="M77.3,56.1c0.1,0.1,0.1,0.3,0.2,0.6C77,56.3,77,56.3,77.3,56.1C77.3,56.1,77.3,56.1,77.3,56.1z"/>
	<path class="st1" d="M132.1,41.1c-0.1-0.1-0.2-0.2-0.4-0.4c0.1,0,0.2,0,0.2,0c0.1,0.1,0.2,0.2,0.3,0.3
		C132.2,41,132.1,41,132.1,41.1z"/>
	<path class="st1" d="M68,96.9c0-0.1,0-0.2,0-0.3c0,0,0.1,0,0.2,0c0,0.1,0.1,0.2,0.1,0.3C68.1,96.9,68,96.9,68,96.9z"/>
	<path class="st1" d="M60.5,86.7c-0.1,0-0.2,0.1-0.3,0.1c-0.1,0-0.1-0.1-0.1-0.1c0.1,0,0.1-0.1,0.2-0.1
		C60.3,86.6,60.4,86.6,60.5,86.7z"/>
	<path class="st1" d="M57.1,85.7c0,0.1,0,0.2-0.1,0.3c0,0-0.1,0-0.1,0c0-0.1,0.1-0.2,0.1-0.3C57,85.7,57,85.7,57.1,85.7z"/>
	<path class="st1" d="M92.1,63.5C92,63.4,92,63.4,92,63.4c0.1,0,0.1-0.1,0.2-0.1c0,0,0.1,0,0.1,0C92.2,63.3,92.1,63.4,92.1,63.5z"/>
	<path class="st1" d="M92.9,48.6c0,0.1-0.1,0.1-0.1,0.2c0,0-0.1-0.1-0.1-0.1c0,0,0-0.1,0.1-0.1C92.8,48.5,92.8,48.6,92.9,48.6z"/>
	<path class="st1" d="M94.8,89.4c0.1,0.1,0.2,0.1,0.2,0.2c0,0-0.1,0.1-0.1,0.1C94.9,89.7,94.8,89.6,94.8,89.4
		C94.7,89.5,94.8,89.5,94.8,89.4z"/>
	<path class="st2" d="M101.1,49.3c0.3-0.1,0.6-0.2,0.8-0.5c0.1-0.2,0.4-0.2,0.7-0.3c0.3,0,0.6-0.1,0.9,0.2c0.5,0.4,0.5,0.3,0.3,1
		c-0.1,0-0.1,0-0.2,0c-0.1,0-0.1,0-0.2,0c0,0-0.1,0.1-0.1,0.1c0,0.1,0,0.3-0.1,0.4c-0.3,0.8-0.8,1.4-1.4,1.9
		c-0.3,0.2-0.5,0.6-0.8,0.9c-0.2,0-0.4-0.1-0.6-0.1c0.2,0.5,0,0.9,0,1.3c0,0.4,0,0.8,0.2,1.2c0.2,0.6,0.1,1.1,0,1.6
		c-0.1,0.3-0.1,1.2,0.1,1.4c0.1,0.1,0.3,0.2,0.4,0.2c0.3,0,0.5,0,0.5,0.4c0.1-0.1,0.3-0.1,0.4-0.2c0,0.1,0,0.2,0.1,0.3
		c0,0,0.1,0,0.1,0c0.2-0.1,0.5-0.2,0.7-0.2c0.2-0.1,0.5-0.2,0.7-0.2c0.6-0.2,1.2-0.4,1.8-0.6c0.3-0.1,0.7-0.1,1.1-0.1
		c0.1,0.6,0.6,0.5,1.1,0.7c-0.5,0.2-0.9,0.4-1.4,0.5c0,0.1,0,0.3-0.1,0.5c-0.3-0.1-0.6-0.1-0.9-0.2c-0.4-0.1-0.8-0.4-1.3-0.1
		c0,0-0.1,0-0.1,0c-0.6-0.1-1,0.4-1.4,0.6c-0.1,0.1-0.3,0.2-0.5,0.2c-0.2,0.1-0.4,0.1-0.7,0.1c0.2,0.3,0.4,0.5,0,0.7
		c-0.3,0.1-0.2,0.3-0.2,0.5c0,0.2,0.1,0.4,0.2,0.5c0.4-0.3,0.8-0.6,1.2-0.8c0.3,0.2,0.5,0.3,0.7,0.5c0,0.3,0,0.7,0,1
		c0,0.2,0,0.4-0.2,0.5c-0.3,0.2-0.4,0.2-0.6-0.1c-0.2-0.3-0.4-0.6-0.6-0.9c-0.6,0.1-0.9,0.4-1.1,1c-0.3,0.7-0.3,1.3-0.2,2
		c0.1,0.7-0.2,1-0.9,1.2c-0.2,0.7-0.4,0.8-0.9,0.7c0-0.5-0.2-0.6-0.6-0.6c-0.5,0-1,0.2-1.4,0.6c-0.5,0.4-1.1,0.4-1.6,0.7
		c-0.1,0-0.3-0.2-0.5-0.4c-0.1-0.1-0.1-0.3-0.1-0.4c-0.1-0.2-0.3-0.3-0.5-0.1c-0.5,0.3-1,0.6-1.7,1c0.1-0.3,0.1-0.5,0.2-0.8
		c-0.3,0-0.6,0.3-0.9,0c-0.1-0.1-0.1-0.2-0.2-0.4c0.6,0.1,1.1,0.3,1.5,0.4c0.2-0.2,0.3-0.4,0.5-0.6c-0.2-0.4,0-0.7,0.3-1.1
		c0,0.2,0,0.3,0,0.5c0.4,0.3,0.8,0,1.1,0c0.1,0,0.2-0.2,0.2-0.3c0-0.2-0.1-0.4,0.1-0.5c0.3-0.1,0.5-0.4,0.8-0.2c0.1,0,0.2,0,0.3,0.1
		c0.1-0.2,0.2-0.3,0.4-0.5c0,0.1,0.1,0.2,0.1,0.2c0,0,0.1,0,0.1,0c0.2-0.6,0.3-1.1,0.5-1.7c0,0-0.1,0-0.1-0.1
		c-0.1,0.1-0.2,0.2-0.3,0.3c0,0-0.1-0.1-0.1-0.1c0.1-0.6,0.2-1.2,0.3-1.8c0-0.4,0.2-0.6,0.6-0.7c0.3-0.1,0.6-0.2,0.8-0.5
		c0.4-0.6,0.5-1.1,0.2-1.8c-0.2-0.3-0.4-0.7-0.8-0.7c-0.3-0.1-0.5-0.3-0.5-0.6c0-0.4-0.1-0.8,0.1-1.1c0.1-0.3,0.1-0.7,0.1-1
		c0-0.2,0.1-0.3,0.2-0.4c0.3-0.3,0.5-0.7,0.7-1c0.1-0.2,0.3-0.3,0.4-0.4c0.3-0.2,0.5-0.5,0.8-0.7c0.2-0.1,0.4-0.1,0.6-0.2
		c-0.1-0.4,0-0.8,0.4-1.2c0.2-0.2,0.2-0.3,0-0.5c-0.2-0.3-0.2-0.5,0.1-0.8C101,49.8,101,49.5,101.1,49.3z M98.1,63.9
		c0.1-0.1,0.1-0.1,0.2-0.2c0.4-0.4,0.3-1.1,0.8-1.5C98,62.3,97.7,62.8,98.1,63.9z M99.1,58.7c0.2,0.3,0.5,0.5,0.8,0.4
		c0.3-0.1,0.4-0.4,0.4-0.6c-0.3-0.1-0.6-0.1-0.9-0.2C99.3,58.4,99.2,58.5,99.1,58.7z M95.5,66.7c0-0.1,0.1-0.1,0.1-0.2
		c-0.1-0.1-0.2-0.2-0.4-0.4c0,0.2,0,0.4,0,0.4C95.2,66.7,95.4,66.7,95.5,66.7z"/>
	<path class="st2" d="M115.2,77.3c-0.3,0.1-0.6,0.3-1,0.5c0.1,0.2,0.2,0.3,0.3,0.5c-0.2,0.3-0.4,0.6-0.6,0.9c-0.5,0-1.1,0-1.7,0
		c-0.1-0.1-0.2-0.3-0.3-0.5c0.3-0.5,0.7-0.9,1.4-0.9c0.1,0,0.2,0,0.3-0.1C114.1,77.3,114.7,77.3,115.2,77.3z"/>
	<path d="M92.5,66.8c-0.1-0.1-0.3-0.1-0.5-0.2c0.1-0.1,0.2-0.1,0.2-0.1c0.1,0,0.2,0.1,0.3,0.2C92.5,66.7,92.5,66.7,92.5,66.8z"/>
	<path d="M101.9,61c0.1-0.1,0.2-0.2,0.3-0.3c0.1,0.3-0.1,0.4-0.2,0.4C102,61.1,101.9,61.1,101.9,61z"/>
	<path d="M110.2,46c0.1,0.1,0.2,0.2,0.3,0.3c0,0,0,0.1-0.1,0.1c-0.1-0.1-0.2-0.2-0.3-0.2C110.1,46.1,110.2,46,110.2,46z"/>
	<path d="M87.4,69.2c-0.1,0.1-0.1,0.2-0.2,0.2c0,0-0.1,0-0.1-0.1c0.1-0.1,0.1-0.2,0.2-0.3C87.3,69.2,87.3,69.2,87.4,69.2z"/>
	<path d="M100.3,87.5c0-0.1,0.1-0.2,0.1-0.2c0,0,0.1,0,0.1,0.1c-0.1,0.1-0.1,0.2-0.2,0.2C100.3,87.5,100.3,87.5,100.3,87.5z"/>
	<path class="st1" d="M98.1,63.9c-0.3-1.1,0-1.7,0.9-1.7c-0.5,0.4-0.3,1.1-0.8,1.5C98.2,63.8,98.1,63.8,98.1,63.9z"/>
	<path class="st1" d="M99.1,58.7c0.1-0.1,0.2-0.3,0.3-0.4c0.3,0.1,0.6,0.1,0.9,0.2c0,0.2-0.1,0.5-0.4,0.6
		C99.5,59.2,99.3,58.9,99.1,58.7z"/>
	<path class="st1" d="M95.5,66.7c-0.1,0-0.3,0-0.3-0.1c-0.1-0.1,0-0.2,0-0.4c0.2,0.2,0.3,0.3,0.4,0.4C95.5,66.6,95.5,66.7,95.5,66.7
		z"/>
</g>
</svg>
