<?xml version="1.0" encoding="utf-8"?>
<!-- Generator: Adobe Illustrator 22.1.0, SVG Export Plug-In . SVG Version: 6.00 Build 0)  -->
<svg version="1.1" id="Layer_1" xmlns="http://www.w3.org/2000/svg" xmlns:xlink="http://www.w3.org/1999/xlink" x="0px" y="0px"
	 viewBox="0 0 200 125" style="enable-background:new 0 0 200 125;" xml:space="preserve">
<style type="text/css">
	.st0{fill:#3D98D3;}
	.st1{fill:#FFFFFF;}
	.st2{fill:#354E5C;}
	.st3{fill:#29176F;}
	.st4{fill:#D9261D;}
	.st5{fill:#262626;}
</style>
<path class="st3" d="M99.2,11.8c11.4,0,21.4,6.5,25.7,16.6c0.3,0.6,0.5,0.8,1.2,0.9c4.5,0.4,8.6,1.9,12.4,4.4
	c6.4,4.2,10.5,10.1,12,17.6c1.8,9.4-0.7,17.6-7.1,24.7c-0.6,0.6-1.2,1.2-1.9,1.8c-0.2,0.2-0.3,0.4-0.2,0.7c0.5,2.3,0.8,4.6,0.7,6.9
	c-0.2,9.9-5.7,18.9-14.4,23.7c-3.1,1.7-6.4,2.8-9.9,3.1c-6.3,0.7-12.2-0.5-17.6-3.8c-0.3-0.2-0.6-0.2-0.9,0c-3.3,2-6.8,3.2-10.6,3.7
	c-13,1.8-25.4-5.8-29.7-18.1c-1.2-3.5-1.7-7-1.6-10.7c0.1-1.7,0.3-3.3,0.7-4.9c0.1-0.3,0-0.5-0.2-0.7c-2.8-2.4-5-5.2-6.6-8.4
	c-1.5-2.9-2.4-5.9-2.8-9.1c-0.9-8.4,1.4-15.8,7-22c4.3-4.7,9.6-7.6,15.9-8.7c0.7-0.1,1.5-0.2,2.2-0.3c0.4,0,0.5-0.2,0.7-0.5
	c1.3-3.2,3.2-6,5.6-8.4c4.3-4.4,9.4-7.1,15.5-8.1C96.6,11.9,98.1,11.8,99.2,11.8z M63,76.4c-1.8,5-2,10-0.5,15.1
	c1.5,5.1,4.5,9.2,8.8,12.3c3.6,2.6,7.7,4.1,12.2,4.4c6,0.4,11.5-1.4,16.2-5.1c8.4,6.7,19.7,6.6,27.7,1.3c3.9-2.6,6.8-6.1,8.6-10.4
	c2.4-5.8,2.5-11.6,0.3-17.5c2.8-1.8,5.1-4.1,6.8-6.9c1.8-2.8,3-5.8,3.5-9.1c0.5-3.3,0.3-6.5-0.5-9.7c-1.2-4.3-3.4-8.1-6.7-11.1
	c-4.8-4.4-10.6-6.4-17.1-6.3c-1.4-4.8-3.9-8.8-7.8-12c-3.9-3.2-8.3-4.9-13.3-5.2c-4.7-0.3-9.2,0.7-13.2,3.1c-5.6,3.2-9.2,8-11,14.2
	c-3.4-0.1-6.8,0.4-9.9,1.7c-3.2,1.3-6,3.2-8.3,5.7c-2.3,2.5-4.1,5.4-5.1,8.6c-1.5,4.5-1.6,9-0.4,13.5C54.7,68.6,58,73.1,63,76.4z"/>
<path class="st1" d="M63,76.4c-4.9-3.3-8.2-7.8-9.8-13.5c-1.3-4.5-1.1-9.1,0.4-13.5c1.1-3.3,2.8-6.1,5.1-8.6
	c2.4-2.5,5.1-4.4,8.3-5.7c3.2-1.3,6.5-1.8,9.9-1.7c1.8-6.2,5.4-10.9,11-14.2c4.1-2.4,8.5-3.4,13.2-3.1c5,0.3,9.4,2.1,13.3,5.2
	c3.9,3.2,6.4,7.2,7.8,12c6.5-0.2,12.3,1.9,17.1,6.3c3.3,3,5.5,6.8,6.7,11.1c0.9,3.2,1,6.4,0.5,9.7c-0.5,3.3-1.7,6.3-3.5,9.1
	c-1.8,2.8-4.1,5.1-6.8,6.9c2.1,5.9,2.1,11.7-0.3,17.5c-1.8,4.4-4.7,7.8-8.6,10.4c-7.9,5.3-19.2,5.4-27.7-1.3
	c-4.8,3.7-10.2,5.5-16.2,5.1c-4.5-0.3-8.5-1.7-12.2-4.4c-4.3-3.1-7.3-7.2-8.8-12.3C60.9,86.5,61.1,81.4,63,76.4z M120.4,35.9
	c-1.2-8.7-8.4-16.8-18.8-17.8c-4.5-0.4-8.7,0.5-12.6,2.8c-5.7,3.4-9.1,8.5-10.2,15c-3.2-0.5-6.4-0.3-9.4,0.6
	c-3.1,0.9-5.8,2.5-8.2,4.6c-2.4,2.2-4.2,4.8-5.4,7.8c-1.6,4.1-2,8.4-0.9,12.7c1.6,6.3,5.3,10.9,11,13.9c-1.5,3-2.3,6.1-2.3,9.3
	c0,3.3,0.6,6.4,2,9.3c1.4,3,3.4,5.5,5.9,7.5c3.4,2.7,7.3,4.3,11.7,4.5c6.3,0.4,11.8-1.7,16.3-6.1c0.1,0,0.1,0,0.1,0
	c0.1,0.1,0.2,0.2,0.3,0.3c5.5,5.1,12,6.9,19.3,5.3c8.5-1.8,15.4-9.1,16.2-18.7c0.3-3.9-0.3-7.6-2.1-11.1c-0.1-0.1-0.1-0.2-0.1-0.4
	c4.5-2.3,7.8-5.8,9.8-10.4c2-4.7,2.3-9.5,0.9-14.3c-1.3-4.4-3.8-8-7.5-10.8C131.7,36.3,126.3,35,120.4,35.9z"/>
<path class="st4" d="M120.4,35.9c5.9-0.8,11.3,0.5,16.1,4c3.7,2.8,6.2,6.4,7.5,10.8c1.4,4.9,1.2,9.7-0.9,14.3
	c-2,4.6-5.3,8.1-9.8,10.4c0,0.1,0.1,0.3,0.1,0.4c1.7,3.5,2.4,7.2,2.1,11.1c-0.8,9.6-7.7,16.9-16.2,18.7c-7.3,1.6-13.8-0.2-19.3-5.3
	c-0.1-0.1-0.2-0.2-0.3-0.3c0,0-0.1,0-0.1,0c-4.5,4.4-10,6.5-16.3,6.1c-4.4-0.2-8.3-1.8-11.7-4.5c-2.6-2-4.5-4.6-5.9-7.5
	c-1.4-3-2-6.1-2-9.3c0-3.3,0.8-6.4,2.3-9.3c-5.7-3-9.4-7.6-11-13.9c-1.1-4.3-0.7-8.6,0.9-12.7c1.2-3,3-5.6,5.4-7.8
	c2.4-2.2,5.1-3.7,8.2-4.6c3.1-0.9,6.2-1.1,9.4-0.6c1.2-6.6,4.5-11.6,10.2-15c3.9-2.3,8.1-3.2,12.6-2.8
	C112,19.1,119.2,27.2,120.4,35.9z M117.9,39.4c0-4.8-1.6-9.1-4.8-12.6c-3.3-3.6-7.4-5.6-12.2-5.9c-4.3-0.3-8.2,0.8-11.7,3.3
	c-5.2,3.7-7.7,8.9-7.8,15.2c-9.7-3.2-19.5,2-22.9,10.5c-1.7,4.2-1.8,8.6-0.2,12.8c2.1,5.7,6.1,9.5,11.8,11.5
	c-1.9,2.6-3.1,5.5-3.5,8.6c-0.4,3.2,0,6.2,1.2,9.2c1.2,3,3,5.5,5.6,7.5c3.6,2.8,7.7,4.1,12.2,3.9c5.9-0.3,10.6-3,14.2-7.8
	c1.9,2.6,4.2,4.6,7.1,6c2.9,1.4,6,2,9.1,1.7c3.2-0.2,6.1-1.2,8.8-2.9c3.7-2.5,6.3-5.9,7.5-10.2c1.6-5.8,0.6-11.1-2.9-16.1
	c4.8-1.6,8.4-4.5,10.8-9c2.3-4.4,2.8-9.1,1.3-13.9c-1.4-4.4-4.1-7.8-8-10.2C128.4,38.2,123.3,37.7,117.9,39.4z"/>
<path class="st1" d="M117.9,39.4c5.4-1.7,10.5-1.2,15.4,1.7c4,2.4,6.7,5.8,8,10.2c1.5,4.8,1,9.5-1.3,13.9c-2.3,4.4-6,7.4-10.8,9
	c3.5,4.9,4.5,10.3,2.9,16.1c-1.2,4.3-3.7,7.7-7.5,10.2c-2.7,1.8-5.6,2.7-8.8,2.9c-3.2,0.2-6.3-0.4-9.1-1.7c-2.9-1.4-5.2-3.4-7.1-6
	c-3.5,4.8-8.2,7.5-14.2,7.8c-4.5,0.2-8.6-1.1-12.2-3.9c-2.5-2-4.4-4.5-5.6-7.5c-1.2-3-1.6-6-1.2-9.2c0.4-3.2,1.6-6,3.5-8.6
	c-5.8-2-9.8-5.7-11.8-11.5c-1.6-4.3-1.4-8.6,0.2-12.8c3.4-8.5,13.1-13.7,22.9-10.5c0.1-6.4,2.6-11.5,7.8-15.2
	c3.5-2.5,7.4-3.6,11.7-3.3c4.8,0.3,8.9,2.3,12.2,5.9C116.3,30.3,117.9,34.5,117.9,39.4z M114.4,49.5c0-8.1-6.6-14.7-14.7-14.8
	c-8.1,0-14.8,6.6-14.8,14.7c0,8.2,6.6,14.8,14.8,14.8C107.8,64.3,114.4,57.7,114.4,49.5z M75,74.8c-0.7,4.1-1.5,8.1-2.2,12.1
	c0.5,0.1,1,0.2,1.5-0.1c1.3-0.6,2.5-1.1,3.8-1.7c0.1-0.1,0.3-0.1,0.4-0.2c1.2,1,2.5,1.5,4,1.6c1.5,0.1,2.9-0.1,4.2-0.8
	c0.6,0.6,1.3,1.2,1.9,1.8c0.1-0.1,0.1-0.1,0.1-0.1c1.8-1.9,3.7-3.8,5.5-5.8c0.3-0.4,0.3-1.1-0.1-1.5c-1.9-1.8-3.7-3.5-5.6-5.3
	c-0.1-0.1-0.2-0.2-0.3-0.3c-0.7,0.7-1.4,1.4-2.1,2.1c-1.3-0.4-2.5-0.7-3.8-0.6c-1.3,0.1-2.5,0.5-3.6,1.1c-0.1-0.1-0.2-0.2-0.4-0.3
	c-0.7-0.6-1.4-1.3-2-2c-0.4-0.4-0.8-0.5-1.3-0.4C75.2,74.8,75.1,74.8,75,74.8z M112.7,87c0.2,0,0.4,0,0.6,0c0.8,0,1.6,0,2.5,0
	c0.3,0,0.7-0.1,1-0.3c1-0.5,1.1-1.9,0.3-2.6c-0.1-0.1-0.1-0.1-0.2-0.2c0.1-0.1,0.1-0.1,0.2-0.2c0.7-0.9,0.3-2-0.8-2.3
	c-0.1,0-0.3-0.1-0.4-0.1c-1,0-2,0-3,0c0,0-0.1,0-0.1,0.1C112.7,83.3,112.7,85.1,112.7,87z M107.4,78.1c0.1-0.1,0.2-0.1,0.3-0.1
	c0.7-0.3,1.1-0.8,1.2-1.6c0.1-0.8-0.3-1.4-1.1-1.6c-1.1-0.3-2.2-0.2-3.3,0c-0.4,1.8-0.8,3.5-1.2,5.3c0.7,0,1.2,0,1.8,0
	c0.1-0.3,0.1-0.6,0.2-0.9c0.1-0.3,0.1-0.5,0.2-0.8c0,0,0.1,0,0.1,0c0.2,0.5,0.4,1.1,0.6,1.6c0.7,0,1.3,0,2,0c0-0.1,0-0.1,0-0.2
	C108,79.3,107.7,78.7,107.4,78.1z M101.9,83.3c0-0.8-0.4-1.3-1-1.7c-1-0.7-3.1-0.6-3.9,1.1c-0.5,1-0.5,2-0.1,3
	c0.7,1.5,2.4,2,3.8,1.1c0,0,0.1,0,0.1,0c0.1,0.1,0.1,0.2,0.2,0.3c0.3,0,0.6,0,0.9,0c0.1-0.9,0.1-2.8,0-3.1c-0.8,0-1.6,0-2.4,0
	c0,0.4,0,0.7,0,1.1c0.4,0,0.7,0,1.1,0c0,0.1,0,0.2,0,0.2c-0.2,0.4-0.5,0.6-0.9,0.7c-0.5,0-1-0.1-1.3-0.6c-0.4-0.8-0.4-1.6,0-2.3
	c0.2-0.4,0.7-0.6,1.2-0.6c0.5,0,0.8,0.3,0.9,0.7c0,0.1,0.1,0.1,0.1,0.2C101,83.3,101.5,83.3,101.9,83.3z M119.3,81.3
	c-0.7,1.9-1.4,3.7-2.1,5.7c0.5,0,1,0,1.5,0c0.1-0.4,0.3-0.8,0.4-1.1c0.6,0,1.3,0,1.9,0c0.2,0.4,0.3,0.8,0.4,1.2c0.5,0,0.9,0,1.5,0
	c-0.7-1.9-1.4-3.8-2.1-5.7C120.2,81.3,119.8,81.3,119.3,81.3z M108.6,79.9c0.9,0.2,1.6,0.3,2.4,0.2c0.8-0.2,1.4-0.6,1.7-1.3
	c0.3-0.7,0.2-1.3-0.5-1.7c-0.3-0.2-0.6-0.3-0.8-0.5c-0.2-0.1-0.3-0.2-0.5-0.3c0.6-0.6,1.2-0.2,1.8-0.1c0.1-0.5,0.2-0.9,0.4-1.3
	c-0.8-0.3-2-0.3-2.8,0.1c-0.3,0.2-0.6,0.4-0.8,0.6c-0.6,0.7-0.5,1.5,0.3,2c0.3,0.2,0.6,0.3,0.9,0.5c0.1,0.1,0.2,0.2,0.3,0.3
	c-0.1,0.1-0.2,0.3-0.4,0.3c-0.3,0-0.7,0-1-0.1c-0.2,0-0.4-0.1-0.6-0.2C108.8,79,108.7,79.4,108.6,79.9z M98.6,80
	c0.2-0.6,0.3-1.2,0.5-1.9c0.6,0,1.2,0,1.8,0c0.1-0.4,0.2-0.8,0.3-1.3c-0.6,0-1.2,0-1.8,0c0.1-0.3,0.1-0.5,0.2-0.8c0.6,0,1.2,0,1.7,0
	c0.1-0.5,0.2-0.9,0.3-1.4c-1.3,0-2.4,0-3.7,0c-0.4,1.8-0.8,3.5-1.2,5.3C97.3,80,97.9,80,98.6,80z M112.3,84.2c0-1.7-1.3-3-2.9-3
	c-1.7,0-3,1.3-3,3c0,1.7,1.3,3,3,3C111,87.2,112.3,85.9,112.3,84.2z M114.5,76.3c-0.2,0.7-0.3,1.3-0.5,1.9c-0.1,0.6-0.3,1.2-0.4,1.8
	c0.6,0,1.2,0,1.8,0c0.3-1.3,0.6-2.5,0.9-3.8c0.5,0,0.9,0,1.4,0c0.1-0.5,0.2-1,0.3-1.5c-1.6,0-3.1,0-4.6,0c-0.1,0.5-0.3,1-0.4,1.5
	C113.5,76.3,113.9,76.3,114.5,76.3z M123.1,81.4c0,1.9,0,3.8,0,5.7c1.4,0,2.7,0,4,0c0-0.4,0-0.8,0-1.2c-0.9,0-1.7,0-2.7,0
	c0-1.5,0-3,0-4.4C124,81.4,123.6,81.4,123.1,81.4z M106.5,85.8c-0.9,0-1.7,0-2.7,0c0-1.5,0-3,0-4.4c-0.5,0-0.9,0-1.4,0
	c0,1.9,0,3.8,0,5.6c0.5,0.1,3.7,0.1,4,0C106.5,86.6,106.5,86.2,106.5,85.8z M100.9,80c0.7,0,1.3,0,1.9,0c0.4-1.8,0.8-3.5,1.2-5.3
	c-0.7,0-1.3,0-1.9,0C101.7,76.5,101.3,78.2,100.9,80z M116.5,79.7c0-0.1,0.1-0.3-0.1-0.4c0,0-0.2,0.1-0.2,0.2
	C116.2,79.8,116.3,79.8,116.5,79.7z"/>
<path class="st3" d="M114.4,49.5c0,8.2-6.6,14.8-14.8,14.8c-8.2,0-14.8-6.6-14.8-14.8c0-8.1,6.7-14.7,14.8-14.7
	C107.8,34.8,114.4,41.3,114.4,49.5z"/>
<path class="st5" d="M106.2,49.5c0-3.7-3-6.6-6.6-6.6c-3.7,0-6.6,3-6.6,6.6c0,3.7,3,6.6,6.7,6.6C103.3,56.1,106.2,53.1,106.2,49.5z"
	/>
<path class="st5" d="M86.5,49.4c0,0,0,0.1,0,0.1c1.9,0.5,3.8,1,5.7,1.5c0-1.1,0-2.1,0-3.2C90.3,48.4,88.4,48.9,86.5,49.4z"/>
<path class="st5" d="M112.7,49.6c0,0,0-0.1,0-0.1c-1.9-0.5-3.8-1-5.7-1.5c0,0.6,0.1,1.1,0.1,1.6c0,0.5,0,1-0.1,1.6
	C108.9,50.6,110.8,50.1,112.7,49.6z"/>
<path class="st5" d="M110.9,56.1c-1.4-1.4-2.8-2.9-4.3-4.3c-0.3,0.9-0.8,1.9-1.5,2.7C107.1,55.1,109,55.6,110.9,56.1z"/>
<path class="st5" d="M94.1,54.6c-0.7-0.8-1.2-1.8-1.5-2.7c-1.4,1.4-2.8,2.8-4.2,4.2C90.2,55.6,92.1,55.1,94.1,54.6z"/>
<path class="st5" d="M106.7,47.2c1.5-1.5,2.9-2.8,4.3-4.3c-0.7,0.1-5.5,1.4-5.8,1.6C105.9,45.3,106.3,46.2,106.7,47.2z"/>
<path class="st5" d="M106.2,38.2c0,0-0.1,0-0.1-0.1c-1.4,1.4-2.8,2.8-4.2,4.2c0.4,0.2,0.7,0.3,1,0.4c0.3,0.2,0.6,0.3,0.9,0.5
	c0.3,0.2,0.5,0.4,0.8,0.6C105.1,42,105.7,40.1,106.2,38.2z"/>
<path class="st5" d="M98,56.9c0.5,1.9,1,3.8,1.5,5.7c0,0,0.1,0,0.1,0c0.5-1.9,1-3.8,1.5-5.7C100.1,56.9,99.1,56.9,98,56.9z"/>
<path class="st5" d="M97.2,42.3c-0.6-0.8-3.8-4-4.2-4.2c0.5,1.9,1,3.8,1.6,5.7C95.5,43.3,96.3,42.8,97.2,42.3z"/>
<path class="st5" d="M92.5,47.2c0.2-0.5,0.4-1,0.7-1.4c0.3-0.4,0.6-0.9,0.8-1.3c-1.2-0.4-5.4-1.5-5.8-1.5
	C89.6,44.4,91,45.8,92.5,47.2z"/>
<path class="st5" d="M97.2,56.6c-0.9-0.3-1.8-0.9-2.6-1.6c-0.3,0.5-1.6,5.4-1.6,5.7C94.4,59.4,95.8,58,97.2,56.6z"/>
<path class="st5" d="M101.9,56.6c0.1,0.1,0.2,0.2,0.3,0.3c1.3,1.3,2.6,2.6,3.9,3.9c0,0,0,0,0,0c0,0,0,0,0.1-0.1
	c-0.5-1.9-1-3.8-1.6-5.7C103.8,55.8,102.9,56.3,101.9,56.6z"/>
<path class="st5" d="M101.1,42.2c0-0.7-1.3-5.5-1.6-5.8c-0.3,1-0.5,1.9-0.8,2.9c-0.2,0.9-0.5,1.9-0.7,2.9
	C99.1,42,100.1,42,101.1,42.2z"/>
<path d="M75,74.8c0.1,0,0.2,0,0.3-0.1c0.5-0.1,0.9,0,1.3,0.4c0.6,0.7,1.4,1.3,2,2c0.1,0.1,0.2,0.2,0.4,0.3c1.1-0.6,2.3-1,3.6-1.1
	c1.3-0.1,2.5,0.2,3.8,0.6c0.7-0.7,1.4-1.4,2.1-2.1c0.1,0.1,0.2,0.2,0.3,0.3c1.9,1.8,3.7,3.5,5.6,5.3c0.4,0.4,0.4,1.1,0.1,1.5
	c-1.8,1.9-3.7,3.8-5.5,5.8c0,0-0.1,0-0.1,0.1c-0.6-0.6-1.2-1.2-1.9-1.8c-1.3,0.7-2.8,0.9-4.2,0.8c-1.5-0.1-2.8-0.6-4-1.6
	c-0.1,0.1-0.3,0.1-0.4,0.2c-1.3,0.6-2.6,1.1-3.8,1.7c-0.5,0.2-1,0.2-1.5,0.1C73.5,82.9,74.3,78.8,75,74.8z M94.4,80.7
	c-2-1.9-4-3.8-6-5.8c-1.9,2-3.8,4-5.7,6c1,0.9,1.9,1.8,2.8,2.7c0.5-0.2,0.9-0.4,1.3-0.8c-0.6-0.6-1.3-1.3-1.9-1.9
	c1.2-1.3,2.4-2.5,3.7-3.8c1.3,1.2,2.5,2.4,3.7,3.6c-1.6,1.7-3.1,3.3-4.7,4.9c0.4,0.4,0.8,0.7,1.2,1.1C90.6,84.7,92.4,82.7,94.4,80.7
	z M75.9,84.3c0.4-2.2,0.8-4.3,1.2-6.4c0.8,0.5,4,3.6,4.2,3.9c-0.5,0.3-1.1,0.5-1.7,0.8c0.2,0.2,0.3,0.3,0.4,0.4
	c0.8,0.6,0.8,0.6,1.7,0.2c0.1,0,0.2-0.1,0.3-0.1c0.4-0.2,0.8-0.4,1.2-0.6c-0.1-0.2-0.2-0.3-0.4-0.4c-0.3-0.2-0.4-0.5-0.4-0.8
	c0-0.2-0.1-0.4-0.3-0.6c-2-1.9-3.9-3.7-5.9-5.6c-0.1-0.1-0.2-0.1-0.3-0.2c-0.7,4-1.4,7.9-2.1,11.8c0.7-0.2,4.1-1.7,4.4-1.9
	c-0.3-0.4-0.5-0.7-0.8-1.1C76.9,83.9,76.5,84.1,75.9,84.3z M88.1,78.4c-0.3,0.3-0.5,0.6-0.8,0.8c0.1,0.1,0.1,0.2,0.2,0.3
	c0.6,1.2,0.4,2.4-0.6,3.3c-0.4,0.4-1,0.7-1.5,0.9c-1.4,0.5-2.8,0.5-4.1,0.1c-0.7-0.2-1.3-0.6-1.9-1.2c-0.6-0.6-0.9-1.3-0.7-2.2
	c0-0.1,0-0.3,0-0.4c-0.3-0.3-0.5-0.6-0.9-0.9c-0.7,1.1-0.7,2.3-0.1,3.4c0.4,0.7,1,1.3,1.7,1.7c2.6,1.5,5.2,1.5,7.8,0
	c0.7-0.4,1.2-0.9,1.6-1.5C89.6,81.5,89.4,79.7,88.1,78.4z M79.1,77.6c0.4,0.4,0.7,0.7,1,1c1.6-1,3.3-1.1,5-0.6
	c0.3-0.3,0.6-0.6,0.9-1C83.7,76.2,81.4,76.2,79.1,77.6z M88.4,78c0,0.2-0.1,0.3-0.1,0.3c0.1,0.1,0.2,0.2,0.2,0.3
	c0.6,0.7,0.9,1.6,0.9,2.5c0,0.7-0.1,1.4-0.3,2c0,0.1,0,0.1,0,0.3c0.8-0.9,1.6-1.6,2.4-2.5C90.5,80,89.5,79,88.4,78z M84.2,78.9
	c-0.9-0.3-2.7-0.1-3.2,0.4c0.5,0.5,1,0.9,1.5,1.4C83.1,80.1,83.6,79.5,84.2,78.9z M85.4,81.2c0.5,0.5,1,1,1.5,1.4
	c0.3-0.3,0.5-0.7,0.6-1.1c0-0.2,0-0.4,0-0.6c-0.2-0.4-0.4-0.7-0.8-1C86.3,80.4,85.8,80.7,85.4,81.2z M81.3,83.6
	c0.6,0.4,2.4,0.5,3.2,0.2c-0.3-0.3-0.6-0.7-1-1c-0.1-0.1-0.2-0.1-0.3,0C82.6,83,82,83.3,81.3,83.6z M77.2,83c-0.1-0.7-0.2-1.4-0.2-2
	c0-0.7,0.2-1.3,0.6-2c-0.1-0.1-0.1-0.2-0.2-0.2c0,0-0.1,0-0.2-0.1c-0.3,1.5-0.6,3-0.9,4.6C76.7,83.2,76.9,83.1,77.2,83z M80.2,81.8
	c-0.4-0.4-0.7-0.8-1.1-1.1c-0.4,0.5-0.5,0.8,0.1,1.5C79.6,82.1,79.9,81.9,80.2,81.8z"/>
<path d="M112.7,87c0-1.9,0-3.8,0-5.6c0,0,0.1-0.1,0.1-0.1c1,0,2,0,3,0c0.1,0,0.3,0,0.4,0.1c1.1,0.3,1.5,1.4,0.8,2.3
	c-0.1,0.1-0.1,0.1-0.2,0.2c0.1,0.1,0.2,0.1,0.2,0.2c0.8,0.7,0.7,2.1-0.3,2.6c-0.3,0.2-0.6,0.3-1,0.3c-0.8,0-1.6,0-2.5,0
	C113,87,112.9,87,112.7,87z M114.1,85.8c0.5,0,0.9,0,1.4,0c0.4,0,0.5-0.3,0.5-0.6c0-0.3-0.2-0.6-0.5-0.6c-0.4,0-0.9,0-1.4,0
	C114.1,85,114.1,85.4,114.1,85.8z M114.1,83.5c0.5,0,0.8,0,1.2,0c0.3,0,0.5-0.2,0.5-0.5c0-0.3-0.2-0.5-0.5-0.5c-0.4,0-0.8,0-1.2,0
	C114.1,82.9,114.1,83.2,114.1,83.5z"/>
<path d="M107.4,78.1c0.3,0.6,0.6,1.2,0.9,1.8c0,0,0,0.1,0,0.2c-0.7,0-1.3,0-2,0c-0.2-0.5-0.4-1.1-0.6-1.6c0,0-0.1,0-0.1,0
	c-0.1,0.3-0.1,0.5-0.2,0.8c-0.1,0.3-0.1,0.6-0.2,0.9c-0.6,0-1.2,0-1.8,0c0.4-1.8,0.8-3.5,1.2-5.3c1.1-0.1,2.2-0.3,3.3,0
	c0.8,0.2,1.2,0.8,1.1,1.6c-0.1,0.7-0.5,1.3-1.2,1.6C107.6,78,107.5,78,107.4,78.1z M105.8,77.2c0.4,0.1,0.6,0,0.9-0.2
	c0.2-0.2,0.4-0.5,0.3-0.8c-0.1-0.2-0.3-0.3-0.7-0.3c0,0-0.1,0-0.2,0.1C106,76.4,105.9,76.8,105.8,77.2z"/>
<path d="M101.9,83.3c-0.5,0-0.9,0-1.3,0c0,0-0.1-0.1-0.1-0.2c-0.1-0.4-0.5-0.7-0.9-0.7c-0.5,0-0.9,0.1-1.2,0.6
	c-0.4,0.8-0.4,1.6,0,2.3c0.3,0.5,0.7,0.6,1.3,0.6c0.4,0,0.8-0.2,0.9-0.7c0-0.1,0-0.1,0-0.2c-0.4,0-0.7,0-1.1,0c0-0.4,0-0.7,0-1.1
	c0.8,0,1.6,0,2.4,0c0.1,0.3,0.1,2.3,0,3.1c-0.3,0-0.6,0-0.9,0c0-0.1-0.1-0.2-0.2-0.3c-0.1,0-0.1,0-0.1,0c-1.4,0.9-3.1,0.4-3.8-1.1
	c-0.4-1-0.4-2,0.1-3c0.8-1.7,2.9-1.7,3.9-1.1C101.5,82,101.9,82.5,101.9,83.3z"/>
<path d="M119.3,81.3c0.5,0,0.9,0,1.4,0c0.7,1.9,1.4,3.7,2.1,5.7c-0.5,0-1,0-1.5,0c-0.1-0.4-0.3-0.7-0.4-1.2c-0.6,0-1.2,0-1.9,0
	c-0.1,0.4-0.3,0.8-0.4,1.1c-0.5,0-0.9,0-1.5,0C117.9,85.1,118.6,83.2,119.3,81.3z M119.4,84.6c0.4,0,0.7,0,1.1,0
	c-0.2-0.5-0.3-0.9-0.5-1.4c0,0-0.1,0-0.1,0C119.8,83.7,119.6,84.1,119.4,84.6z"/>
<path d="M108.6,79.9c0.1-0.5,0.3-1,0.4-1.5c0.2,0.1,0.4,0.1,0.6,0.2c0.3,0,0.7,0.1,1,0.1c0.1,0,0.2-0.2,0.4-0.3
	c-0.1-0.1-0.2-0.2-0.3-0.3c-0.3-0.2-0.6-0.3-0.9-0.5c-0.8-0.5-0.9-1.3-0.3-2c0.2-0.2,0.5-0.5,0.8-0.6c0.8-0.4,2-0.5,2.8-0.1
	c-0.1,0.4-0.2,0.9-0.4,1.3c-0.6,0-1.2-0.5-1.8,0.1c0.2,0.1,0.4,0.2,0.5,0.3c0.3,0.2,0.6,0.3,0.8,0.5c0.6,0.4,0.8,1,0.5,1.7
	c-0.4,0.7-1,1.1-1.7,1.3C110.2,80.3,109.4,80.2,108.6,79.9z"/>
<path d="M98.6,80c-0.6,0-1.2,0-1.9,0c0.4-1.8,0.8-3.5,1.2-5.3c1.2,0,2.4,0,3.7,0c-0.1,0.5-0.2,0.9-0.3,1.4c-0.6,0-1.1,0-1.7,0
	c-0.1,0.3-0.1,0.5-0.2,0.8c0.6,0,1.2,0,1.8,0c-0.1,0.5-0.2,0.9-0.3,1.3c-0.6,0-1.2,0-1.8,0C98.9,78.8,98.7,79.4,98.6,80z"/>
<path d="M112.3,84.2c0,1.6-1.3,3-3,3c-1.7,0-3-1.4-3-3c0-1.7,1.4-3,3-3C111,81.2,112.3,82.6,112.3,84.2z M108.1,82.9
	c-0.1,0.4-0.1,0.8-0.2,1.2c0.5,0.1,0.9,0.2,1.3,0.1c0-0.4,0-0.7,0-1.1C108.8,83.1,108.5,83,108.1,82.9z M110.7,84.1
	c0-0.5,0-0.8-0.2-1.2c-0.2,0-0.3,0.1-0.5,0.1c-0.2,0-0.3,0.1-0.5,0.1c0,0.4,0,0.8,0,1.2C109.9,84.2,110.3,84.2,110.7,84.1z
	 M109.2,84.6c-0.3,0-0.5,0-0.7-0.1c-0.2,0-0.4-0.1-0.7-0.1c0.1,0.3,0.1,0.6,0.1,0.9c0,0.1,0.2,0.3,0.3,0.3c0.3,0.1,0.6,0.1,0.9,0
	c0-0.2,0-0.3,0-0.5C109.2,85,109.2,84.8,109.2,84.6z M109.5,85.7c1.2,0,1.1,0,1.2-1c0-0.1,0-0.1,0-0.2c-0.4,0.1-0.8,0.1-1.2,0.2
	C109.5,85,109.5,85.3,109.5,85.7z M111.9,83.9c-0.3,0.1-0.5,0.2-0.8,0.4c-0.1,0-0.1,0.1-0.1,0.2c0,0.3-0.1,0.6-0.1,0.9
	C111.9,85.1,112.1,84.9,111.9,83.9z M107.7,85.4c0-0.4-0.1-0.7-0.1-1.1c-0.3-0.1-0.6-0.3-0.9-0.4C106.5,84.9,106.7,85.1,107.7,85.4z
	 M111.3,82.5c-0.2,0.1-0.3,0.2-0.5,0.3c0.1,0.4,0.1,0.8,0.2,1.2c0.3-0.2,0.6-0.3,0.8-0.5C111.8,83.1,111.6,82.8,111.3,82.5z
	 M107.5,84c0.1-0.5,0.2-0.8,0.2-1.2c-0.2-0.1-0.3-0.2-0.5-0.3c-0.3,0.3-0.5,0.6-0.6,1.1C107,83.7,107.2,83.8,107.5,84z M109.1,81.6
	c-0.5,0.2-0.8,0.5-0.9,1c0.3,0.2,0.6,0.2,0.9,0.2C109.1,82.4,109.1,82,109.1,81.6z M110.4,82.6c-0.2-0.5-0.5-0.9-0.9-1
	c0,0.4,0,0.8,0,1.2C109.8,82.7,110.1,82.7,110.4,82.6z M109.1,86.9c0-0.3,0-0.5,0-0.8c-0.3,0-0.6-0.1-0.9-0.1
	C108.4,86.4,108.6,86.7,109.1,86.9z M109.5,86.8c0.5-0.1,0.7-0.3,0.9-0.9c-0.3,0-0.6,0.1-0.9,0.1C109.5,86.3,109.5,86.6,109.5,86.8z
	 M107,85.5c0.3,0.5,0.7,0.9,1.2,1.1C108,86,107.7,85.6,107,85.5z M110.4,86.7c0.6-0.2,0.9-0.6,1.2-1.1
	C110.9,85.6,110.6,86,110.4,86.7z M107.5,82.2c0.2,0.1,0.3,0.2,0.4,0.3c0.1-0.2,0.2-0.4,0.4-0.6c0,0,0,0-0.1-0.1
	C108,81.9,107.8,82,107.5,82.2z M110.5,81.8C110.4,81.8,110.4,81.8,110.5,81.8c0,0.3,0.1,0.5,0.3,0.7c0.1-0.1,0.2-0.1,0.4-0.3
	C110.9,82,110.7,81.9,110.5,81.8z"/>
<path d="M114.5,76.3c-0.5,0-1,0-1.5,0c0.2-0.5,0.3-1,0.4-1.5c1.5,0,3,0,4.6,0c-0.1,0.5-0.2,1-0.3,1.5c-0.5,0-0.9,0-1.4,0
	c-0.3,1.3-0.6,2.5-0.9,3.8c-0.6,0-1.2,0-1.8,0c0.1-0.6,0.3-1.2,0.4-1.8C114.1,77.6,114.3,77,114.5,76.3z"/>
<path d="M123.1,81.4c0.5,0,0.9,0,1.4,0c0,1.5,0,2.9,0,4.4c0.9,0,1.8,0,2.7,0c0,0.4,0,0.8,0,1.2c-1.3,0-2.7,0-4,0
	C123.1,85.1,123.1,83.3,123.1,81.4z"/>
<path d="M106.5,85.8c0,0.5,0,0.8,0,1.2c-0.4,0.1-3.5,0.1-4,0c0-1.8,0-3.7,0-5.6c0.4,0,0.9,0,1.4,0c0,1.5,0,2.9,0,4.4
	C104.7,85.8,105.6,85.8,106.5,85.8z"/>
<path d="M100.9,80c0.4-1.8,0.8-3.5,1.2-5.3c0.6,0,1.2,0,1.9,0c-0.4,1.8-0.8,3.5-1.2,5.3C102.2,80,101.6,80,100.9,80z"/>
<path d="M116.5,79.7c-0.2,0.1-0.3,0-0.3-0.2c0-0.1,0.1-0.2,0.2-0.2C116.6,79.4,116.5,79.6,116.5,79.7z"/>
<path class="st1" d="M106.2,49.5c0,3.6-2.9,6.6-6.6,6.6c-3.6,0-6.7-3-6.7-6.6c0-3.6,2.9-6.6,6.6-6.6
	C103.2,42.9,106.2,45.8,106.2,49.5z"/>
<path class="st1" d="M86.5,49.4c1.9-0.5,3.8-1,5.7-1.5c0,1.1,0,2.1,0,3.2c-1.9-0.5-3.8-1-5.7-1.5C86.5,49.5,86.5,49.5,86.5,49.4z"/>
<path class="st1" d="M112.7,49.6c-1.9,0.5-3.8,1-5.7,1.6c0-0.6,0.1-1.1,0.1-1.6c0-0.5,0-1-0.1-1.6c1.9,0.5,3.8,1,5.7,1.5
	C112.7,49.5,112.7,49.5,112.7,49.6z"/>
<path class="st1" d="M110.9,56.1c-1.9-0.5-3.8-1-5.8-1.6c0.7-0.8,1.2-1.8,1.5-2.7C108.1,53.3,109.5,54.7,110.9,56.1z"/>
<path class="st1" d="M94.1,54.6c-2,0.5-3.9,1.1-5.8,1.6c1.4-1.4,2.8-2.8,4.2-4.2C92.9,52.8,93.3,53.7,94.1,54.6z"/>
<path class="st1" d="M106.7,47.2c-0.4-1-0.8-1.9-1.5-2.6c0.3-0.2,5.1-1.6,5.8-1.6C109.6,44.4,108.2,45.8,106.7,47.2z"/>
<path class="st1" d="M106.2,38.2c-0.5,1.9-1,3.8-1.6,5.7c-0.3-0.2-0.6-0.4-0.8-0.6c-0.3-0.2-0.6-0.4-0.9-0.5c-0.3-0.2-0.6-0.3-1-0.4
	c1.4-1.4,2.8-2.8,4.2-4.2C106.1,38.2,106.1,38.2,106.2,38.2z"/>
<path class="st1" d="M98,56.9c1.1,0,2.1,0,3.1,0c-0.5,1.9-1,3.8-1.5,5.7c0,0-0.1,0-0.1,0C99,60.7,98.5,58.8,98,56.9z"/>
<path class="st1" d="M97.2,42.3c-0.9,0.5-1.8,1-2.7,1.5c-0.5-1.9-1-3.8-1.6-5.7C93.4,38.4,96.6,41.6,97.2,42.3z"/>
<path class="st1" d="M92.5,47.2c-1.4-1.4-2.8-2.8-4.3-4.2c0.4,0,4.6,1.1,5.8,1.5c-0.3,0.4-0.6,0.8-0.8,1.3
	C92.9,46.2,92.7,46.7,92.5,47.2z"/>
<path class="st1" d="M97.2,56.6c-1.4,1.4-2.8,2.8-4.1,4.1c0-0.3,1.3-5.1,1.6-5.7C95.4,55.8,96.3,56.3,97.2,56.6z"/>
<path class="st1" d="M101.9,56.6c1-0.4,1.9-0.9,2.7-1.6c0.6,2,1.1,3.9,1.6,5.7c0,0,0,0.1-0.1,0.1c0,0,0,0,0,0
	c-1.3-1.3-2.6-2.6-3.9-3.9C102.1,56.9,102,56.8,101.9,56.6z"/>
<path class="st1" d="M101.1,42.2c-1-0.2-2-0.2-3,0c0.2-1,0.5-1.9,0.7-2.9c0.2-1,0.5-1.9,0.8-2.9C99.8,36.7,101,41.5,101.1,42.2z"/>
<path class="st1" d="M94.4,80.7c-1.9,2-3.8,4-5.7,6c-0.4-0.4-0.8-0.8-1.2-1.1c1.6-1.6,3.1-3.3,4.7-4.9c-1.2-1.2-2.5-2.4-3.7-3.6
	c-1.2,1.3-2.4,2.5-3.7,3.8c0.6,0.6,1.3,1.3,1.9,1.9c-0.4,0.4-0.8,0.6-1.3,0.8c-0.9-0.9-1.8-1.8-2.8-2.7c1.9-2,3.8-4,5.7-6
	C90.4,76.9,92.3,78.8,94.4,80.7z"/>
<path class="st1" d="M75.9,84.3c0.6-0.2,1.1-0.4,1.6-0.7c0.3,0.4,0.6,0.8,0.8,1.1c-0.2,0.2-3.7,1.8-4.4,1.9
	c0.7-3.9,1.4-7.9,2.1-11.8c0.2,0.1,0.2,0.2,0.3,0.2c2,1.9,3.9,3.7,5.9,5.6c0.2,0.2,0.3,0.3,0.3,0.6c-0.1,0.4,0.1,0.6,0.4,0.8
	c0.1,0.1,0.2,0.2,0.4,0.4c-0.4,0.2-0.8,0.4-1.2,0.6c-0.1,0-0.2,0.1-0.3,0.1c-0.9,0.4-0.9,0.4-1.7-0.2c-0.1-0.1-0.3-0.2-0.4-0.4
	c0.6-0.3,1.1-0.5,1.7-0.8c-0.2-0.3-3.4-3.4-4.2-3.9C76.7,80,76.3,82.1,75.9,84.3z"/>
<path class="st1" d="M88.1,78.4c1.3,1.2,1.5,3.1,0.6,4.6c-0.4,0.6-0.9,1.1-1.6,1.5c-2.6,1.4-5.2,1.4-7.8,0c-0.7-0.4-1.3-1-1.7-1.7
	c-0.6-1.1-0.6-2.3,0.1-3.4c0.4,0.2,0.6,0.6,0.9,0.9c0.1,0.1,0.1,0.3,0,0.4c-0.1,0.9,0.2,1.6,0.7,2.2c0.5,0.6,1.1,0.9,1.9,1.2
	c1.4,0.5,2.8,0.4,4.1-0.1c0.6-0.2,1.1-0.5,1.5-0.9c1-0.9,1.2-2.1,0.6-3.3c0-0.1-0.1-0.2-0.2-0.3C87.5,79,87.8,78.7,88.1,78.4z"/>
<path class="st1" d="M79.1,77.6c2.3-1.3,4.5-1.4,7-0.6c-0.3,0.4-0.6,0.7-0.9,1c-1.7-0.5-3.4-0.4-5,0.6
	C79.8,78.2,79.5,77.9,79.1,77.6z"/>
<path class="st1" d="M88.4,78c1.1,1,2.1,2,3.1,3c-0.8,0.8-1.6,1.6-2.4,2.5c0-0.2,0-0.2,0-0.3c0.2-0.7,0.3-1.3,0.3-2
	c0-0.9-0.3-1.8-0.9-2.5c-0.1-0.1-0.2-0.2-0.2-0.3C88.3,78.2,88.4,78.2,88.4,78z"/>
<path class="st1" d="M84.2,78.9c-0.6,0.6-1.1,1.2-1.7,1.8c-0.5-0.5-1-0.9-1.5-1.4C81.5,78.9,83.3,78.6,84.2,78.9z"/>
<path class="st1" d="M85.4,81.2c0.5-0.4,0.9-0.8,1.3-1.2c0.3,0.2,0.6,0.6,0.8,1c0.1,0.2,0.1,0.4,0,0.6c-0.1,0.4-0.3,0.7-0.6,1.1
	C86.4,82.1,85.9,81.7,85.4,81.2z"/>
<path class="st1" d="M81.3,83.6c0.6-0.3,1.3-0.6,1.9-0.8c0.1,0,0.3,0,0.3,0c0.3,0.3,0.6,0.7,1,1C83.7,84.1,81.9,84,81.3,83.6z"/>
<path class="st1" d="M77.2,83c-0.2,0.1-0.5,0.2-0.9,0.4c0.3-1.6,0.6-3.1,0.9-4.6c0.1,0,0.1,0,0.2,0.1c0.1,0.1,0.1,0.1,0.2,0.2
	c-0.3,0.6-0.6,1.2-0.6,2C77,81.7,77.1,82.3,77.2,83z"/>
<path class="st1" d="M80.2,81.8c-0.3,0.1-0.7,0.2-1,0.4c-0.5-0.7-0.5-1-0.1-1.5C79.5,81.1,79.9,81.4,80.2,81.8z"/>
<path class="st1" d="M114.1,85.8c0-0.4,0-0.8,0-1.2c0.5,0,0.9,0,1.4,0c0.4,0,0.5,0.3,0.5,0.6c0,0.3-0.2,0.6-0.5,0.6
	C115.1,85.9,114.6,85.8,114.1,85.8z"/>
<path class="st1" d="M114.1,83.5c0-0.4,0-0.6,0-1c0.4,0,0.8,0,1.2,0c0.3,0,0.5,0.2,0.5,0.5c0,0.3-0.2,0.5-0.5,0.5
	C115,83.5,114.6,83.5,114.1,83.5z"/>
<path class="st1" d="M105.8,77.2c0.1-0.4,0.2-0.8,0.3-1.2c0.1,0,0.1-0.1,0.2-0.1c0.4,0,0.6,0.1,0.7,0.3c0.1,0.2,0,0.6-0.3,0.8
	C106.4,77.2,106.2,77.3,105.8,77.2z"/>
<path class="st1" d="M119.4,84.6c0.2-0.5,0.3-0.9,0.5-1.4c0,0,0.1,0,0.1,0c0.1,0.4,0.3,0.9,0.5,1.4
	C120.1,84.6,119.8,84.6,119.4,84.6z"/>
<path class="st1" d="M108.1,82.9c0.4,0.1,0.7,0.1,1.1,0.2c0,0.4,0,0.7,0,1.1c-0.4,0.1-0.8,0-1.3-0.1C107.9,83.7,108,83.3,108.1,82.9
	z"/>
<path class="st1" d="M110.7,84.1c-0.4,0.1-0.8,0.1-1.2,0.2c0-0.4,0-0.8,0-1.2c0.2,0,0.3-0.1,0.5-0.1c0.2,0,0.3-0.1,0.5-0.1
	C110.7,83.3,110.7,83.7,110.7,84.1z"/>
<path class="st1" d="M109.2,84.6c0,0.2,0,0.4,0,0.6c0,0.1,0,0.3,0,0.5c-0.3,0.1-0.6,0-0.9,0c-0.1,0-0.2-0.2-0.3-0.3
	c-0.1-0.3-0.1-0.5-0.1-0.9c0.3,0,0.5,0.1,0.7,0.1C108.7,84.5,108.9,84.6,109.2,84.6z"/>
<path class="st1" d="M109.5,85.7c0-0.3,0-0.7,0-1.1c0.4-0.1,0.8-0.1,1.2-0.2c0,0.1,0,0.1,0,0.2C110.6,85.6,110.7,85.7,109.5,85.7z"
	/>
<path class="st1" d="M111.9,83.9c0.2,1,0,1.2-1,1.5c0-0.3,0.1-0.6,0.1-0.9c0-0.1,0.1-0.2,0.1-0.2C111.4,84.1,111.7,84,111.9,83.9z"
	/>
<path class="st1" d="M107.7,85.4c-1-0.3-1.2-0.5-1-1.5c0.3,0.1,0.6,0.3,0.9,0.4C107.6,84.7,107.6,85,107.7,85.4z"/>
<path class="st1" d="M111.3,82.5c0.3,0.3,0.5,0.6,0.6,1.1c-0.3,0.1-0.5,0.3-0.8,0.5c-0.1-0.4-0.1-0.8-0.2-1.2
	C111,82.7,111.2,82.6,111.3,82.5z"/>
<path class="st1" d="M107.5,84c-0.3-0.2-0.6-0.3-0.8-0.4c0.1-0.4,0.3-0.8,0.6-1.1c0.2,0.1,0.3,0.2,0.5,0.3
	C107.7,83.2,107.6,83.5,107.5,84z"/>
<path class="st1" d="M109.1,81.6c0,0.4,0,0.8,0,1.1c-0.3,0-0.6,0-0.9-0.2C108.4,82.1,108.6,81.8,109.1,81.6z"/>
<path class="st1" d="M110.4,82.6c-0.4,0.1-0.6,0.1-0.9,0.2c0-0.4,0-0.8,0-1.2C110,81.8,110.2,82.1,110.4,82.6z"/>
<path class="st1" d="M109.1,86.9c-0.5-0.1-0.7-0.5-0.9-0.9c0.3,0,0.6,0.1,0.9,0.1C109.1,86.3,109.1,86.6,109.1,86.9z"/>
<path class="st1" d="M109.5,86.8c0-0.3,0-0.5,0-0.8c0.3,0,0.6-0.1,0.9-0.1C110.2,86.5,110,86.7,109.5,86.8z"/>
<path class="st1" d="M107,85.5c0.7,0.1,1,0.5,1.2,1.1C107.6,86.4,107.3,86.1,107,85.5z"/>
<path class="st1" d="M110.4,86.7c0.2-0.6,0.5-1.1,1.2-1.1C111.3,86.1,111,86.4,110.4,86.7z"/>
<path class="st1" d="M107.5,82.2c0.3-0.2,0.5-0.3,0.7-0.4c0,0,0,0,0.1,0.1c-0.1,0.2-0.2,0.4-0.4,0.6
	C107.8,82.4,107.7,82.3,107.5,82.2z"/>
<path class="st1" d="M110.5,81.8c0.2,0.1,0.4,0.3,0.6,0.4c-0.2,0.1-0.3,0.2-0.4,0.3C110.6,82.2,110.5,82.1,110.5,81.8
	C110.4,81.8,110.4,81.8,110.5,81.8z"/>
</svg>
